{
.appVersion = "1045";
classes = (
{
automatic = 1;

glyphs = (
{
glyphname = A;
layers = (
{
anchors = (
{
name = bottom;
position = "{334, 0}";
},
{
name = ogonek;
position = "{612, 2}";
},
{
name = top;
position = "{334, 700}";
}
);
layerId = "D9DFF065-DDB2-4B0F-A853-E0DAE751FB65";
paths = (
{
closed = 1;
nodes = (
"67 0 LINE",
"339 676 LINE",
"345 676 LINE",
"599 0 LINE",
"622 0 LINE",
"360 700 LINE",
"326 700 LINE",
"44 0 LINE"
);
},
{
closed = 1;
nodes = (
"517 243 LINE",
"511 264 LINE",
"164 264 LINE",
"159 243 LINE"
);
}
);
width = 667;
},
{
anchors = (
{
name = bottom;
position = "{357, 0}";
},
{
name = ogonek;
position = "{637, 5}";
},
{
name = top;
position = "{357, 707}";
}
);
layerId = "EF8420CB-322A-4DAC-B980-DA6E6912705F";
paths = (
{
closed = 1;
nodes = (
"197 0 LINE",
"351 519 LINE",
"359 519 LINE",
"517 0 LINE",
"708 0 LINE",
"468 707 LINE",
"245 707 LINE",
"6 0 LINE"
);
},
{
closed = 1;
nodes = (
"517 144 LINE",
"482 306 LINE",
"230 306 LINE",
"196 144 LINE"
);
}
);
width = 714;
}
);
unicode = 0041;
},
{
glyphname = B;
layers = (
{
anchors = (
{
name = bottom;
position = "{299, 0}";
},
{
name = top;
position = "{299, 700}";
}
);
layerId = "D9DFF065-DDB2-4B0F-A853-E0DAE751FB65";
paths = (
{
closed = 1;
nodes = (
"351 0 LINE SMOOTH",
"497 0 OFFCURVE",
"594 72 OFFCURVE",
"594 179 CURVE SMOOTH",
"594 274 OFFCURVE",
"516 347 OFFCURVE",
"398 361 CURVE",
"398 363 LINE",
"481 376 OFFCURVE",
"537 440 OFFCURVE",
"537 523 CURVE SMOOTH",
"537 629 OFFCURVE",
"449 700 OFFCURVE",
"316 700 CURVE SMOOTH",
"122 700 LINE",
"122 0 LINE"
);
},
{
closed = 1;
nodes = (
"143 680 LINE",
"329 680 LINE SMOOTH",
"440 680 OFFCURVE",
"514 617 OFFCURVE",
"514 523 CURVE SMOOTH",
"514 431 OFFCURVE",
"440 369 OFFCURVE",
"329 369 CURVE SMOOTH",
"131 369 LINE",
"131 349 LINE",
"328 349 LINE SMOOTH",
"474 349 OFFCURVE",
"572 281 OFFCURVE",
"572 180 CURVE SMOOTH",
"572 84 OFFCURVE",
"488 20 OFFCURVE",
"361 20 CURVE SMOOTH",
"143 20 LINE"
);
}
);
width = 659;
},
{
anchors = (
{
name = bottom;
position = "{316, 0}";
},
{
name = top;
position = "{316, 707}";
}
);
layerId = "EF8420CB-322A-4DAC-B980-DA6E6912705F";
paths = (
{
closed = 1;
nodes = (
"381 0 LINE SMOOTH",
"540 0 OFFCURVE",
"646 79 OFFCURVE",
"646 198 CURVE SMOOTH",
"646 285 OFFCURVE",
"589 353 OFFCURVE",
"503 369 CURVE",
"503 371 LINE",
"562 397 OFFCURVE",
"601 459 OFFCURVE",
"601 526 CURVE SMOOTH",
"601 635 OFFCURVE",
"500 707 OFFCURVE",
"348 707 CURVE SMOOTH",
"85 707 LINE",
"85 0 LINE"
);
},
{
closed = 1;
nodes = (
"261 545 LINE",
"343 545 LINE SMOOTH",
"390 545 OFFCURVE",
"422 523 OFFCURVE",
"422 492 CURVE SMOOTH",
"422 460 OFFCURVE",
"390 440 OFFCURVE",
"343 440 CURVE SMOOTH",
"248 440 LINE",
"248 278 LINE",
"384 278 LINE SMOOTH",
"433 278 OFFCURVE",
"466 255 OFFCURVE",
"466 220 CURVE SMOOTH",
"466 185 OFFCURVE",
"433 162 OFFCURVE",
"385 162 CURVE SMOOTH",
"261 162 LINE"
);
}
);
width = 678;
}
);
unicode = 0042;
},
{
glyphname = C;
layers = (
{
anchors = (
{
name = bottom;
position = "{408, 0}";
},
{
name = top;
position = "{362, 700}";
}
);
layerId = "D9DFF065-DDB2-4B0F-A853-E0DAE751FB65";
paths = (
{
closed = 1;
nodes = (
"577 47 LINE",
"523 22 OFFCURVE",
"461 9 OFFCURVE",
"405 9 CURVE SMOOTH",
"222 9 OFFCURVE",
"101 145 OFFCURVE",
"101 348 CURVE SMOOTH",
"101 554 OFFCURVE",
"227 691 OFFCURVE",
"414 691 CURVE SMOOTH",
"467 691 OFFCURVE",
"520 680 OFFCURVE",
"577 659 CURVE",
"583 678 LINE",
"523 700 OFFCURVE",
"461 712 OFFCURVE",
"405 712 CURVE SMOOTH",
"211 712 OFFCURVE",
"79 564 OFFCURVE",
"79 348 CURVE SMOOTH",
"79 133 OFFCURVE",
"209 -12 OFFCURVE",
"400 -12 CURVE SMOOTH",
"460 -12 OFFCURVE",
"526 2 OFFCURVE",
"583 28 CURVE"
);
}
);
width = 632;
},
{
anchors = (
{
name = bottom;
position = "{394, 0}";
},
{
name = top;
position = "{380, 707}";
}
);
layerId = "EF8420CB-322A-4DAC-B980-DA6E6912705F";
paths = (
{
closed = 1;
nodes = (
"559 190 LINE",
"511 167 OFFCURVE",
"456 154 OFFCURVE",
"406 154 CURVE SMOOTH",
"288 154 OFFCURVE",
"219 227 OFFCURVE",
"219 353 CURVE SMOOTH",
"219 480 OFFCURVE",
"289 553 OFFCURVE",
"411 553 CURVE SMOOTH",
"459 553 OFFCURVE",
"512 541 OFFCURVE",
"559 520 CURVE",
"596 674 LINE",
"534 703 OFFCURVE",
"461 719 OFFCURVE",
"391 719 CURVE SMOOTH",
"180 719 OFFCURVE",
"39 572 OFFCURVE",
"39 352 CURVE SMOOTH",
"39 133 OFFCURVE",
"179 -12 OFFCURVE",
"391 -12 CURVE SMOOTH",
"462 -12 OFFCURVE",
"531 4 OFFCURVE",
"596 36 CURVE"
);
}
);
width = 630;
}
);
unicode = 0043;
},
{
glyphname = D;
layers = (
{
anchors = (
{
name = bottom;
position = "{367, 0}";
},
{
name = center;
position = "{155, 350}";
},
{
name = top;
position = "{347, 700}";
}
);
layerId = "D9DFF065-DDB2-4B0F-A853-E0DAE751FB65";
paths = (
{
closed = 1;
nodes = (
"369 0 LINE SMOOTH",
"537 0 OFFCURVE",
"649 142 OFFCURVE",
"649 354 CURVE SMOOTH",
"649 562 OFFCURVE",
"537 700 OFFCURVE",
"369 700 CURVE SMOOTH",
"122 700 LINE",
"122 0 LINE"
);
},
{
closed = 1;
nodes = (
"143 680 LINE",
"363 680 LINE SMOOTH",
"521 680 OFFCURVE",
"627 550 OFFCURVE",
"627 354 CURVE SMOOTH",
"627 154 OFFCURVE",
"521 20 OFFCURVE",
"363 20 CURVE SMOOTH",
"143 20 LINE"
);
}
);
width = 729;
},
{
anchors = (
{
name = bottom;
position = "{354, 0}";
},
{
name = center;
position = "{201, 354}";
},
{
name = top;
position = "{354, 707}";
}
);
layerId = "EF8420CB-322A-4DAC-B980-DA6E6912705F";
paths = (
{
closed = 1;
nodes = (
"352 0 LINE SMOOTH",
"544 0 OFFCURVE",
"672 144 OFFCURVE",
"672 359 CURVE SMOOTH",
"672 568 OFFCURVE",
"544 707 OFFCURVE",
"352 707 CURVE SMOOTH",
"85 707 LINE",
"85 0 LINE"
);
},
{
closed = 1;
nodes = (
"261 541 LINE",
"346 541 LINE SMOOTH",
"433 541 OFFCURVE",
"492 468 OFFCURVE",
"492 358 CURVE SMOOTH",
"492 243 OFFCURVE",
"433 166 OFFCURVE",
"346 166 CURVE SMOOTH",
"261 166 LINE"
);
}
);
width = 711;
}
);
unicode = 0044;
},
{
glyphname = E;
layers = (
{
anchors = (
{
name = bottom;
position = "{331, 0}";
},
{
name = ogonek;
position = "{547, 2}";
},
{
name = top;
position = "{331, 700}";
},
{
name = topleft;
position = "{21, 700}";
}
);
layerId = "D9DFF065-DDB2-4B0F-A853-E0DAE751FB65";
paths = (
{
closed = 1;
nodes = (
"557 0 LINE",
"557 20 LINE",
"143 20 LINE",
"143 680 LINE",
"557 680 LINE",
"557 700 LINE",
"122 700 LINE",
"122 0 LINE"
);
},
{
closed = 1;
nodes = (
"530 354 LINE",
"530 374 LINE",
"138 374 LINE",
"138 354 LINE"
);
}
);
width = 611;
},
{
anchors = (
{
name = bottom;
position = "{323, 0}";
},
{
name = ogonek;
position = "{539, 5}";
},
{
name = top;
position = "{323, 707}";
},
{
name = topleft;
position = "{26, 707}";
}
);
layerId = "EF8420CB-322A-4DAC-B980-DA6E6912705F";
paths = (
{
closed = 1;
nodes = (
"581 0 LINE",
"581 162 LINE",
"261 162 LINE",
"261 545 LINE",
"581 545 LINE",
"581 707 LINE",
"85 707 LINE",
"85 0 LINE"
);
},
{
closed = 1;
nodes = (
"554 277 LINE",
"554 439 LINE",
"245 439 LINE",
"245 277 LINE"
);
}
);
width = 647;
}
);
unicode = 0045;
},
{
glyphname = F;
layers = (
{
anchors = (
{
name = bottom;
position = "{319, 0}";
},
{
name = top;
position = "{319, 700}";
}
);
layerId = "D9DFF065-DDB2-4B0F-A853-E0DAE751FB65";
paths = (
{
closed = 1;
nodes = (
"143 0 LINE",
"143 680 LINE",
"527 680 LINE",
"527 700 LINE",
"122 700 LINE",
"122 0 LINE"
);
},
{
closed = 1;
nodes = (
"501 334 LINE",
"501 354 LINE",
"138 354 LINE",
"138 334 LINE"
);
}
);
width = 572;
},
{
anchors = (
{
name = bottom;
position = "{280, 0}";
},
{
name = top;
position = "{280, 707}";
}
);
layerId = "EF8420CB-322A-4DAC-B980-DA6E6912705F";
paths = (
{
closed = 1;
nodes = (
"261 0 LINE",
"261 545 LINE",
"560 545 LINE",
"560 707 LINE",
"85 707 LINE",
"85 0 LINE"
);
},
{
closed = 1;
nodes = (
"543 253 LINE",
"543 415 LINE",
"171 415 LINE",
"171 253 LINE"
);
}
);
width = 602;
}
);
unicode = 0046;
},
{
glyphname = G;
layers = (
{
anchors = (
{
name = bottom;
position = "{364, 0}";
},
{
name = top;
position = "{385, 700}";
}
);
layerId = "D9DFF065-DDB2-4B0F-A853-E0DAE751FB65";
paths = (
{
closed = 1;
nodes = (
"488 -12 OFFCURVE",
"576 18 OFFCURVE",
"632 66 CURVE",
"632 343 LINE",
"344 343 LINE",
"344 323 LINE",
"611 323 LINE",
"611 77 LINE",
"561 35 OFFCURVE",
"480 9 OFFCURVE",
"401 9 CURVE SMOOTH",
"221 9 OFFCURVE",
"101 145 OFFCURVE",
"101 350 CURVE SMOOTH",
"101 558 OFFCURVE",
"225 691 OFFCURVE",
"419 691 CURVE SMOOTH",
"486 691 OFFCURVE",
"552 675 OFFCURVE",
"614 644 CURVE",
"620 663 LINE",
"554 695 OFFCURVE",
"485 712 OFFCURVE",
"416 712 CURVE SMOOTH",
"212 712 OFFCURVE",
"79 569 OFFCURVE",
"79 350 CURVE SMOOTH",
"79 132 OFFCURVE",
"207 -12 OFFCURVE",
"401 -12 CURVE SMOOTH"
);
}
);
width = 719;
},
{
anchors = (
{
name = bottom;
position = "{391, 0}";
},
{
name = top;
position = "{382, 707}";
}
);
layerId = "EF8420CB-322A-4DAC-B980-DA6E6912705F";
paths = (
{
closed = 1;
nodes = (
"482 -12 OFFCURVE",
"581 17 OFFCURVE",
"658 68 CURVE",
"658 428 LINE",
"347 428 LINE",
"347 276 LINE",
"502 276 LINE",
"502 182 LINE",
"473 163 OFFCURVE",
"438 154 OFFCURVE",
"399 154 CURVE SMOOTH",
"289 154 OFFCURVE",
"220 230 OFFCURVE",
"220 353 CURVE SMOOTH",
"220 481 OFFCURVE",
"293 553 OFFCURVE",
"423 553 CURVE SMOOTH",
"474 553 OFFCURVE",
"532 542 OFFCURVE",
"589 520 CURVE",
"626 674 LINE",
"556 703 OFFCURVE",
"473 719 OFFCURVE",
"397 719 CURVE SMOOTH",
"177 719 OFFCURVE",
"40 577 OFFCURVE",
"40 350 CURVE SMOOTH",
"40 128 OFFCURVE",
"175 -12 OFFCURVE",
"389 -12 CURVE SMOOTH"
);
}
);
width = 721;
}
);
unicode = 0047;
},
{
glyphname = H;
layers = (
{
anchors = (
{
name = bottom;
position = "{391, 0}";
},
{
name = center;
position = "{391, 574}";
},
{
name = top;
position = "{391, 707}";
},
{
name = topleft;
position = "{32, 707}";
}
);
layerId = "EF8420CB-322A-4DAC-B980-DA6E6912705F";
paths = (
{
closed = 1;
nodes = (
"510 0 LINE",
"686 0 LINE",
"686 707 LINE",
"510 707 LINE"
);
},
{
closed = 1;
nodes = (
"261 707 LINE",
"85 707 LINE",
"85 0 LINE",
"261 0 LINE"
);
},
{
closed = 1;
nodes = (
"526 444 LINE",
"245 444 LINE",
"245 282 LINE",
"526 282 LINE"
);
}
);
width = 771;
},
{
anchors = (
{
name = bottom;
position = "{378, 0}";
},
{
name = center;
position = "{378, 550}";
},
{
name = top;
position = "{378, 700}";
},
{
name = topleft;
position = "{15, 700}";
}
);
layerId = "D9DFF065-DDB2-4B0F-A853-E0DAE751FB65";
paths = (
{
closed = 1;
nodes = (
"612 0 LINE",
"633 0 LINE",
"633 700 LINE",
"612 700 LINE"
);
},
{
closed = 1;
nodes = (
"143 700 LINE",
"122 700 LINE",
"122 0 LINE",
"143 0 LINE"
);
},
{
closed = 1;
nodes = (
"617 381 LINE",
"138 381 LINE",
"138 361 LINE",
"617 361 LINE"
);
}
);
width = 755;
}
);
unicode = 0048;
},
{
glyphname = I;
layers = (
{
anchors = (
{
name = bottom;
position = "{132, 0}";
},
{
name = ogonek;
position = "{133, 2}";
},
{
name = top;
position = "{132, 700}";
},
{
name = topleft;
position = "{21, 700}";
}
);
layerId = "D9DFF065-DDB2-4B0F-A853-E0DAE751FB65";
paths = (
{
closed = 1;
nodes = (
"143 0 LINE",
"143 700 LINE",
"122 700 LINE",
"122 0 LINE"
);
}
);
width = 265;
},
{
anchors = (
{
name = bottom;
position = "{173, 0}";
},
{
name = ogonek;
position = "{219, 5}";
},
{
name = top;
position = "{173, 707}";
},
{
name = topleft;
position = "{29, 707}";
}
);
layerId = "EF8420CB-322A-4DAC-B980-DA6E6912705F";
paths = (
{
closed = 1;
nodes = (
"261 0 LINE",
"261 707 LINE",
"85 707 LINE",
"85 0 LINE"
);
}
);
width = 346;
}
);
unicode = 0049;
},
{
glyphname = J;
layers = (
{
anchors = (
{
name = bottom;
position = "{326, 0}";
},
{
name = top;
position = "{356, 700}";
}
);
layerId = "D9DFF065-DDB2-4B0F-A853-E0DAE751FB65";
paths = (
{
closed = 1;
nodes = (
"295 -12 OFFCURVE",
"365 57 OFFCURVE",
"365 166 CURVE SMOOTH",
"365 700 LINE",
"344 700 LINE",
"344 162 LINE SMOOTH",
"344 68 OFFCURVE",
"282 9 OFFCURVE",
"184 9 CURVE SMOOTH",
"141 9 OFFCURVE",
"92 20 OFFCURVE",
"45 41 CURVE",
"39 23 LINE",
"85 1 OFFCURVE",
"137 -12 OFFCURVE",
"184 -12 CURVE SMOOTH"
);
}
);
width = 481;
},
{
anchors = (
{
name = bottom;
position = "{249, 0}";
},
{
name = top;
position = "{319, 707}";
}
);
layerId = "EF8420CB-322A-4DAC-B980-DA6E6912705F";
paths = (
{
closed = 1;
nodes = (
"322 -12 OFFCURVE",
"415 80 OFFCURVE",
"415 219 CURVE SMOOTH",
"415 707 LINE",
"239 707 LINE",
"239 239 LINE SMOOTH",
"239 188 OFFCURVE",
"205 154 OFFCURVE",
"153 154 CURVE SMOOTH",
"124 154 OFFCURVE",
"76 165 OFFCURVE",
"38 179 CURVE",
"11 26 LINE",
"62 2 OFFCURVE",
"127 -12 OFFCURVE",
"182 -12 CURVE SMOOTH"
);
}
);
width = 489;
}
);
unicode = 004A;
},
{
glyphname = K;
layers = (
{
anchors = (
{
name = bottom;
position = "{290, 0}";
},
{
name = top;
position = "{290, 700}";
}
);
layerId = "D9DFF065-DDB2-4B0F-A853-E0DAE751FB65";
paths = (
{
closed = 1;
nodes = (
"143 0 LINE",
"143 700 LINE",
"122 700 LINE",
"122 0 LINE"
);
},
{
closed = 1;
nodes = (
"257 351 LINE",
"572 0 LINE",
"600 0 LINE",
"271 366 LINE"
);
},
{
closed = 1;
nodes = (
"143 214 LINE",
"563 700 LINE",
"535 700 LINE",
"143 243 LINE"
);
}
);
width = 638;
},
{
anchors = (
{
name = bottom;
position = "{360, 0}";
},
{
name = top;
position = "{360, 707}";
}
);
layerId = "EF8420CB-322A-4DAC-B980-DA6E6912705F";
paths = (
{
closed = 1;
nodes = (
"261 0 LINE",
"261 707 LINE",
"85 707 LINE",
"85 0 LINE"
);
},
{
closed = 1;
nodes = (
"329 286 LINE",
"508 0 LINE",
"718 0 LINE",
"440 420 LINE"
);
},
{
closed = 1;
nodes = (
"261 179 LINE",
"704 707 LINE",
"499 707 LINE",
"261 415 LINE"
);
}
);
width = 720;
}
);
unicode = 004B;
},
{
glyphname = L;
layers = (
{
anchors = (
{
name = bottom;
position = "{340, 0}";
},
{
name = center;
position = "{173, 366}";
},
{
name = top;
position = "{130, 700}";
},
{
name = topright;
position = "{251, 472}";
}
);
layerId = "D9DFF065-DDB2-4B0F-A853-E0DAE751FB65";
paths = (
{
closed = 1;
nodes = (
"143 0 LINE",
"143 700 LINE",
"122 700 LINE",
"122 0 LINE"
);
},
{
closed = 1;
nodes = (
"554 0 LINE",
"554 20 LINE",
"122 20 LINE",
"122 0 LINE"
);
}
);
width = 591;
},
{
anchors = (
{
name = bottom;
position = "{303, 0}";
},
{
name = center;
position = "{179, 404}";
},
{
name = top;
position = "{178, 707}";
},
{
name = topright;
position = "{402, 497}";
}
);
layerId = "EF8420CB-322A-4DAC-B980-DA6E6912705F";
paths = (
{
closed = 1;
nodes = (
"261 0 LINE",
"261 707 LINE",
"85 707 LINE",
"85 0 LINE"
);
},
{
closed = 1;
nodes = (
"557 0 LINE",
"557 162 LINE",
"85 162 LINE",
"85 0 LINE"
);
}
);
width = 572;
}
);
unicode = 004C;
},
{
glyphname = M;
layers = (
{
anchors = (
{
name = bottom;
position = "{440, 0}";
},
{
name = top;
position = "{440, 700}";
}
);
layerId = "D9DFF065-DDB2-4B0F-A853-E0DAE751FB65";
paths = (
{
closed = 1;
nodes = (
"143 0 LINE",
"143 679 LINE",
"148 679 LINE",
"429 189 LINE",
"450 189 LINE",
"732 679 LINE",
"737 679 LINE",
"737 0 LINE",
"758 0 LINE",
"758 700 LINE",
"720 700 LINE",
"443 215 LINE",
"435 215 LINE",
"159 700 LINE",
"122 700 LINE",
"122 0 LINE"
);
}
);
width = 880;
},
{
anchors = (
{
name = bottom;
position = "{443, 0}";
},
{
name = top;
position = "{443, 707}";
}
);
layerId = "EF8420CB-322A-4DAC-B980-DA6E6912705F";
paths = (
{
closed = 1;
nodes = (
"261 0 LINE",
"261 382 LINE",
"269 382 LINE",
"417 126 LINE",
"469 126 LINE",
"617 382 LINE",
"625 382 LINE",
"625 0 LINE",
"801 0 LINE",
"801 707 LINE",
"620 707 LINE",
"447 390 LINE",
"439 390 LINE",
"266 707 LINE",
"85 707 LINE",
"85 0 LINE"
);
}
);
width = 886;
}
);
unicode = 004D;
},
{
glyphname = N;
layers = (
{
anchors = (
{
name = bottom;
position = "{385, 0}";
},
{
name = hook;
position = "{634, 0}";
},
{
name = top;
position = "{385, 700}";
}
);
layerId = "D9DFF065-DDB2-4B0F-A853-E0DAE751FB65";
paths = (
{
closed = 1;
nodes = (
"143 0 LINE",
"143 670 LINE",
"147 670 LINE",
"621 0 LINE",
"648 0 LINE",
"648 700 LINE",
"627 700 LINE",
"627 30 LINE",
"623 30 LINE",
"151 700 LINE",
"122 700 LINE",
"122 0 LINE"
);
}
);
width = 770;
},
{
anchors = (
{
name = bottom;
position = "{398, 0}";
},
{
name = hook;
position = "{622, 0}";
},
{
name = top;
position = "{398, 707}";
}
);
layerId = "EF8420CB-322A-4DAC-B980-DA6E6912705F";
paths = (
{
closed = 1;
nodes = (
"261 0 LINE",
"261 402 LINE",
"269 402 LINE",
"520 0 LINE",
"711 0 LINE",
"711 707 LINE",
"535 707 LINE",
"535 295 LINE",
"527 295 LINE",
"276 707 LINE",
"85 707 LINE",
"85 0 LINE"
);
}
);
width = 796;
}
);
unicode = 004E;
},
{
glyphname = O;
layers = (
{
anchors = (
{
name = Qtail;
position = "{557, 132}";
},
{
name = bottom;
position = "{378, 0}";
},
{
name = center;
position = "{378, 354}";
},
{
name = ogonek;
position = "{426, 10}";
},
{
name = top;
position = "{378, 707}";
},
{
name = topleft;
position = "{10, 707}";
},
{
name = topright;
position = "{671, 707}";
}
);
layerId = "EF8420CB-322A-4DAC-B980-DA6E6912705F";
paths = (
{
closed = 1;
nodes = (
"581 -12 OFFCURVE",
"716 134 OFFCURVE",
"716 353 CURVE SMOOTH",
"716 573 OFFCURVE",
"581 719 OFFCURVE",
"378 719 CURVE SMOOTH",
"175 719 OFFCURVE",
"40 573 OFFCURVE",
"40 353 CURVE SMOOTH",
"40 134 OFFCURVE",
"175 -12 OFFCURVE",
"378 -12 CURVE SMOOTH"
);
},
{
closed = 1;
nodes = (
"283 154 OFFCURVE",
"220 234 OFFCURVE",
"220 353 CURVE SMOOTH",
"220 473 OFFCURVE",
"283 553 OFFCURVE",
"378 553 CURVE SMOOTH",
"473 553 OFFCURVE",
"536 473 OFFCURVE",
"536 353 CURVE SMOOTH",
"536 234 OFFCURVE",
"473 154 OFFCURVE",
"378 154 CURVE SMOOTH"
);
}
);
width = 756;
},
{
anchors = (
{
name = Qtail;
position = "{560, 57}";
},
{
name = bottom;
position = "{387, 0}";
},
{
name = center;
position = "{387, 350}";
},
{
name = ogonek;
position = "{462, 10}";
},
{
name = top;
position = "{387, 700}";
},
{
name = topleft;
position = "{-18, 700}";
},
{
name = topright;
position = "{551, 700}";
}
);
layerId = "D9DFF065-DDB2-4B0F-A853-E0DAE751FB65";
paths = (
{
closed = 1;
nodes = (
"571 -12 OFFCURVE",
"693 132 OFFCURVE",
"693 349 CURVE SMOOTH",
"693 567 OFFCURVE",
"571 712 OFFCURVE",
"387 712 CURVE SMOOTH",
"203 712 OFFCURVE",
"80 567 OFFCURVE",
"80 349 CURVE SMOOTH",
"80 132 OFFCURVE",
"203 -12 OFFCURVE",
"387 -12 CURVE SMOOTH"
);
},
{
closed = 1;
nodes = (
"216 9 OFFCURVE",
"102 145 OFFCURVE",
"102 349 CURVE SMOOTH",
"102 554 OFFCURVE",
"216 691 OFFCURVE",
"387 691 CURVE SMOOTH",
"557 691 OFFCURVE",
"671 554 OFFCURVE",
"671 349 CURVE SMOOTH",
"671 145 OFFCURVE",
"557 9 OFFCURVE",
"387 9 CURVE SMOOTH"
);
}
);
width = 773;
}
);
unicode = 004F;
},
{
glyphname = P;
layers = (
{
anchors = (
{
name = bottom;
position = "{331, 0}";
},
{
name = top;
position = "{331, 700}";
}
);
layerId = "D9DFF065-DDB2-4B0F-A853-E0DAE751FB65";
paths = (
{
closed = 1;
nodes = (
"143 0 LINE",
"143 680 LINE",
"361 680 LINE SMOOTH",
"483 680 OFFCURVE",
"565 602 OFFCURVE",
"565 488 CURVE SMOOTH",
"565 374 OFFCURVE",
"483 301 OFFCURVE",
"361 301 CURVE SMOOTH",
"134 301 LINE",
"134 281 LINE",
"367 281 LINE SMOOTH",
"499 281 OFFCURVE",
"587 362 OFFCURVE",
"587 488 CURVE SMOOTH",
"587 614 OFFCURVE",
"499 700 OFFCURVE",
"367 700 CURVE SMOOTH",
"122 700 LINE",
"122 0 LINE"
);
}
);
width = 650;
},
{
anchors = (
{
name = bottom;
position = "{331, 0}";
},
{
name = top;
position = "{331, 707}";
}
);
layerId = "EF8420CB-322A-4DAC-B980-DA6E6912705F";
paths = (
{
closed = 1;
nodes = (
"261 0 LINE",
"261 547 LINE",
"379 547 LINE SMOOTH",
"438 547 OFFCURVE",
"478 509 OFFCURVE",
"478 453 CURVE SMOOTH",
"478 396 OFFCURVE",
"438 358 OFFCURVE",
"379 358 CURVE SMOOTH",
"167 358 LINE",
"167 198 LINE",
"385 198 LINE SMOOTH",
"538 198 OFFCURVE",
"640 300 OFFCURVE",
"640 453 CURVE SMOOTH",
"640 605 OFFCURVE",
"538 707 OFFCURVE",
"385 707 CURVE SMOOTH",
"85 707 LINE",
"85 0 LINE"
);
}
);
width = 668;
}
);
unicode = 0050;
},
{
glyphname = Thorn;
layers = (
{
layerId = "D9DFF065-DDB2-4B0F-A853-E0DAE751FB65";
paths = (
{
closed = 1;
nodes = (
"135 540 LINE",
"376 540 LINE SMOOTH",
"501 540 OFFCURVE",
"585 462 OFFCURVE",
"585 344 CURVE SMOOTH",
"585 234 OFFCURVE",
"501 161 OFFCURVE",
"376 161 CURVE SMOOTH",
"134 161 LINE",
"134 141 LINE",
"382 141 LINE SMOOTH",
"517 141 OFFCURVE",
"607 222 OFFCURVE",
"607 344 CURVE SMOOTH",
"607 474 OFFCURVE",
"517 560 OFFCURVE",
"382 560 CURVE SMOOTH",
"135 560 LINE"
);
},
{
closed = 1;
nodes = (
"143 700 LINE",
"122 700 LINE",
"122 0 LINE",
"143 0 LINE"
);
}
);
width = 670;
},
{
layerId = "EF8420CB-322A-4DAC-B980-DA6E6912705F";
paths = (
{
closed = 1;
nodes = (
"171 454 LINE",
"381 454 LINE SMOOTH",
"446 454 OFFCURVE",
"485 419 OFFCURVE",
"485 360 CURVE SMOOTH",
"485 300 OFFCURVE",
"446 265 OFFCURVE",
"381 265 CURVE SMOOTH",
"164 265 LINE",
"164 105 LINE",
"387 105 LINE SMOOTH",
"543 105 OFFCURVE",
"647 207 OFFCURVE",
"647 360 CURVE SMOOTH",
"647 512 OFFCURVE",
"543 614 OFFCURVE",
"387 614 CURVE SMOOTH",
"171 614 LINE"
);
},
{
closed = 1;
nodes = (
"261 707 LINE",
"85 707 LINE",
"85 0 LINE",
"261 0 LINE"
);
}
);
width = 675;
}
);
leftMetricsKey = P;
rightMetricsKey = P;
unicode = 00DE;
},
{
glyphname = R;
layers = (
{
anchors = (
{
name = bottom;
position = "{316, 0}";
},
{
name = top;
position = "{316, 700}";
}
);
layerId = "D9DFF065-DDB2-4B0F-A853-E0DAE751FB65";
paths = (
{
closed = 1;
nodes = (
"579 0 LINE",
"603 0 LINE",
"397 326 LINE",
"373 326 LINE"
);
},
{
closed = 1;
nodes = (
"143 0 LINE",
"143 680 LINE",
"371 680 LINE SMOOTH",
"487 680 OFFCURVE",
"565 610 OFFCURVE",
"565 508 CURVE SMOOTH",
"565 406 OFFCURVE",
"487 341 OFFCURVE",
"371 341 CURVE SMOOTH",
"134 341 LINE",
"134 321 LINE",
"377 321 LINE SMOOTH",
"503 321 OFFCURVE",
"587 394 OFFCURVE",
"587 508 CURVE SMOOTH",
"587 622 OFFCURVE",
"503 700 OFFCURVE",
"377 700 CURVE SMOOTH",
"122 700 LINE",
"122 0 LINE"
);
}
);
width = 666;
},
{
anchors = (
{
name = bottom;
position = "{348, 0}";
},
{
name = top;
position = "{348, 707}";
}
);
layerId = "EF8420CB-322A-4DAC-B980-DA6E6912705F";
paths = (
{
closed = 1;
nodes = (
"486 0 LINE",
"676 0 LINE",
"508 281 LINE",
"327 281 LINE"
);
},
{
closed = 1;
nodes = (
"261 0 LINE",
"261 547 LINE",
"379 547 LINE SMOOTH",
"438 547 OFFCURVE",
"478 515 OFFCURVE",
"478 468 CURVE SMOOTH",
"478 420 OFFCURVE",
"438 388 OFFCURVE",
"379 388 CURVE SMOOTH",
"167 388 LINE",
"167 228 LINE",
"385 228 LINE SMOOTH",
"538 228 OFFCURVE",
"640 324 OFFCURVE",
"640 468 CURVE SMOOTH",
"640 611 OFFCURVE",
"538 707 OFFCURVE",
"385 707 CURVE SMOOTH",
"85 707 LINE",
"85 0 LINE"
);
}
);
width = 694;
}
);
unicode = 0052;
},
{
glyphname = S;
layers = (
{
anchors = (
{
name = bottom;
position = "{298, 0}";
},
{
name = top;
position = "{310, 700}";
}
);
layerId = "D9DFF065-DDB2-4B0F-A853-E0DAE751FB65";
paths = (
{
closed = 1;
nodes = (
"447 -12 OFFCURVE",
"549 64 OFFCURVE",
"549 179 CURVE SMOOTH",
"549 421 OFFCURVE",
"88 317 OFFCURVE",
"88 531 CURVE SMOOTH",
"88 626 OFFCURVE",
"182 690 OFFCURVE",
"315 690 CURVE SMOOTH",
"377 690 OFFCURVE",
"445 676 OFFCURVE",
"505 653 CURVE",
"511 672 LINE",
"447 697 OFFCURVE",
"378 711 OFFCURVE",
"314 711 CURVE SMOOTH",
"168 711 OFFCURVE",
"66 637 OFFCURVE",
"66 529 CURVE SMOOTH",
"66 298 OFFCURVE",
"527 397 OFFCURVE",
"527 176 CURVE SMOOTH",
"527 76 OFFCURVE",
"432 9 OFFCURVE",
"288 9 CURVE SMOOTH",
"214 9 OFFCURVE",
"137 27 OFFCURVE",
"78 57 CURVE",
"72 38 LINE",
"137 5 OFFCURVE",
"212 -12 OFFCURVE",
"287 -12 CURVE SMOOTH"
);
}
);
width = 611;
},
{
anchors = (
{
name = bottom;
position = "{323, 0}";
},
{
name = top;
position = "{303, 707}";
}
);
layerId = "EF8420CB-322A-4DAC-B980-DA6E6912705F";
paths = (
{
closed = 1;
nodes = (
"499 -12 OFFCURVE",
"608 68 OFFCURVE",
"608 215 CURVE SMOOTH",
"608 497 OFFCURVE",
"222 403 OFFCURVE",
"222 502 CURVE SMOOTH",
"222 535 OFFCURVE",
"266 553 OFFCURVE",
"341 553 CURVE SMOOTH",
"399 553 OFFCURVE",
"461 542 OFFCURVE",
"523 522 CURVE",
"560 676 LINE",
"488 705 OFFCURVE",
"415 719 OFFCURVE",
"340 719 CURVE SMOOTH",
"154 719 OFFCURVE",
"42 634 OFFCURVE",
"42 488 CURVE SMOOTH",
"42 218 OFFCURVE",
"428 321 OFFCURVE",
"428 212 CURVE SMOOTH",
"428 174 OFFCURVE",
"382 154 OFFCURVE",
"299 154 CURVE SMOOTH",
"230 154 OFFCURVE",
"160 168 OFFCURVE",
"93 195 CURVE",
"56 41 LINE",
"137 7 OFFCURVE",
"224 -12 OFFCURVE",
"314 -12 CURVE SMOOTH"
);
}
);
width = 640;
}
);
unicode = 0053;
},
{
glyphname = Germandbls;
layers = (
{
anchors = (
{
name = bottom;
position = "{326, 0}";
},
{
name = top;
position = "{326, 700}";
}
);
layerId = "D9DFF065-DDB2-4B0F-A853-E0DAE751FB65";
paths = (
{
closed = 1;
nodes = (
"518 -12 OFFCURVE",
"598 69 OFFCURVE",
"598 176 CURVE SMOOTH",
"598 277 OFFCURVE",
"528 352 OFFCURVE",
"412 382 CURVE",
"556 608 LINE",
"536 669 OFFCURVE",
"452 712 OFFCURVE",
"350 712 CURVE SMOOTH",
"208 712 OFFCURVE",
"113 628 OFFCURVE",
"113 500 CURVE SMOOTH",
"113 0 LINE",
"134 0 LINE",
"134 499 LINE SMOOTH",
"134 616 OFFCURVE",
"219 691 OFFCURVE",
"350 691 CURVE SMOOTH",
"439 691 OFFCURVE",
"514 657 OFFCURVE",
"533 608 CURVE",
"392 385 LINE",
"392 365 LINE",
"513 336 OFFCURVE",
"576 272 OFFCURVE",
"576 178 CURVE SMOOTH",
"576 79 OFFCURVE",
"505 9 OFFCURVE",
"408 9 CURVE SMOOTH",
"370 9 OFFCURVE",
"323 20 OFFCURVE",
"286 36 CURVE",
"283 14 LINE",
"318 -2 OFFCURVE",
"366 -12 OFFCURVE",
"406 -12 CURVE SMOOTH"
);
}
);
width = 665;
},
{
anchors = (
{
name = bottom;
position = "{337, 0}";
},
{
name = top;
position = "{337, 707}";
}
);
layerId = "EF8420CB-322A-4DAC-B980-DA6E6912705F";
paths = (
{
closed = 1;
nodes = (
"568 -12 OFFCURVE",
"656 74 OFFCURVE",
"656 198 CURVE SMOOTH",
"656 287 OFFCURVE",
"610 363 OFFCURVE",
"532 404 CURVE",
"613 548 LINE",
"576 652 OFFCURVE",
"468 719 OFFCURVE",
"343 719 CURVE SMOOTH",
"189 719 OFFCURVE",
"72 616 OFFCURVE",
"72 485 CURVE SMOOTH",
"72 0 LINE",
"248 0 LINE",
"248 484 LINE SMOOTH",
"248 527 OFFCURVE",
"283 553 OFFCURVE",
"336 553 CURVE SMOOTH",
"378 553 OFFCURVE",
"407 537 OFFCURVE",
"419 509 CURVE",
"351 380 LINE",
"351 307 LINE",
"426 292 OFFCURVE",
"476 251 OFFCURVE",
"476 205 CURVE SMOOTH",
"476 173 OFFCURVE",
"452 154 OFFCURVE",
"411 154 CURVE SMOOTH",
"388 154 OFFCURVE",
"364 160 OFFCURVE",
"336 172 CURVE",
"309 11 LINE",
"337 -2 OFFCURVE",
"392 -12 OFFCURVE",
"437 -12 CURVE SMOOTH"
);
}
);
width = 688;
}
);
unicode = 1E9E;
},
{
glyphname = Schwa;
layers = (
{
layerId = "D9DFF065-DDB2-4B0F-A853-E0DAE751FB65";
paths = (
{
closed = 1;
nodes = (
"552 -18 OFFCURVE",
"679 128 OFFCURVE",
"679 344 CURVE SMOOTH",
"679 564 OFFCURVE",
"548 712 OFFCURVE",
"351 712 CURVE SMOOTH",
"263 712 OFFCURVE",
"161 682 OFFCURVE",
"94 636 CURVE",
"103 618 LINE",
"165 662 OFFCURVE",
"262 691 OFFCURVE",
"347 691 CURVE SMOOTH",
"533 691 OFFCURVE",
"657 551 OFFCURVE",
"657 344 CURVE SMOOTH",
"657 140 OFFCURVE",
"537 3 OFFCURVE",
"365 3 CURVE SMOOTH",
"200 3 OFFCURVE",
"91 129 OFFCURVE",
"91 318 CURVE",
"674 318 LINE",
"674 338 LINE",
"69 338 LINE",
"69 318 LINE",
"69 116 OFFCURVE",
"188 -18 OFFCURVE",
"366 -18 CURVE SMOOTH"
);
}
);
width = 759;
},
{
layerId = "EF8420CB-322A-4DAC-B980-DA6E6912705F";
paths = (
{
closed = 1;
nodes = (
"554 -17 OFFCURVE",
"690 128 OFFCURVE",
"690 340 CURVE SMOOTH",
"690 567 OFFCURVE",
"533 721 OFFCURVE",
"307 721 CURVE SMOOTH",
"227 721 OFFCURVE",
"144 702 OFFCURVE",
"69 668 CURVE",
"103 518 LINE",
"156 541 OFFCURVE",
"223 555 OFFCURVE",
"286 555 CURVE SMOOTH",
"420 555 OFFCURVE",
"481 491 OFFCURVE",
"481 346 CURVE SMOOTH",
"481 219 OFFCURVE",
"434 149 OFFCURVE",
"351 149 CURVE SMOOTH",
"288 149 OFFCURVE",
"254 189 OFFCURVE",
"254 260 CURVE",
"501 260 LINE",
"501 415 LINE",
"54 415 LINE",
"54 271 LINE",
"54 95 OFFCURVE",
"171 -17 OFFCURVE",
"350 -17 CURVE SMOOTH"
);
}
);
width = 728;
}
);
unicode = 018F;
},
{
glyphname = T;
layers = (
{
anchors = (
{
name = bottom;
position = "{309, 0}";
},
{
name = center;
position = "{307, 350}";
},
{
name = top;
position = "{307, 700}";
}
);
layerId = "D9DFF065-DDB2-4B0F-A853-E0DAE751FB65";
paths = (
{
closed = 1;
nodes = (
"318 0 LINE",
"318 700 LINE",
"297 700 LINE",
"297 0 LINE"
);
},
{
closed = 1;
nodes = (
"577 700 LINE",
"37 700 LINE",
"37 680 LINE",
"577 680 LINE"
);
}
);
width = 614;
},
{
anchors = (
{
name = bottom;
position = "{300, 0}";
},
{
name = center;
position = "{306, 354}";
},
{
name = top;
position = "{306, 707}";
}
);
layerId = "EF8420CB-322A-4DAC-B980-DA6E6912705F";
paths = (
{
closed = 1;
nodes = (
"394 0 LINE",
"394 707 LINE",
"218 707 LINE",
"218 0 LINE"
);
},
{
closed = 1;
nodes = (
"597 707 LINE",
"15 707 LINE",
"15 545 LINE",
"597 545 LINE"
);
}
);
width = 612;
}
);
unicode = 0054;
},
{
glyphname = U;
layers = (
{
anchors = (
{
name = bottom;
position = "{379, 0}";
},
{
name = ogonek;
position = "{476, 8}";
},
{
name = top;
position = "{379, 700}";
},
{
name = topright;
position = "{709, 700}";
}
);
layerId = "D9DFF065-DDB2-4B0F-A853-E0DAE751FB65";
paths = (
{
closed = 1;
nodes = (
"541 -12 OFFCURVE",
"649 95 OFFCURVE",
"649 255 CURVE SMOOTH",
"649 700 LINE",
"628 700 LINE",
"628 255 LINE SMOOTH",
"628 107 OFFCURVE",
"528 9 OFFCURVE",
"378 9 CURVE SMOOTH",
"229 9 OFFCURVE",
"129 107 OFFCURVE",
"129 255 CURVE SMOOTH",
"129 700 LINE",
"108 700 LINE",
"108 255 LINE SMOOTH",
"108 95 OFFCURVE",
"216 -12 OFFCURVE",
"378 -12 CURVE SMOOTH"
);
}
);
width = 757;
},
{
anchors = (
{
name = bottom;
position = "{361, 0}";
},
{
name = ogonek;
position = "{434, 11}";
},
{
name = top;
position = "{361, 707}";
},
{
name = topright;
position = "{725, 707}";
}
);
layerId = "EF8420CB-322A-4DAC-B980-DA6E6912705F";
paths = (
{
closed = 1;
nodes = (
"535 -12 OFFCURVE",
"651 95 OFFCURVE",
"651 255 CURVE SMOOTH",
"651 707 LINE",
"475 707 LINE",
"475 255 LINE SMOOTH",
"475 194 OFFCURVE",
"429 154 OFFCURVE",
"360 154 CURVE SMOOTH",
"292 154 OFFCURVE",
"246 194 OFFCURVE",
"246 255 CURVE SMOOTH",
"246 707 LINE",
"70 707 LINE",
"70 255 LINE SMOOTH",
"70 95 OFFCURVE",
"186 -12 OFFCURVE",
"360 -12 CURVE SMOOTH"
);
}
);
width = 721;
}
);
unicode = 0055;
},
{
glyphname = V;
layers = (
{
anchors = (
{
name = bottom;
position = "{337, 0}";
},
{
name = top;
position = "{337, 700}";
}
);
layerId = "D9DFF065-DDB2-4B0F-A853-E0DAE751FB65";
paths = (
{
closed = 1;
nodes = (
"342 0 LINE",
"630 700 LINE",
"609 700 LINE",
"341 48 LINE",
"334 48 LINE",
"64 700 LINE",
"43 700 LINE",
"333 0 LINE"
);
}
);
width = 673;
},
{
anchors = (
{
name = bottom;
position = "{342, 0}";
},
{
name = top;
position = "{342, 707}";
}
);
layerId = "EF8420CB-322A-4DAC-B980-DA6E6912705F";
paths = (
{
closed = 1;
nodes = (
"453 0 LINE",
"675 707 LINE",
"484 707 LINE",
"346 168 LINE",
"339 168 LINE",
"199 707 LINE",
"8 707 LINE",
"230 0 LINE"
);
}
);
width = 683;
}
);
unicode = 0056;
},
{
glyphname = W;
layers = (
{
anchors = (
{
name = bottom;
position = "{499, 0}";
},
{
name = top;
position = "{499, 700}";
}
);
layerId = "D9DFF065-DDB2-4B0F-A853-E0DAE751FB65";
paths = (
{
closed = 1;
nodes = (
"274 0 LINE",
"286 0 LINE",
"500 675 LINE",
"502 675 LINE",
"711 0 LINE",
"724 0 LINE",
"949 700 LINE",
"926 700 LINE",
"721 50 LINE",
"715 50 LINE",
"516 700 LINE",
"487 700 LINE",
"281 50 LINE",
"276 50 LINE",
"71 700 LINE",
"48 700 LINE"
);
}
);
width = 997;
},
{
anchors = (
{
name = bottom;
position = "{518, 0}";
},
{
name = top;
position = "{518, 707}";
}
);
layerId = "EF8420CB-322A-4DAC-B980-DA6E6912705F";
paths = (
{
closed = 1;
nodes = (
"207 0 LINE",
"415 0 LINE",
"518 479 LINE",
"521 479 LINE",
"620 0 LINE",
"828 0 LINE",
"1024 707 LINE",
"840 707 LINE",
"733 181 LINE",
"726 181 LINE",
"627 707 LINE",
"408 707 LINE",
"311 181 LINE",
"303 181 LINE",
"195 707 LINE",
"11 707 LINE"
);
}
);
width = 1035;
}
);
unicode = 0057;
},
{
glyphname = X;
layers = (
{
anchors = (
{
name = bottom;
position = "{298, 0}";
},
{
name = top;
position = "{298, 700}";
}
);
layerId = "D9DFF065-DDB2-4B0F-A853-E0DAE751FB65";
paths = (
{
closed = 1;
nodes = (
"548 0 LINE",
"313 362 LINE",
"304 368 LINE",
"70 700 LINE",
"46 700 LINE",
"292 352 LINE",
"302 345 LINE",
"524 0 LINE"
);
},
{
closed = 1;
nodes = (
"71 0 LINE",
"549 700 LINE",
"525 700 LINE",
"47 0 LINE"
);
}
);
width = 596;
},
{
anchors = (
{
name = bottom;
position = "{352, 0}";
},
{
name = top;
position = "{352, 707}";
}
);
layerId = "EF8420CB-322A-4DAC-B980-DA6E6912705F";
paths = (
{
closed = 1;
nodes = (
"684 0 LINE",
"449 381 LINE",
"357 477 LINE",
"206 707 LINE",
"6 707 LINE",
"261 325 LINE",
"350 231 LINE",
"484 0 LINE"
);
},
{
closed = 1;
nodes = (
"211 0 LINE",
"689 707 LINE",
"489 707 LINE",
"11 0 LINE"
);
}
);
width = 695;
}
);
unicode = 0058;
},
{
glyphname = Y;
layers = (
{
anchors = (
{
name = bottom;
position = "{296, 0}";
},
{
name = top;
position = "{296, 700}";
},
{
name = topleft;
position = "{14, 700}";
}
);
layerId = "D9DFF065-DDB2-4B0F-A853-E0DAE751FB65";
paths = (
{
closed = 1;
nodes = (
"301 343 LINE",
"554 700 LINE",
"530 700 LINE",
"299 371 LINE",
"294 371 LINE",
"61 700 LINE",
"37 700 LINE",
"292 343 LINE"
);
},
{
closed = 1;
nodes = (
"285 0 LINE",
"306 0 LINE",
"306 360 LINE",
"285 360 LINE"
);
}
);
width = 591;
},
{
anchors = (
{
name = bottom;
position = "{337, 0}";
},
{
name = top;
position = "{337, 707}";
},
{
name = topleft;
position = "{15, 707}";
}
);
layerId = "EF8420CB-322A-4DAC-B980-DA6E6912705F";
paths = (
{
closed = 1;
nodes = (
"418 270 LINE",
"675 707 LINE",
"484 707 LINE",
"341 448 LINE",
"334 448 LINE",
"189 707 LINE",
"-2 707 LINE",
"255 270 LINE"
);
},
{
closed = 1;
nodes = (
"249 0 LINE",
"425 0 LINE",
"425 340 LINE",
"249 340 LINE"
);
}
);
width = 673;
}
);
unicode = 0059;
},
{
glyphname = Z;
layers = (
{
anchors = (
{
name = bottom;
position = "{291, 0}";
},
{
name = top;
position = "{291, 700}";
}
);
layerId = "D9DFF065-DDB2-4B0F-A853-E0DAE751FB65";
paths = (
{
closed = 1;
nodes = (
"534 0 LINE",
"534 20 LINE",
"76 20 LINE",
"76 23 LINE",
"531 683 LINE",
"531 700 LINE",
"60 700 LINE",
"60 680 LINE",
"500 680 LINE",
"500 677 LINE",
"46 16 LINE",
"46 0 LINE"
);
}
);
width = 582;
},
{
anchors = (
{
name = bottom;
position = "{314, 0}";
},
{
name = top;
position = "{314, 707}";
}
);
layerId = "EF8420CB-322A-4DAC-B980-DA6E6912705F";
paths = (
{
closed = 1;
nodes = (
"594 0 LINE",
"594 156 LINE",
"255 156 LINE",
"255 162 LINE",
"591 584 LINE",
"591 707 LINE",
"50 707 LINE",
"50 551 LINE",
"371 551 LINE",
"371 545 LINE",
"36 133 LINE",
"36 0 LINE"
);
}
);
width = 633;
}
);
unicode = 005A;
},
{
glyphname = a;
layers = (
{
anchors = (
{
name = bottom;
position = "{293, 0}";
},
{
name = ogonek;
position = "{478, 6}";
},
{
name = top;
position = "{292, 497}";
}
);
layerId = "EF8420CB-322A-4DAC-B980-DA6E6912705F";
paths = (
{
closed = 1;
nodes = (
"519 0 LINE",
"519 292 LINE SMOOTH",
"519 429 OFFCURVE",
"431 507 OFFCURVE",
"278 507 CURVE SMOOTH",
"209 507 OFFCURVE",
"135 491 OFFCURVE",
"64 461 CURVE",
"91 331 LINE",
"145 352 OFFCURVE",
"212 366 OFFCURVE",
"259 366 CURVE SMOOTH",
"319 366 OFFCURVE",
"345 344 OFFCURVE",
"345 292 CURVE SMOOTH",
"345 121 LINE",
"373 0 LINE"
);
},
{
closed = 1;
nodes = (
"271 -12 OFFCURVE",
"332 13 OFFCURVE",
"367 55 CURVE",
"367 173 LINE",
"331 136 OFFCURVE",
"294 116 OFFCURVE",
"259 116 CURVE SMOOTH",
"229 116 OFFCURVE",
"204 130 OFFCURVE",
"204 150 CURVE SMOOTH",
"204 181 OFFCURVE",
"260 198 OFFCURVE",
"366 198 CURVE",
"366 311 LINE",
"142 311 OFFCURVE",
"28 250 OFFCURVE",
"28 135 CURVE SMOOTH",
"28 45 OFFCURVE",
"99 -12 OFFCURVE",
"202 -12 CURVE SMOOTH"
);
}
);
width = 574;
},
{
anchors = (
{
name = bottom;
position = "{265, 0}";
},
{
name = ogonek;
position = "{426, 2}";
},
{
name = top;
position = "{255, 472}";
}
);
layerId = "D9DFF065-DDB2-4B0F-A853-E0DAE751FB65";
paths = (
{
closed = 1;
nodes = (
"436 0 LINE",
"436 304 LINE SMOOTH",
"436 417 OFFCURVE",
"371 484 OFFCURVE",
"261 484 CURVE SMOOTH",
"206 484 OFFCURVE",
"147 467 OFFCURVE",
"81 433 CURVE",
"87 416 LINE",
"155 449 OFFCURVE",
"210 464 OFFCURVE",
"260 464 CURVE SMOOTH",
"358 464 OFFCURVE",
"416 405 OFFCURVE",
"416 304 CURVE SMOOTH",
"416 67 LINE",
"420 0 LINE"
);
},
{
closed = 1;
nodes = (
"275 -12 OFFCURVE",
"365 18 OFFCURVE",
"424 61 CURVE",
"424 77 LINE",
"360 36 OFFCURVE",
"271 8 OFFCURVE",
"205 8 CURVE SMOOTH",
"124 8 OFFCURVE",
"70 51 OFFCURVE",
"70 113 CURVE SMOOTH",
"70 210 OFFCURVE",
"200 265 OFFCURVE",
"424 265 CURVE",
"424 284 LINE",
"186 284 OFFCURVE",
"49 221 OFFCURVE",
"49 112 CURVE SMOOTH",
"49 38 OFFCURVE",
"111 -12 OFFCURVE",
"203 -12 CURVE SMOOTH"
);
}
);
width = 526;
}
);
unicode = 0061;
},
{
glyphname = c;
layers = (
{
anchors = (
{
name = bottom;
position = "{262, 0}";
},
{
name = top;
position = "{271, 472}";
}
);
layerId = "D9DFF065-DDB2-4B0F-A853-E0DAE751FB65";
paths = (
{
closed = 1;
nodes = (
"338 -12 OFFCURVE",
"396 6 OFFCURVE",
"430 34 CURVE",
"424 51 LINE",
"384 23 OFFCURVE",
"339 8 OFFCURVE",
"289 8 CURVE SMOOTH",
"167 8 OFFCURVE",
"86 97 OFFCURVE",
"86 236 CURVE SMOOTH",
"86 375 OFFCURVE",
"167 464 OFFCURVE",
"289 464 CURVE SMOOTH",
"332 464 OFFCURVE",
"375 453 OFFCURVE",
"417 432 CURVE",
"423 449 LINE",
"387 470 OFFCURVE",
"331 484 OFFCURVE",
"282 484 CURVE SMOOTH",
"153 484 OFFCURVE",
"65 385 OFFCURVE",
"65 236 CURVE SMOOTH",
"65 87 OFFCURVE",
"152 -12 OFFCURVE",
"282 -12 CURVE SMOOTH"
);
}
);
width = 465;
},
{
anchors = (
{
name = bottom;
position = "{285, 0}";
},
{
name = top;
position = "{264, 497}";
}
);
layerId = "EF8420CB-322A-4DAC-B980-DA6E6912705F";
paths = (
{
closed = 1;
nodes = (
"340 -12 OFFCURVE",
"383 -5 OFFCURVE",
"432 7 CURVE",
"405 145 LINE",
"381 137 OFFCURVE",
"351 132 OFFCURVE",
"322 132 CURVE SMOOTH",
"240 132 OFFCURVE",
"194 173 OFFCURVE",
"194 248 CURVE SMOOTH",
"194 321 OFFCURVE",
"238 365 OFFCURVE",
"312 365 CURVE SMOOTH",
"342 365 OFFCURVE",
"379 358 OFFCURVE",
"405 346 CURVE",
"432 484 LINE",
"385 500 OFFCURVE",
"338 509 OFFCURVE",
"292 509 CURVE SMOOTH",
"136 509 OFFCURVE",
"30 404 OFFCURVE",
"30 248 CURVE SMOOTH",
"30 89 OFFCURVE",
"139 -12 OFFCURVE",
"298 -12 CURVE SMOOTH"
);
}
);
width = 462;
}
);
unicode = 0063;
},
{
glyphname = eth;
layers = (
{
anchors = (
{
name = _center;
position = "{270, 618}";
}
);
layerId = "D9DFF065-DDB2-4B0F-A853-E0DAE751FB65";
paths = (
{
closed = 1;
nodes = (
"397 425 OFFCURVE",
"476 343 OFFCURVE",
"476 219 CURVE SMOOTH",
"476 95 OFFCURVE",
"396 11 OFFCURVE",
"277 11 CURVE SMOOTH",
"159 11 OFFCURVE",
"80 93 OFFCURVE",
"80 217 CURVE SMOOTH",
"80 342 OFFCURVE",
"159 425 OFFCURVE",
"278 425 CURVE SMOOTH"
);
},
{
closed = 1;
nodes = (
"326 623 OFFCURVE",
"445 482 OFFCURVE",
"466 344 CURVE",
"461 344 LINE",
"429 405 OFFCURVE",
"355 445 OFFCURVE",
"272 445 CURVE SMOOTH",
"145 445 OFFCURVE",
"59 352 OFFCURVE",
"59 217 CURVE SMOOTH",
"59 80 OFFCURVE",
"148 -9 OFFCURVE",
"280 -9 CURVE SMOOTH",
"419 -9 OFFCURVE",
"497 87 OFFCURVE",
"497 243 CURVE SMOOTH",
"497 442 OFFCURVE",
"367 629 OFFCURVE",
"173 717 CURVE",
"167 700 LINE"
);
},
{
closed = 1;
nodes = (
"198 550 LINE",
"409 719 LINE",
"398 732 LINE",
"187 562 LINE"
);
}
);
width = 569;
},
{
anchors = (
{
name = _center;
position = "{268, 603}";
}
);
layerId = "EF8420CB-322A-4DAC-B980-DA6E6912705F";
paths = (
{
closed = 1;
nodes = (
"294 311 OFFCURVE",
"319 273 OFFCURVE",
"319 216 CURVE SMOOTH",
"319 167 OFFCURVE",
"294 135 OFFCURVE",
"257 135 CURVE SMOOTH",
"222 135 OFFCURVE",
"199 167 OFFCURVE",
"199 216 CURVE SMOOTH",
"199 273 OFFCURVE",
"222 311 OFFCURVE",
"257 311 CURVE SMOOTH"
);
},
{
closed = 1;
nodes = (
"258 547 OFFCURVE",
"311 505 OFFCURVE",
"335 436 CURVE",
"330 436 LINE",
"316 447 OFFCURVE",
"287 455 OFFCURVE",
"257 455 CURVE SMOOTH",
"118 455 OFFCURVE",
"25 359 OFFCURVE",
"25 216 CURVE SMOOTH",
"25 81 OFFCURVE",
"118 -9 OFFCURVE",
"257 -9 CURVE SMOOTH",
"399 -9 OFFCURVE",
"493 81 OFFCURVE",
"493 216 CURVE SMOOTH",
"493 520 OFFCURVE",
"411 643 OFFCURVE",
"137 754 CURVE",
"108 619 LINE"
);
},
{
closed = 1;
nodes = (
"178 466 LINE",
"439 660 LINE",
"371 749 LINE",
"110 554 LINE"
);
}
);
width = 538;
}
);
unicode = 00F0;
},
{
glyphname = e;
layers = (
{
anchors = (
{
name = bottom;
position = "{274, 0}";
},
{
name = ogonek;
position = "{433, 17}";
},
{
name = top;
position = "{274, 497}";
}
);
layerId = "EF8420CB-322A-4DAC-B980-DA6E6912705F";
paths = (
{
closed = 1;
nodes = (
"382 -12 OFFCURVE",
"453 -1 OFFCURVE",
"496 17 CURVE",
"469 147 LINE",
"437 137 OFFCURVE",
"364 128 OFFCURVE",
"326 128 CURVE SMOOTH",
"238 128 OFFCURVE",
"203 176 OFFCURVE",
"203 256 CURVE SMOOTH",
"203 327 OFFCURVE",
"230 364 OFFCURVE",
"279 364 CURVE SMOOTH",
"316 364 OFFCURVE",
"341 342 OFFCURVE",
"341 306 CURVE",
"179 306 LINE",
"179 198 LINE",
"507 198 LINE",
"507 296 LINE",
"507 422 OFFCURVE",
"417 504 OFFCURVE",
"281 504 CURVE SMOOTH",
"129 504 OFFCURVE",
"29 403 OFFCURVE",
"29 249 CURVE SMOOTH",
"29 88 OFFCURVE",
"138 -12 OFFCURVE",
"321 -12 CURVE SMOOTH"
);
}
);
width = 552;
},
{
anchors = (
{
name = bottom;
position = "{271, 0}";
},
{
name = ogonek;
position = "{437, 28}";
},
{
name = top;
position = "{272, 472}";
}
);
layerId = "D9DFF065-DDB2-4B0F-A853-E0DAE751FB65";
paths = (
{
closed = 1;
nodes = (
"354 -12 OFFCURVE",
"424 8 OFFCURVE",
"468 39 CURVE",
"462 56 LINE",
"420 27 OFFCURVE",
"354 8 OFFCURVE",
"296 8 CURVE SMOOTH",
"169 8 OFFCURVE",
"86 99 OFFCURVE",
"86 238 CURVE SMOOTH",
"86 373 OFFCURVE",
"166 464 OFFCURVE",
"282 464 CURVE SMOOTH",
"393 464 OFFCURVE",
"464 382 OFFCURVE",
"464 259 CURVE",
"75 259 LINE",
"75 240 LINE",
"485 240 LINE",
"485 259 LINE",
"485 395 OFFCURVE",
"404 484 OFFCURVE",
"282 484 CURVE SMOOTH",
"153 484 OFFCURVE",
"65 385 OFFCURVE",
"65 238 CURVE SMOOTH",
"65 88 OFFCURVE",
"156 -12 OFFCURVE",
"293 -12 CURVE SMOOTH"
);
}
);
width = 543;
}
);
unicode = 0065;
},
{
glyphname = f;
layers = (
{
anchors = (
{
name = bottom;
position = "{118, 0}";
},
{
name = top;
position = "{199, 718}";
}
);
layerId = "D9DFF065-DDB2-4B0F-A853-E0DAE751FB65";
paths = (
{
closed = 1;
nodes = (
"128 0 LINE",
"128 612 LINE SMOOTH",
"128 673 OFFCURVE",
"161 710 OFFCURVE",
"217 710 CURVE SMOOTH",
"238 710 OFFCURVE",
"260 705 OFFCURVE",
"282 695 CURVE",
"288 712 LINE",
"264 724 OFFCURVE",
"240 730 OFFCURVE",
"216 730 CURVE SMOOTH",
"149 730 OFFCURVE",
"108 685 OFFCURVE",
"108 612 CURVE SMOOTH",
"108 0 LINE"
);
},
{
closed = 1;
nodes = (
"279 453 LINE",
"279 472 LINE",
"28 472 LINE",
"28 453 LINE"
);
}
);
width = 295;
},
{
anchors = (
{
name = bottom;
position = "{178, 0}";
},
{
name = top;
position = "{259, 719}";
}
);
layerId = "EF8420CB-322A-4DAC-B980-DA6E6912705F";
paths = (
{
closed = 1;
nodes = (
"262 0 LINE",
"262 518 LINE SMOOTH",
"262 564 OFFCURVE",
"292 594 OFFCURVE",
"334 594 CURVE SMOOTH",
"350 594 OFFCURVE",
"370 590 OFFCURVE",
"389 585 CURVE",
"416 717 LINE",
"381 731 OFFCURVE",
"336 740 OFFCURVE",
"294 740 CURVE SMOOTH",
"169 740 OFFCURVE",
"89 658 OFFCURVE",
"89 528 CURVE SMOOTH",
"89 0 LINE"
);
},
{
closed = 1;
nodes = (
"398 357 LINE",
"398 497 LINE",
"26 497 LINE",
"26 357 LINE"
);
}
);
width = 404;
}
);
unicode = 0066;
},
{
glyphname = h;
layers = (
{
anchors = (
{
name = bottom;
position = "{286, 0}";
},
{
name = center;
position = "{182, 606}";
},
{
name = top;
position = "{155, 718}";
}
);
components = (
{
name = _n;
transform = "{1, 0, 0, 1, 19, 0}";
}
);
layerId = "EF8420CB-322A-4DAC-B980-DA6E6912705F";
paths = (
{
closed = 1;
nodes = (
"242 0 LINE",
"242 728 LINE",
"68 728 LINE",
"68 0 LINE"
);
}
);
width = 624;
},
{
anchors = (
{
name = bottom;
position = "{270, 0}";
},
{
name = center;
position = "{160, 588}";
},
{
name = top;
position = "{108, 718}";
}
);
components = (
{
name = _n;
transform = "{1, 0, 0, 1, -4, 0}";
}
);
layerId = "D9DFF065-DDB2-4B0F-A853-E0DAE751FB65";
paths = (
{
closed = 1;
nodes = (
"118 0 LINE",
"118 718 LINE",
"98 718 LINE",
"98 0 LINE"
);
}
);
width = 566;
}
);
unicode = 0068;
},
{
glyphname = idotless;
layers = (
{
anchors = (
{
name = bottom;
position = "{155, 0}";
},
{
name = ogonek;
position = "{199, 5}";
},
{
name = top;
position = "{155, 497}";
}
);
layerId = "EF8420CB-322A-4DAC-B980-DA6E6912705F";
paths = (
{
closed = 1;
nodes = (
"241 0 LINE",
"241 497 LINE",
"68 497 LINE",
"68 0 LINE"
);
}
);
width = 309;
},
{
anchors = (
{
name = bottom;
position = "{108, 0}";
},
{
name = ogonek;
position = "{108, 2}";
},
{
name = top;
position = "{108, 472}";
}
);
layerId = "D9DFF065-DDB2-4B0F-A853-E0DAE751FB65";
paths = (
{
closed = 1;
nodes = (
"118 0 LINE",
"118 472 LINE",
"98 472 LINE",
"98 0 LINE"
);
}
);
width = 216;
}
);
unicode = 0131;
},
{
glyphname = jdotless;
layers = (
{
anchors = (
{
name = bottom;
position = "{109, -218}";
},
{
name = top;
position = "{109, 472}";
}
);
layerId = "D9DFF065-DDB2-4B0F-A853-E0DAE751FB65";
paths = (
{
closed = 1;
nodes = (
"94 -230 OFFCURVE",
"119 -202 OFFCURVE",
"119 -160 CURVE SMOOTH",
"119 472 LINE",
"99 472 LINE",
"99 -160 LINE SMOOTH",
"99 -191 OFFCURVE",
"82 -210 OFFCURVE",
"54 -210 CURVE SMOOTH",
"40 -210 OFFCURVE",
"24 -205 OFFCURVE",
"12 -197 CURVE",
"6 -214 LINE",
"19 -224 OFFCURVE",
"38 -230 OFFCURVE",
"56 -230 CURVE SMOOTH"
);
}
);
width = 217;
},
{
anchors = (
{
name = bottom;
position = "{155, 0}";
},
{
name = top;
position = "{155, 497}";
}
);
layerId = "EF8420CB-322A-4DAC-B980-DA6E6912705F";
paths = (
{
closed = 1;
nodes = (
"184 -230 OFFCURVE",
"241 -170 OFFCURVE",
"241 -80 CURVE SMOOTH",
"241 497 LINE",
"68 497 LINE",
"68 -30 LINE SMOOTH",
"68 -63 OFFCURVE",
"57 -81 OFFCURVE",
"36 -81 CURVE SMOOTH",
"28 -81 OFFCURVE",
"16 -78 OFFCURVE",
"10 -75 CURVE",
"-16 -209 LINE",
"10 -221 OFFCURVE",
"58 -230 OFFCURVE",
"93 -230 CURVE SMOOTH"
);
}
);
width = 309;
}
);
unicode = 0237;
},
{
glyphname = k;
layers = (
{
anchors = (
{
name = bottom;
position = "{205, 0}";
},
{
name = top;
position = "{108, 718}";
}
);
components = (
{
name = _k;
transform = "{1, 0, 0, 1, -45, 0}";
}
);
layerId = "D9DFF065-DDB2-4B0F-A853-E0DAE751FB65";
paths = (
{
closed = 1;
nodes = (
"118 0 LINE",
"118 718 LINE",
"98 718 LINE",
"98 0 LINE"
);
}
);
width = 482;
},
{
anchors = (
{
name = bottom;
position = "{302, 0}";
},
{
name = top;
position = "{154, 728}";
}
);
components = (
{
name = _k;
transform = "{1, 0, 0, 1, 78, 0}";
}
);
layerId = "EF8420CB-322A-4DAC-B980-DA6E6912705F";
paths = (
{
closed = 1;
nodes = (
"241 0 LINE",
"241 728 LINE",
"68 728 LINE",
"68 0 LINE"
);
}
);
width = 601;
}
);
unicode = 006B;
},
{
glyphname = kgreenlandic;
layers = (
{
anchors = (
{
name = bottom;
position = "{302, 0}";
},
{
name = top;
position = "{302, 472}";
}
);
components = (
{
name = _k;
transform = "{1, 0, 0, 1, -45, 0}";
}
);
layerId = "D9DFF065-DDB2-4B0F-A853-E0DAE751FB65";
paths = (
{
closed = 1;
nodes = (
"118 0 LINE",
"118 472 LINE",
"98 472 LINE",
"98 0 LINE"
);
}
);
width = 482;
},
{
anchors = (
{
name = bottom;
position = "{307, 0}";
},
{
name = top;
position = "{307, 497}";
}
);
components = (
{
name = _k;
transform = "{1, 0, 0, 1, 79, 0}";
}
);
layerId = "EF8420CB-322A-4DAC-B980-DA6E6912705F";
paths = (
{
closed = 1;
nodes = (
"242 0 LINE",
"242 497 LINE",
"68 497 LINE",
"68 0 LINE"
);
}
);
width = 602;
}
);
unicode = 0138;
},
{
glyphname = l;
layers = (
{
anchors = (
{
name = bottom;
position = "{149, 0}";
},
{
name = center;
position = "{128, 380}";
},
{
name = top;
position = "{108, 718}";
},
{
name = topright;
position = "{210, 472}";
}
);
layerId = "D9DFF065-DDB2-4B0F-A853-E0DAE751FB65";
paths = (
{
closed = 1;
nodes = (
"183 -12 OFFCURVE",
"199 -8 OFFCURVE",
"214 -2 CURVE",
"208 15 LINE",
"196 11 OFFCURVE",
"182 8 OFFCURVE",
"170 8 CURVE SMOOTH",
"139 8 OFFCURVE",
"117 28 OFFCURVE",
"117 57 CURVE SMOOTH",
"117 718 LINE",
"97 718 LINE",
"97 57 LINE SMOOTH",
"97 17 OFFCURVE",
"127 -12 OFFCURVE",
"168 -12 CURVE SMOOTH"
);
}
);
width = 227;
},
{
anchors = (
{
name = bottom;
position = "{191, 0}";
},
{
name = center;
position = "{159, 399}";
},
{
name = top;
position = "{159, 718}";
},
{
name = topright;
position = "{333, 497}";
}
);
layerId = "EF8420CB-322A-4DAC-B980-DA6E6912705F";
paths = (
{
closed = 1;
nodes = (
"249 -12 OFFCURVE",
"290 -4 OFFCURVE",
"318 12 CURVE",
"292 138 LINE",
"286 134 OFFCURVE",
"278 132 OFFCURVE",
"271 132 CURVE SMOOTH",
"249 132 OFFCURVE",
"235 143 OFFCURVE",
"235 174 CURVE SMOOTH",
"235 728 LINE",
"61 728 LINE",
"61 149 LINE SMOOTH",
"61 52 OFFCURVE",
"125 -12 OFFCURVE",
"216 -12 CURVE SMOOTH"
);
}
);
width = 326;
}
);
unicode = 006C;
},
{
glyphname = m;
layers = (
{
anchors = (
{
name = bottom;
position = "{446, 0}";
},
{
name = top;
position = "{446, 472}";
}
);
components = (
{
name = _n;
transform = "{1, 0, 0, 1, -13, 0}";
},
{
name = _n;
transform = "{1, 0, 0, 1, 334, 0}";
}
);
layerId = "D9DFF065-DDB2-4B0F-A853-E0DAE751FB65";
paths = (
{
closed = 1;
nodes = (
"118 0 LINE",
"118 398 LINE",
"114 472 LINE",
"98 472 LINE",
"98 0 LINE"
);
}
);
width = 904;
},
{
anchors = (
{
name = bottom;
position = "{430, 0}";
},
{
name = top;
position = "{430, 497}";
}
);
components = (
{
name = _n;
transform = "{1, 0, 0, 1, -5, 0}";
},
{
name = _n;
transform = "{1, 0, 0, 1, 292, 0}";
}
);
layerId = "EF8420CB-322A-4DAC-B980-DA6E6912705F";
paths = (
{
closed = 1;
nodes = (
"241 0 LINE",
"241 386 LINE",
"213 497 LINE",
"68 497 LINE",
"68 0 LINE"
);
}
);
width = 897;
}
);
unicode = 006D;
},
{
glyphname = o;
layers = (
{
anchors = (
{
name = bottom;
position = "{286, 0}";
},
{
name = center;
position = "{286, 249}";
},
{
name = ogonek;
position = "{357, 10}";
},
{
name = top;
position = "{286, 497}";
},
{
name = topright;
position = "{460, 497}";
}
);
layerId = "EF8420CB-322A-4DAC-B980-DA6E6912705F";
paths = (
{
closed = 1;
nodes = (
"440 -12 OFFCURVE",
"542 92 OFFCURVE",
"542 249 CURVE SMOOTH",
"542 405 OFFCURVE",
"440 509 OFFCURVE",
"286 509 CURVE SMOOTH",
"133 509 OFFCURVE",
"31 405 OFFCURVE",
"31 249 CURVE SMOOTH",
"31 92 OFFCURVE",
"133 -12 OFFCURVE",
"286 -12 CURVE SMOOTH"
);
},
{
closed = 1;
nodes = (
"237 132 OFFCURVE",
"205 179 OFFCURVE",
"205 249 CURVE SMOOTH",
"205 319 OFFCURVE",
"237 365 OFFCURVE",
"286 365 CURVE SMOOTH",
"335 365 OFFCURVE",
"368 319 OFFCURVE",
"368 249 CURVE SMOOTH",
"368 179 OFFCURVE",
"335 132 OFFCURVE",
"286 132 CURVE SMOOTH"
);
}
);
width = 573;
},
{
anchors = (
{
name = bottom;
position = "{277, 0}";
},
{
name = center;
position = "{277, 236}";
},
{
name = ogonek;
position = "{347, 10}";
},
{
name = top;
position = "{277, 472}";
},
{
name = topright;
position = "{433, 472}";
}
);
layerId = "D9DFF065-DDB2-4B0F-A853-E0DAE751FB65";
paths = (
{
closed = 1;
nodes = (
"421 -12 OFFCURVE",
"510 87 OFFCURVE",
"510 236 CURVE SMOOTH",
"510 385 OFFCURVE",
"421 484 OFFCURVE",
"287 484 CURVE SMOOTH",
"154 484 OFFCURVE",
"65 385 OFFCURVE",
"65 236 CURVE SMOOTH",
"65 87 OFFCURVE",
"154 -12 OFFCURVE",
"287 -12 CURVE SMOOTH"
);
},
{
closed = 1;
nodes = (
"166 8 OFFCURVE",
"86 99 OFFCURVE",
"86 236 CURVE SMOOTH",
"86 373 OFFCURVE",
"166 464 OFFCURVE",
"287 464 CURVE SMOOTH",
"408 464 OFFCURVE",
"489 373 OFFCURVE",
"489 236 CURVE SMOOTH",
"489 99 OFFCURVE",
"408 8 OFFCURVE",
"287 8 CURVE SMOOTH"
);
}
);
width = 575;
}
);
unicode = 006F;
},
{
glyphname = p;
layers = (
{
anchors = (
{
name = bottom;
position = "{108, -218}";
},
{
name = top;
position = "{237, 472}";
}
);
components = (
{
name = _stem.p;
transform = "{1, 0, 0, 1, 2, 0}";
},
{
name = _d;
transform = "{-1, 0, 0, 1, 545, 0}";
}
);
layerId = "D9DFF065-DDB2-4B0F-A853-E0DAE751FB65";
width = 571;
},
{
anchors = (
{
name = bottom;
position = "{154, -217}";
},
{
name = top;
position = "{299, 497}";
}
);
components = (
{
name = _stem.p;
transform = "{1, 0, 0, 1, 7, 0}";
},
{
name = _d;
transform = "{-1, 0, 0, 1, 619, 0}";
}
);
layerId = "EF8420CB-322A-4DAC-B980-DA6E6912705F";
width = 616;
},
{
anchors = (
{
name = bottom;
position = "{125, -218}";
},
{
name = top;
position = "{285, 482}";
}
);
associatedMasterId = "D9DFF065-DDB2-4B0F-A853-E0DAE751FB65";
components = (
{
name = _stem.p;
}
);
layerId = "AC944F47-DF6C-46B7-8615-4E28CEF2DB47";
name = "Jun 21 17, 22:21";
paths = (
{
closed = 1;
nodes = (
"431 -12 OFFCURVE",
"516 90 OFFCURVE",
"516 244 CURVE SMOOTH",
"516 394 OFFCURVE",
"433 494 OFFCURVE",
"309 494 CURVE SMOOTH",
"262 494 OFFCURVE",
"204 473 OFFCURVE",
"153 437 CURVE",
"161 381 LINE",
"207 409 OFFCURVE",
"250 424 OFFCURVE",
"295 424 CURVE SMOOTH",
"380 424 OFFCURVE",
"430 357 OFFCURVE",
"430 244 CURVE SMOOTH",
"430 125 OFFCURVE",
"379 54 OFFCURVE",
"292 54 CURVE SMOOTH",
"244 54 OFFCURVE",
"199 68 OFFCURVE",
"161 96 CURVE",
"154 40 LINE",
"198 7 OFFCURVE",
"253 -12 OFFCURVE",
"303 -12 CURVE SMOOTH"
);
}
);
width = 570;
}
);
unicode = 0070;
},
{
glyphname = thorn;
layers = (
{
anchors = (
{
name = bottom;
position = "{108, -218}";
},
{
name = top;
position = "{108, 718}";
}
);
components = (
{
name = _stem.p;
transform = "{1, 0, 0, 1, 2, 0}";
},
{
name = _d;
transform = "{-1, 0, 0, 1, 537, 0}";
}
);
layerId = "D9DFF065-DDB2-4B0F-A853-E0DAE751FB65";
paths = (
{
closed = 1;
nodes = (
"98 391 LINE",
"118 391 LINE",
"118 718 LINE",
"98 718 LINE"
);
}
);
width = 563;
},
{
anchors = (
{
name = bottom;
position = "{154, -217}";
},
{
name = top;
position = "{150, 728}";
}
);
components = (
{
name = _stem.p;
transform = "{1, 0, 0, 1, 7, 0}";
},
{
name = _d;
transform = "{-1, 0, 0, 1, 617, 0}";
}
);
layerId = "EF8420CB-322A-4DAC-B980-DA6E6912705F";
paths = (
{
closed = 1;
nodes = (
"68 379 LINE",
"241 379 LINE",
"241 728 LINE",
"68 728 LINE"
);
}
);
width = 614;
}
);
leftMetricsKey = p;
rightMetricsKey = p;
unicode = 00FE;
},
{
glyphname = r;
layers = (
{
anchors = (
{
name = bottom;
position = "{109, 0}";
},
{
name = top;
position = "{196, 472}";
}
);
layerId = "D9DFF065-DDB2-4B0F-A853-E0DAE751FB65";
paths = (
{
closed = 1;
nodes = (
"118 0 LINE",
"118 378 LINE",
"114 472 LINE",
"98 472 LINE",
"98 0 LINE"
);
},
{
closed = 1;
nodes = (
"148 423 OFFCURVE",
"210 466 OFFCURVE",
"276 466 CURVE SMOOTH",
"293 466 OFFCURVE",
"306 463 OFFCURVE",
"316 457 CURVE",
"322 474 LINE",
"311 481 OFFCURVE",
"295 484 OFFCURVE",
"276 484 CURVE SMOOTH",
"208 484 OFFCURVE",
"145 443 OFFCURVE",
"110 376 CURVE",
"110 351 LINE"
);
}
);
width = 337;
},
{
anchors = (
{
name = bottom;
position = "{155, 0}";
},
{
name = top;
position = "{223, 497}";
}
);
layerId = "EF8420CB-322A-4DAC-B980-DA6E6912705F";
paths = (
{
closed = 1;
nodes = (
"241 0 LINE",
"241 356 LINE",
"213 497 LINE",
"68 497 LINE",
"68 0 LINE"
);
},
{
closed = 1;
nodes = (
"236 315 OFFCURVE",
"292 357 OFFCURVE",
"345 357 CURVE SMOOTH",
"363 357 OFFCURVE",
"379 352 OFFCURVE",
"393 344 CURVE",
"420 493 LINE",
"405 503 OFFCURVE",
"381 509 OFFCURVE",
"358 509 CURVE SMOOTH",
"294 509 OFFCURVE",
"237 465 OFFCURVE",
"210 396 CURVE",
"210 253 LINE"
);
}
);
width = 420;
}
);
unicode = 0072;
},
{
glyphname = s;
layers = (
{
anchors = (
{
name = bottom;
position = "{260, 0}";
},
{
name = top;
position = "{251, 497}";
}
);
layerId = "EF8420CB-322A-4DAC-B980-DA6E6912705F";
paths = (
{
closed = 1;
nodes = (
"390 -12 OFFCURVE",
"475 58 OFFCURVE",
"475 165 CURVE SMOOTH",
"475 348 OFFCURVE",
"217 295 OFFCURVE",
"217 347 CURVE SMOOTH",
"217 361 OFFCURVE",
"233 368 OFFCURVE",
"272 368 CURVE SMOOTH",
"317 368 OFFCURVE",
"373 359 OFFCURVE",
"419 343 CURVE",
"446 473 LINE",
"387 496 OFFCURVE",
"326 509 OFFCURVE",
"268 509 CURVE SMOOTH",
"134 509 OFFCURVE",
"42 440 OFFCURVE",
"42 335 CURVE SMOOTH",
"42 158 OFFCURVE",
"300 204 OFFCURVE",
"300 150 CURVE SMOOTH",
"300 133 OFFCURVE",
"272 125 OFFCURVE",
"219 125 CURVE SMOOTH",
"167 125 OFFCURVE",
"117 133 OFFCURVE",
"67 147 CURVE",
"40 17 LINE",
"105 -2 OFFCURVE",
"179 -12 OFFCURVE",
"237 -12 CURVE SMOOTH"
);
}
);
width = 507;
},
{
anchors = (
{
name = bottom;
position = "{234, 0}";
},
{
name = top;
position = "{234, 472}";
}
);
layerId = "D9DFF065-DDB2-4B0F-A853-E0DAE751FB65";
paths = (
{
closed = 1;
nodes = (
"348 -12 OFFCURVE",
"419 40 OFFCURVE",
"419 117 CURVE SMOOTH",
"419 285 OFFCURVE",
"79 229 OFFCURVE",
"79 363 CURVE SMOOTH",
"79 422 OFFCURVE",
"143 464 OFFCURVE",
"235 464 CURVE SMOOTH",
"291 464 OFFCURVE",
"352 448 OFFCURVE",
"387 424 CURVE",
"393 441 LINE",
"358 467 OFFCURVE",
"294 484 OFFCURVE",
"233 484 CURVE SMOOTH",
"130 484 OFFCURVE",
"58 435 OFFCURVE",
"58 364 CURVE SMOOTH",
"58 209 OFFCURVE",
"399 265 OFFCURVE",
"399 117 CURVE SMOOTH",
"399 53 OFFCURVE",
"335 8 OFFCURVE",
"243 8 CURVE SMOOTH",
"185 8 OFFCURVE",
"116 26 OFFCURVE",
"57 56 CURVE",
"51 39 LINE",
"106 7 OFFCURVE",
"179 -12 OFFCURVE",
"243 -12 CURVE SMOOTH"
);
}
);
width = 468;
}
);
unicode = 0073;
},
{
glyphname = germandbls;
layers = (
{
anchors = (
{
name = bottom;
position = "{285, 0}";
},
{
name = top;
position = "{285, 730}";
}
);
layerId = "D9DFF065-DDB2-4B0F-A853-E0DAE751FB65";
paths = (
{
closed = 1;
nodes = (
"445 -10 OFFCURVE",
"520 49 OFFCURVE",
"520 141 CURVE SMOOTH",
"520 288 OFFCURVE",
"328 287 OFFCURVE",
"328 369 CURVE SMOOTH",
"328 429 OFFCURVE",
"434 461 OFFCURVE",
"434 577 CURVE SMOOTH",
"434 670 OFFCURVE",
"365 730 OFFCURVE",
"272 730 CURVE SMOOTH",
"163 730 OFFCURVE",
"98 648 OFFCURVE",
"98 524 CURVE SMOOTH",
"98 0 LINE",
"118 0 LINE",
"118 523 LINE SMOOTH",
"118 634 OFFCURVE",
"175 709 OFFCURVE",
"272 709 CURVE SMOOTH",
"351 709 OFFCURVE",
"412 659 OFFCURVE",
"412 577 CURVE SMOOTH",
"412 468 OFFCURVE",
"306 442 OFFCURVE",
"306 367 CURVE SMOOTH",
"306 267 OFFCURVE",
"498 274 OFFCURVE",
"498 140 CURVE SMOOTH",
"498 62 OFFCURVE",
"432 11 OFFCURVE",
"337 11 CURVE SMOOTH",
"291 11 OFFCURVE",
"239 23 OFFCURVE",
"207 41 CURVE",
"201 24 LINE",
"232 6 OFFCURVE",
"280 -10 OFFCURVE",
"337 -10 CURVE SMOOTH"
);
}
);
width = 564;
},
{
anchors = (
{
name = bottom;
position = "{331, 0}";
},
{
name = top;
position = "{331, 728}";
}
);
layerId = "EF8420CB-322A-4DAC-B980-DA6E6912705F";
paths = (
{
closed = 1;
nodes = (
"537 -10 OFFCURVE",
"625 57 OFFCURVE",
"625 160 CURVE SMOOTH",
"625 300 OFFCURVE",
"463 326 OFFCURVE",
"463 380 CURVE SMOOTH",
"463 417 OFFCURVE",
"539 452 OFFCURVE",
"539 548 CURVE SMOOTH",
"539 655 OFFCURVE",
"445 740 OFFCURVE",
"304 740 CURVE SMOOTH",
"162 740 OFFCURVE",
"68 654 OFFCURVE",
"68 524 CURVE SMOOTH",
"68 0 LINE",
"241 0 LINE",
"241 523 LINE SMOOTH",
"241 569 OFFCURVE",
"263 596 OFFCURVE",
"304 596 CURVE SMOOTH",
"341 596 OFFCURVE",
"365 575 OFFCURVE",
"365 539 CURVE SMOOTH",
"365 473 OFFCURVE",
"289 446 OFFCURVE",
"289 365 CURVE SMOOTH",
"289 246 OFFCURVE",
"451 231 OFFCURVE",
"451 172 CURVE SMOOTH",
"451 149 OFFCURVE",
"427 134 OFFCURVE",
"391 134 CURVE SMOOTH",
"364 134 OFFCURVE",
"329 142 OFFCURVE",
"304 155 CURVE",
"277 23 LINE",
"309 3 OFFCURVE",
"359 -10 OFFCURVE",
"413 -10 CURVE SMOOTH"
);
}
);
width = 638;
}
);
unicode = 00DF;
},
{
glyphname = t;
layers = (
{
anchors = (
{
name = bottom;
position = "{180, 0}";
},
{
name = center;
position = "{144, 256}";
},
{
name = top;
position = "{120, 617}";
},
{
name = topright;
position = "{220, 472}";
}
);
layerId = "D9DFF065-DDB2-4B0F-A853-E0DAE751FB65";
paths = (
{
closed = 1;
nodes = (
"231 -12 OFFCURVE",
"258 -5 OFFCURVE",
"273 6 CURVE",
"267 24 LINE",
"251 14 OFFCURVE",
"228 8 OFFCURVE",
"205 8 CURVE SMOOTH",
"157 8 OFFCURVE",
"130 33 OFFCURVE",
"130 79 CURVE SMOOTH",
"130 617 LINE",
"110 617 LINE",
"110 79 LINE SMOOTH",
"110 21 OFFCURVE",
"144 -12 OFFCURVE",
"204 -12 CURVE SMOOTH"
);
},
{
closed = 1;
nodes = (
"262 453 LINE",
"262 472 LINE",
"21 472 LINE",
"21 453 LINE"
);
}
);
width = 300;
},
{
anchors = (
{
name = bottom;
position = "{256, 0}";
},
{
name = center;
position = "{194, 258}";
},
{
name = top;
position = "{177, 617}";
},
{
name = topright;
position = "{369, 497}";
}
);
layerId = "EF8420CB-322A-4DAC-B980-DA6E6912705F";
paths = (
{
closed = 1;
nodes = (
"322 -12 OFFCURVE",
"366 -2 OFFCURVE",
"399 16 CURVE",
"366 143 LINE",
"354 137 OFFCURVE",
"337 133 OFFCURVE",
"323 133 CURVE SMOOTH",
"287 133 OFFCURVE",
"265 157 OFFCURVE",
"265 194 CURVE SMOOTH",
"265 617 LINE",
"92 617 LINE",
"92 162 LINE SMOOTH",
"92 57 OFFCURVE",
"165 -12 OFFCURVE",
"279 -12 CURVE SMOOTH"
);
},
{
closed = 1;
nodes = (
"376 357 LINE",
"376 497 LINE",
"14 497 LINE",
"14 357 LINE"
);
}
);
width = 424;
}
);
unicode = 0074;
},
{
glyphname = u;
layers = (
{
anchors = (
{
name = bottom;
position = "{282, 0}";
},
{
name = ogonek;
position = "{454, 2}";
},
{
name = top;
position = "{282, 472}";
},
{
name = topright;
position = "{534, 472}";
}
);
components = (
{
name = _n;
transform = "{-1, 0, 0, -1, 570, 472}";
}
);
layerId = "D9DFF065-DDB2-4B0F-A853-E0DAE751FB65";
paths = (
{
closed = 1;
nodes = (
"464 0 LINE",
"464 472 LINE",
"444 472 LINE",
"444 74 LINE",
"448 0 LINE"
);
}
);
width = 562;
},
{
anchors = (
{
name = bottom;
position = "{303, 0}";
},
{
name = ogonek;
position = "{504, 5}";
},
{
name = top;
position = "{303, 497}";
},
{
name = topright;
position = "{545, 497}";
}
);
components = (
{
name = _n;
transform = "{-1, 0, 0, -1, 605, 497}";
}
);
layerId = "EF8420CB-322A-4DAC-B980-DA6E6912705F";
paths = (
{
closed = 1;
nodes = (
"546 0 LINE",
"546 497 LINE",
"373 497 LINE",
"373 111 LINE",
"401 0 LINE"
);
}
);
width = 614;
}
);
unicode = 0075;
},
{
glyphname = v;
layers = (
{
anchors = (
{
name = bottom;
position = "{273, 0}";
},
{
name = top;
position = "{273, 502}";
}
);
layerId = "EF8420CB-322A-4DAC-B980-DA6E6912705F";
paths = (
{
closed = 1;
nodes = (
"365 0 LINE",
"550 497 LINE",
"367 497 LINE",
"275 162 LINE",
"271 162 LINE",
"179 497 LINE",
"-4 497 LINE",
"177 0 LINE"
);
}
);
width = 546;
},
{
anchors = (
{
name = bottom;
position = "{242, 0}";
},
{
name = top;
position = "{242, 472}";
}
);
layerId = "D9DFF065-DDB2-4B0F-A853-E0DAE751FB65";
paths = (
{
closed = 1;
nodes = (
"253 0 LINE",
"459 472 LINE",
"436 472 LINE",
"246 30 LINE",
"242 30 LINE",
"48 472 LINE",
"25 472 LINE",
"235 0 LINE"
);
}
);
width = 485;
}
);
unicode = 0076;
},
{
glyphname = w;
layers = (
{
anchors = (
{
name = bottom;
position = "{380, 0}";
},
{
name = top;
position = "{380, 472}";
}
);
layerId = "D9DFF065-DDB2-4B0F-A853-E0DAE751FB65";
paths = (
{
closed = 1;
nodes = (
"219 0 LINE",
"379 444 LINE",
"381 444 LINE",
"545 0 LINE",
"559 0 LINE",
"730 472 LINE",
"708 472 LINE",
"554 33 LINE",
"550 33 LINE",
"393 472 LINE",
"367 472 LINE",
"213 33 LINE",
"210 33 LINE",
"52 472 LINE",
"30 472 LINE",
"204 0 LINE"
);
}
);
width = 760;
},
{
anchors = (
{
name = bottom;
position = "{412, 0}";
},
{
name = top;
position = "{412, 497}";
}
);
layerId = "EF8420CB-322A-4DAC-B980-DA6E6912705F";
paths = (
{
closed = 1;
nodes = (
"317 0 LINE",
"408 331 LINE",
"411 331 LINE",
"493 0 LINE",
"678 0 LINE",
"816 497 LINE",
"643 497 LINE",
"593 193 LINE",
"588 193 LINE",
"508 497 LINE",
"312 497 LINE",
"232 193 LINE",
"228 193 LINE",
"181 497 LINE",
"8 497 LINE",
"134 0 LINE"
);
}
);
width = 821;
}
);
unicode = 0077;
},
{
glyphname = x;
layers = (
{
anchors = (
{
name = bottom;
position = "{224, 0}";
},
{
name = top;
position = "{224, 472}";
}
);
layerId = "D9DFF065-DDB2-4B0F-A853-E0DAE751FB65";
paths = (
{
closed = 1;
nodes = (
"60 0 LINE",
"416 472 LINE",
"392 472 LINE",
"36 0 LINE"
);
},
{
closed = 1;
nodes = (
"222 234 LINE",
"396 0 LINE",
"421 0 LINE",
"235 249 LINE"
);
},
{
closed = 1;
nodes = (
"230 251 LINE",
"51 472 LINE",
"26 472 LINE",
"217 236 LINE"
);
}
);
width = 448;
},
{
anchors = (
{
name = bottom;
position = "{261, 0}";
},
{
name = top;
position = "{261, 497}";
}
);
layerId = "EF8420CB-322A-4DAC-B980-DA6E6912705F";
paths = (
{
closed = 1;
nodes = (
"176 0 LINE",
"524 497 LINE",
"344 497 LINE",
"-3 0 LINE"
);
},
{
closed = 1;
nodes = (
"217 200 LINE",
"345 0 LINE",
"524 0 LINE",
"311 323 LINE"
);
},
{
closed = 1;
nodes = (
"304 320 LINE",
"177 497 LINE",
"-3 497 LINE",
"210 197 LINE"
);
}
);
width = 522;
}
);
unicode = 0078;
},
{
glyphname = y;
layers = (
{
anchors = (
{
name = bottom;
position = "{330, 0}";
},
{
name = top;
position = "{229, 472}";
}
);
layerId = "D9DFF065-DDB2-4B0F-A853-E0DAE751FB65";
paths = (
{
closed = 1;
nodes = (
"230 0 LINE",
"148 -218 LINE",
"168 -218 LINE",
"248 0 LINE",
"449 472 LINE",
"426 472 LINE",
"241 30 LINE",
"237 30 LINE",
"48 472 LINE",
"25 472 LINE"
);
}
);
width = 475;
},
{
anchors = (
{
name = bottom;
position = "{474, 0}";
},
{
name = top;
position = "{271, 497}";
}
);
layerId = "EF8420CB-322A-4DAC-B980-DA6E6912705F";
paths = (
{
closed = 1;
nodes = (
"177 0 LINE",
"93 -218 LINE",
"286 -218 LINE",
"363 0 LINE",
"550 497 LINE",
"367 497 LINE",
"275 162 LINE",
"271 162 LINE",
"179 497 LINE",
"-4 497 LINE"
);
}
);
width = 545;
}
);
unicode = 0079;
},
{
glyphname = z;
layers = (
{
anchors = (
{
name = bottom;
position = "{219, 0}";
},
{
name = top;
position = "{219, 472}";
}
);
layerId = "D9DFF065-DDB2-4B0F-A853-E0DAE751FB65";
paths = (
{
closed = 1;
nodes = (
"405 0 LINE",
"405 20 LINE",
"60 20 LINE",
"394 455 LINE",
"394 472 LINE",
"32 472 LINE",
"32 452 LINE",
"366 452 LINE",
"32 16 LINE",
"32 0 LINE"
);
}
);
width = 435;
},
{
anchors = (
{
name = bottom;
position = "{258, 0}";
},
{
name = top;
position = "{258, 497}";
}
);
layerId = "EF8420CB-322A-4DAC-B980-DA6E6912705F";
paths = (
{
closed = 1;
nodes = (
"482 0 LINE",
"482 140 LINE",
"257 140 LINE",
"468 393 LINE",
"468 497 LINE",
"38 497 LINE",
"38 358 LINE",
"249 358 LINE",
"38 103 LINE",
"38 0 LINE"
);
}
);
width = 515;
}
);
unicode = 007A;
},
{
glyphname = ordfeminine;
layers = (
{
layerId = "D9DFF065-DDB2-4B0F-A853-E0DAE751FB65";
paths = (
{
closed = 1;
nodes = (
"324 420 LINE",
"324 604 LINE SMOOTH",
"324 673 OFFCURVE",
"284 712 OFFCURVE",
"214 712 CURVE SMOOTH",
"180 712 OFFCURVE",
"143 703 OFFCURVE",
"111 686 CURVE",
"116 670 LINE",
"142 685 OFFCURVE",
"178 694 OFFCURVE",
"210 694 CURVE SMOOTH",
"270 694 OFFCURVE",
"304 661 OFFCURVE",
"304 602 CURVE SMOOTH",
"304 463 LINE",
"308 420 LINE"
);
},
{
closed = 1;
nodes = (
"225 413 OFFCURVE",
"274 430 OFFCURVE",
"310 456 CURVE",
"310 471 LINE",
"272 446 OFFCURVE",
"224 430 OFFCURVE",
"187 430 CURVE SMOOTH",
"140 430 OFFCURVE",
"108 456 OFFCURVE",
"108 492 CURVE SMOOTH",
"108 546 OFFCURVE",
"182 576 OFFCURVE",
"310 576 CURVE",
"310 592 LINE",
"168 592 OFFCURVE",
"87 556 OFFCURVE",
"87 490 CURVE SMOOTH",
"87 445 OFFCURVE",
"126 413 OFFCURVE",
"183 413 CURVE SMOOTH"
);
}
);
userData = {
RMXScaler = {
height = 60;
verticalShift = 420;
width = 60;
};
};
width = 440;
},
{
layerId = "EF8420CB-322A-4DAC-B980-DA6E6912705F";
paths = (
{
closed = 1;
nodes = (
"357 416 LINE",
"357 611 LINE SMOOTH",
"357 676 OFFCURVE",
"302 719 OFFCURVE",
"222 719 CURVE SMOOTH",
"181 719 OFFCURVE",
"133 708 OFFCURVE",
"101 691 CURVE",
"111 619 LINE",
"138 634 OFFCURVE",
"174 644 OFFCURVE",
"202 644 CURVE SMOOTH",
"240 644 OFFCURVE",
"262 625 OFFCURVE",
"262 589 CURVE SMOOTH",
"262 485 LINE",
"277 416 LINE"
);
},
{
closed = 1;
nodes = (
"213 409 OFFCURVE",
"252 425 OFFCURVE",
"274 449 CURVE",
"274 514 LINE",
"251 492 OFFCURVE",
"225 479 OFFCURVE",
"203 479 CURVE SMOOTH",
"184 479 OFFCURVE",
"170 489 OFFCURVE",
"170 503 CURVE SMOOTH",
"170 528 OFFCURVE",
"211 544 OFFCURVE",
"274 544 CURVE",
"274 606 LINE",
"153 606 OFFCURVE",
"74 563 OFFCURVE",
"74 494 CURVE SMOOTH",
"74 445 OFFCURVE",
"115 409 OFFCURVE",
"174 409 CURVE SMOOTH"
);
}
);
userData = {
RMXScaler = {
height = 60;
verticalShift = 416;
weight = -80;
width = 60;
};
};
width = 451;
}
);
unicode = 00AA;
userData = {
RMXScaler = {
source = a;
};
};
},
{
glyphname = ordmasculine;
layers = (
{
layerId = "D9DFF065-DDB2-4B0F-A853-E0DAE751FB65";
paths = (
{
closed = 1;
nodes = (
"290 413 OFFCURVE",
"344 472 OFFCURVE",
"344 562 CURVE SMOOTH",
"344 652 OFFCURVE",
"290 712 OFFCURVE",
"209 712 CURVE SMOOTH",
"128 712 OFFCURVE",
"74 652 OFFCURVE",
"74 562 CURVE SMOOTH",
"74 472 OFFCURVE",
"128 413 OFFCURVE",
"209 413 CURVE SMOOTH"
);
},
{
closed = 1;
nodes = (
"140 431 OFFCURVE",
"94 484 OFFCURVE",
"94 562 CURVE SMOOTH",
"94 641 OFFCURVE",
"140 693 OFFCURVE",
"209 693 CURVE SMOOTH",
"278 693 OFFCURVE",
"324 641 OFFCURVE",
"324 562 CURVE SMOOTH",
"324 484 OFFCURVE",
"278 431 OFFCURVE",
"209 431 CURVE SMOOTH"
);
}
);
userData = {
RMXScaler = {
height = 60;
verticalShift = 420;
width = 60;
};
};
width = 419;
},
{
layerId = "EF8420CB-322A-4DAC-B980-DA6E6912705F";
paths = (
{
closed = 1;
nodes = (
"300 408 OFFCURVE",
"361 470 OFFCURVE",
"361 564 CURVE SMOOTH",
"361 657 OFFCURVE",
"300 719 OFFCURVE",
"209 719 CURVE SMOOTH",
"118 719 OFFCURVE",
"58 657 OFFCURVE",
"58 564 CURVE SMOOTH",
"58 470 OFFCURVE",
"118 408 OFFCURVE",
"209 408 CURVE SMOOTH"
);
},
{
closed = 1;
nodes = (
"175 487 OFFCURVE",
"153 517 OFFCURVE",
"153 564 CURVE SMOOTH",
"153 610 OFFCURVE",
"175 640 OFFCURVE",
"209 640 CURVE SMOOTH",
"243 640 OFFCURVE",
"266 610 OFFCURVE",
"266 564 CURVE SMOOTH",
"266 518 OFFCURVE",
"243 487 OFFCURVE",
"209 487 CURVE SMOOTH"
);
}
);
userData = {
RMXScaler = {
height = 60;
verticalShift = 415;
weight = -80;
width = 60;
};
};
width = 419;
}
);
unicode = 00BA;
userData = {
RMXScaler = {
source = o;
};
};
},
{
glyphname = zero;
layers = (
{
anchors = (
{
name = slash;
position = "{327, 354}";
}
);
layerId = "EF8420CB-322A-4DAC-B980-DA6E6912705F";
paths = (
{
closed = 1;
nodes = (
"500 -12 OFFCURVE",
"614 134 OFFCURVE",
"614 354 CURVE SMOOTH",
"614 573 OFFCURVE",
"500 719 OFFCURVE",
"329 719 CURVE SMOOTH",
"156 719 OFFCURVE",
"40 573 OFFCURVE",
"40 354 CURVE SMOOTH",
"40 134 OFFCURVE",
"156 -12 OFFCURVE",
"329 -12 CURVE SMOOTH"
);
},
{
closed = 1;
nodes = (
"260 132 OFFCURVE",
"214 221 OFFCURVE",
"214 354 CURVE SMOOTH",
"214 487 OFFCURVE",
"260 575 OFFCURVE",
"329 575 CURVE SMOOTH",
"396 575 OFFCURVE",
"440 487 OFFCURVE",
"440 354 CURVE SMOOTH",
"440 221 OFFCURVE",
"396 132 OFFCURVE",
"329 132 CURVE SMOOTH"
);
}
);
width = 654;
},
{
anchors = (
{
name = slash;
position = "{306, 365}";
}
);
layerId = "D9DFF065-DDB2-4B0F-A853-E0DAE751FB65";
paths = (
{
closed = 1;
nodes = (
"441 -12 OFFCURVE",
"529 132 OFFCURVE",
"529 349 CURVE SMOOTH",
"529 567 OFFCURVE",
"441 712 OFFCURVE",
"308 712 CURVE SMOOTH",
"173 712 OFFCURVE",
"83 567 OFFCURVE",
"83 349 CURVE SMOOTH",
"83 132 OFFCURVE",
"173 -12 OFFCURVE",
"308 -12 CURVE SMOOTH"
);
},
{
closed = 1;
nodes = (
"186 9 OFFCURVE",
"105 145 OFFCURVE",
"105 349 CURVE SMOOTH",
"105 554 OFFCURVE",
"186 691 OFFCURVE",
"308 691 CURVE SMOOTH",
"427 691 OFFCURVE",
"507 554 OFFCURVE",
"507 349 CURVE SMOOTH",
"507 145 OFFCURVE",
"427 9 OFFCURVE",
"308 9 CURVE SMOOTH"
);
}
);
width = 612;
}
);
unicode = 0030;
},
{
glyphname = one;
layers = (
{
layerId = "D9DFF065-DDB2-4B0F-A853-E0DAE751FB65";
paths = (
{
closed = 1;
nodes = (
"414 0 LINE",
"414 19 LINE",
"257 19 LINE",
"257 700 LINE",
"236 700 LINE",
"43 636 LINE",
"49 619 LINE",
"236 677 LINE",
"236 19 LINE",
"54 19 LINE",
"54 0 LINE"
);
}
);
width = 445;
},
{
layerId = "EF8420CB-322A-4DAC-B980-DA6E6912705F";
paths = (
{
closed = 1;
nodes = (
"528 0 LINE",
"528 144 LINE",
"383 144 LINE",
"383 707 LINE",
"210 707 LINE",
"32 634 LINE",
"59 501 LINE",
"210 557 LINE",
"210 144 LINE",
"42 144 LINE",
"42 0 LINE"
);
}
);
width = 537;
}
);
unicode = 0031;
},
{
glyphname = two;
layers = (
{
layerId = "D9DFF065-DDB2-4B0F-A853-E0DAE751FB65";
paths = (
{
closed = 1;
nodes = (
"471 0 LINE",
"471 20 LINE",
"81 20 LINE",
"346 306 OFFCURVE",
"427 428 OFFCURVE",
"427 536 CURVE SMOOTH",
"427 640 OFFCURVE",
"351 712 OFFCURVE",
"242 712 CURVE SMOOTH",
"179 712 OFFCURVE",
"105 688 OFFCURVE",
"44 650 CURVE",
"50 633 LINE",
"105 669 OFFCURVE",
"179 691 OFFCURVE",
"239 691 CURVE SMOOTH",
"340 691 OFFCURVE",
"405 629 OFFCURVE",
"405 536 CURVE SMOOTH",
"405 432 OFFCURVE",
"324 313 OFFCURVE",
"51 17 CURVE",
"51 0 LINE"
);
}
);
width = 517;
},
{
layerId = "EF8420CB-322A-4DAC-B980-DA6E6912705F";
paths = (
{
closed = 1;
nodes = (
"514 0 LINE",
"514 144 LINE",
"268 144 LINE",
"412 249 OFFCURVE",
"503 392 OFFCURVE",
"503 513 CURVE SMOOTH",
"503 639 OFFCURVE",
"404 719 OFFCURVE",
"250 719 CURVE SMOOTH",
"169 719 OFFCURVE",
"89 697 OFFCURVE",
"27 657 CURVE",
"54 521 LINE",
"123 560 OFFCURVE",
"167 575 OFFCURVE",
"217 575 CURVE SMOOTH",
"289 575 OFFCURVE",
"330 543 OFFCURVE",
"330 488 CURVE SMOOTH",
"330 395 OFFCURVE",
"212 244 OFFCURVE",
"34 108 CURVE",
"34 0 LINE"
);
}
);
width = 556;
}
);
unicode = 0032;
},
{
glyphname = three;
layers = (
{
layerId = "EF8420CB-322A-4DAC-B980-DA6E6912705F";
paths = (
{
closed = 1;
nodes = (
"426 -12 OFFCURVE",
"536 67 OFFCURVE",
"536 187 CURVE SMOOTH",
"536 280 OFFCURVE",
"470 350 OFFCURVE",
"374 361 CURVE",
"374 363 LINE",
"450 383 OFFCURVE",
"499 450 OFFCURVE",
"499 529 CURVE SMOOTH",
"499 642 OFFCURVE",
"398 719 OFFCURVE",
"256 719 CURVE SMOOTH",
"179 719 OFFCURVE",
"101 696 OFFCURVE",
"44 659 CURVE",
"71 523 LINE",
"123 555 OFFCURVE",
"190 575 OFFCURVE",
"237 575 CURVE SMOOTH",
"293 575 OFFCURVE",
"326 546 OFFCURVE",
"326 507 CURVE SMOOTH",
"326 452 OFFCURVE",
"260 418 OFFCURVE",
"162 418 CURVE",
"162 288 LINE",
"283 288 OFFCURVE",
"363 254 OFFCURVE",
"363 200 CURVE SMOOTH",
"363 160 OFFCURVE",
"319 132 OFFCURVE",
"245 132 CURVE SMOOTH",
"186 132 OFFCURVE",
"107 150 OFFCURVE",
"54 177 CURVE",
"26 41 LINE",
"92 8 OFFCURVE",
"180 -12 OFFCURVE",
"262 -12 CURVE SMOOTH"
);
}
);
width = 568;
},
{
layerId = "D9DFF065-DDB2-4B0F-A853-E0DAE751FB65";
paths = (
{
closed = 1;
nodes = (
"394 -12 OFFCURVE",
"479 50 OFFCURVE",
"479 165 CURVE SMOOTH",
"479 275 OFFCURVE",
"401 346 OFFCURVE",
"260 357 CURVE",
"260 359 LINE",
"376 372 OFFCURVE",
"443 437 OFFCURVE",
"443 535 CURVE SMOOTH",
"443 641 OFFCURVE",
"365 712 OFFCURVE",
"251 712 CURVE SMOOTH",
"184 712 OFFCURVE",
"116 687 OFFCURVE",
"60 642 CURVE",
"66 625 LINE",
"122 669 OFFCURVE",
"181 691 OFFCURVE",
"244 691 CURVE SMOOTH",
"350 691 OFFCURVE",
"421 630 OFFCURVE",
"421 536 CURVE SMOOTH",
"421 430 OFFCURVE",
"330 367 OFFCURVE",
"173 367 CURVE",
"173 347 LINE",
"360 347 OFFCURVE",
"457 281 OFFCURVE",
"457 164 CURVE SMOOTH",
"457 62 OFFCURVE",
"382 9 OFFCURVE",
"256 9 CURVE SMOOTH",
"177 9 OFFCURVE",
"101 30 OFFCURVE",
"51 65 CURVE",
"45 48 LINE",
"97 11 OFFCURVE",
"176 -12 OFFCURVE",
"259 -12 CURVE SMOOTH"
);
}
);
width = 549;
}
);
unicode = 0033;
},
{
glyphname = four;
layers = (
{
layerId = "EF8420CB-322A-4DAC-B980-DA6E6912705F";
paths = (
{
closed = 1;
nodes = (
"591 139 LINE",
"591 279 LINE",
"167 279 LINE",
"167 283 LINE",
"320 495 LINE",
"325 495 LINE",
"325 0 LINE",
"495 0 LINE",
"495 707 LINE",
"332 707 LINE",
"18 278 LINE",
"18 139 LINE"
);
}
);
width = 608;
},
{
layerId = "D9DFF065-DDB2-4B0F-A853-E0DAE751FB65";
paths = (
{
closed = 1;
nodes = (
"551 179 LINE",
"551 198 LINE",
"65 198 LINE",
"65 202 LINE",
"380 675 LINE",
"385 675 LINE",
"385 0 LINE",
"406 0 LINE",
"406 700 LINE",
"373 700 LINE",
"41 198 LINE",
"41 179 LINE"
);
}
);
width = 589;
}
);
unicode = 0034;
},
{
glyphname = five;
layers = (
{
layerId = "EF8420CB-322A-4DAC-B980-DA6E6912705F";
paths = (
{
closed = 1;
nodes = (
"455 -12 OFFCURVE",
"564 76 OFFCURVE",
"564 224 CURVE SMOOTH",
"564 355 OFFCURVE",
"478 453 OFFCURVE",
"341 453 CURVE SMOOTH",
"279 453 OFFCURVE",
"207 433 OFFCURVE",
"163 401 CURVE",
"203 280 LINE",
"232 298 OFFCURVE",
"268 309 OFFCURVE",
"300 309 CURVE SMOOTH",
"356 309 OFFCURVE",
"391 275 OFFCURVE",
"391 221 CURVE SMOOTH",
"391 162 OFFCURVE",
"349 132 OFFCURVE",
"271 132 CURVE SMOOTH",
"208 132 OFFCURVE",
"136 152 OFFCURVE",
"81 185 CURVE",
"54 51 LINE",
"114 13 OFFCURVE",
"207 -12 OFFCURVE",
"293 -12 CURVE SMOOTH"
);
},
{
closed = 1;
nodes = (
"203 280 LINE",
"251 395 LINE",
"256 563 LINE",
"512 563 LINE",
"512 707 LINE",
"84 707 LINE",
"78 280 LINE"
);
}
);
width = 597;
},
{
layerId = "D9DFF065-DDB2-4B0F-A853-E0DAE751FB65";
paths = (
{
closed = 1;
nodes = (
"411 -12 OFFCURVE",
"498 73 OFFCURVE",
"498 202 CURVE SMOOTH",
"498 329 OFFCURVE",
"414 416 OFFCURVE",
"282 416 CURVE SMOOTH",
"224 416 OFFCURVE",
"166 399 OFFCURVE",
"114 364 CURVE",
"112 347 LINE",
"170 379 OFFCURVE",
"227 395 OFFCURVE",
"281 395 CURVE SMOOTH",
"399 395 OFFCURVE",
"476 317 OFFCURVE",
"476 202 CURVE SMOOTH",
"476 86 OFFCURVE",
"398 9 OFFCURVE",
"281 9 CURVE SMOOTH",
"220 9 OFFCURVE",
"145 30 OFFCURVE",
"82 65 CURVE",
"76 48 LINE",
"136 12 OFFCURVE",
"217 -12 OFFCURVE",
"284 -12 CURVE SMOOTH"
);
},
{
closed = 1;
nodes = (
"112 347 LINE",
"114 359 LINE",
"120 680 LINE",
"454 680 LINE",
"454 700 LINE",
"101 700 LINE",
"95 347 LINE"
);
}
);
width = 560;
}
);
unicode = 0035;
},
{
glyphname = six;
layers = (
{
layerId = "D9DFF065-DDB2-4B0F-A853-E0DAE751FB65";
paths = (
{
closed = 1;
nodes = (
"437 -12 OFFCURVE",
"519 74 OFFCURVE",
"519 202 CURVE SMOOTH",
"519 329 OFFCURVE",
"439 418 OFFCURVE",
"319 418 CURVE SMOOTH",
"236 418 OFFCURVE",
"146 375 OFFCURVE",
"93 310 CURVE",
"93 294 LINE",
"142 356 OFFCURVE",
"229 397 OFFCURVE",
"310 397 CURVE SMOOTH",
"422 397 OFFCURVE",
"496 318 OFFCURVE",
"496 203 CURVE SMOOTH",
"496 88 OFFCURVE",
"422 9 OFFCURVE",
"316 9 CURVE SMOOTH",
"186 9 OFFCURVE",
"103 127 OFFCURVE",
"103 327 CURVE SMOOTH",
"103 536 OFFCURVE",
"193 683 OFFCURVE",
"332 683 CURVE SMOOTH",
"379 683 OFFCURVE",
"433 666 OFFCURVE",
"466 640 CURVE",
"472 657 LINE",
"437 685 OFFCURVE",
"379 704 OFFCURVE",
"327 704 CURVE SMOOTH",
"179 704 OFFCURVE",
"81 547 OFFCURVE",
"81 328 CURVE SMOOTH",
"81 114 OFFCURVE",
"174 -12 OFFCURVE",
"318 -12 CURVE SMOOTH"
);
}
);
width = 583;
},
{
layerId = "EF8420CB-322A-4DAC-B980-DA6E6912705F";
paths = (
{
closed = 1;
nodes = (
"471 -12 OFFCURVE",
"576 83 OFFCURVE",
"576 234 CURVE SMOOTH",
"576 368 OFFCURVE",
"493 469 OFFCURVE",
"368 469 CURVE SMOOTH",
"280 469 OFFCURVE",
"193 419 OFFCURVE",
"143 337 CURVE",
"195 256 LINE",
"220 297 OFFCURVE",
"268 325 OFFCURVE",
"316 325 CURVE SMOOTH",
"373 325 OFFCURVE",
"413 288 OFFCURVE",
"413 226 CURVE SMOOTH",
"413 171 OFFCURVE",
"385 132 OFFCURVE",
"326 132 CURVE SMOOTH",
"259 132 OFFCURVE",
"218 177 OFFCURVE",
"218 331 CURVE SMOOTH",
"218 485 OFFCURVE",
"258 575 OFFCURVE",
"365 575 CURVE SMOOTH",
"404 575 OFFCURVE",
"443 563 OFFCURVE",
"480 538 CURVE",
"507 677 LINE",
"461 704 OFFCURVE",
"402 719 OFFCURVE",
"345 719 CURVE SMOOTH",
"160 719 OFFCURVE",
"40 562 OFFCURVE",
"40 336 CURVE SMOOTH",
"40 119 OFFCURVE",
"150 -12 OFFCURVE",
"323 -12 CURVE SMOOTH"
);
}
);
width = 604;
}
);
unicode = 0036;
},
{
glyphname = seven;
layers = (
{
layerId = "EF8420CB-322A-4DAC-B980-DA6E6912705F";
paths = (
{
closed = 1;
nodes = (
"304 0 LINE",
"513 633 LINE",
"513 707 LINE",
"8 707 LINE",
"8 567 LINE",
"332 567 LINE",
"145 0 LINE"
);
}
);
width = 527;
},
{
layerId = "D9DFF065-DDB2-4B0F-A853-E0DAE751FB65";
paths = (
{
closed = 1;
nodes = (
"227 0 LINE",
"469 684 LINE",
"469 700 LINE",
"32 700 LINE",
"32 678 LINE",
"443 678 LINE",
"201 0 LINE"
);
}
);
width = 512;
}
);
unicode = 0037;
},
{
glyphname = eight;
layers = (
{
layerId = "EF8420CB-322A-4DAC-B980-DA6E6912705F";
paths = (
{
closed = 1;
nodes = (
"463 -12 OFFCURVE",
"565 70 OFFCURVE",
"565 197 CURVE SMOOTH",
"565 424 OFFCURVE",
"228 401 OFFCURVE",
"228 520 CURVE SMOOTH",
"228 558 OFFCURVE",
"263 579 OFFCURVE",
"305 579 CURVE SMOOTH",
"339 579 OFFCURVE",
"378 565 OFFCURVE",
"378 519 CURVE SMOOTH",
"378 474 OFFCURVE",
"341 431 OFFCURVE",
"293 425 CURVE",
"411 365 LINE",
"491 395 OFFCURVE",
"538 457 OFFCURVE",
"538 534 CURVE SMOOTH",
"538 640 OFFCURVE",
"449 719 OFFCURVE",
"307 719 CURVE SMOOTH",
"162 719 OFFCURVE",
"61 636 OFFCURVE",
"61 510 CURVE SMOOTH",
"61 282 OFFCURVE",
"398 311 OFFCURVE",
"398 190 CURVE SMOOTH",
"398 152 OFFCURVE",
"364 128 OFFCURVE",
"308 128 CURVE SMOOTH",
"266 128 OFFCURVE",
"204 141 OFFCURVE",
"204 200 CURVE SMOOTH",
"204 247 OFFCURVE",
"245 296 OFFCURVE",
"301 300 CURVE",
"202 363 LINE",
"101 344 OFFCURVE",
"37 272 OFFCURVE",
"37 184 CURVE SMOOTH",
"37 66 OFFCURVE",
"152 -12 OFFCURVE",
"306 -12 CURVE SMOOTH"
);
}
);
width = 602;
},
{
layerId = "D9DFF065-DDB2-4B0F-A853-E0DAE751FB65";
paths = (
{
closed = 1;
nodes = (
"436 -12 OFFCURVE",
"524 61 OFFCURVE",
"524 174 CURVE SMOOTH",
"524 416 OFFCURVE",
"118 293 OFFCURVE",
"118 523 CURVE SMOOTH",
"118 618 OFFCURVE",
"187 683 OFFCURVE",
"293 683 CURVE SMOOTH",
"396 683 OFFCURVE",
"465 620 OFFCURVE",
"465 534 CURVE SMOOTH",
"465 445 OFFCURVE",
"389 380 OFFCURVE",
"296 359 CURVE",
"320 350 LINE",
"408 371 OFFCURVE",
"487 437 OFFCURVE",
"487 534 CURVE SMOOTH",
"487 632 OFFCURVE",
"409 704 OFFCURVE",
"293 704 CURVE SMOOTH",
"174 704 OFFCURVE",
"95 630 OFFCURVE",
"95 521 CURVE SMOOTH",
"95 274 OFFCURVE",
"502 399 OFFCURVE",
"502 173 CURVE SMOOTH",
"502 74 OFFCURVE",
"424 9 OFFCURVE",
"302 9 CURVE SMOOTH",
"180 9 OFFCURVE",
"96 75 OFFCURVE",
"96 169 CURVE SMOOTH",
"96 252 OFFCURVE",
"163 327 OFFCURVE",
"297 348 CURVE",
"275 360 LINE",
"161 348 OFFCURVE",
"75 271 OFFCURVE",
"75 169 CURVE SMOOTH",
"75 63 OFFCURVE",
"166 -12 OFFCURVE",
"302 -12 CURVE SMOOTH"
);
}
);
width = 592;
}
);
unicode = 0038;
},
{
glyphname = zero.dnom;
layers = (
{
layerId = "EF8420CB-322A-4DAC-B980-DA6E6912705F";
paths = (
{
closed = 1;
nodes = (
"317 -7 OFFCURVE",
"390 81 OFFCURVE",
"390 213 CURVE SMOOTH",
"390 345 OFFCURVE",
"317 433 OFFCURVE",
"207 433 CURVE SMOOTH",
"96 433 OFFCURVE",
"21 345 OFFCURVE",
"21 213 CURVE SMOOTH",
"21 81 OFFCURVE",
"96 -7 OFFCURVE",
"207 -7 CURVE SMOOTH"
);
},
{
closed = 1;
nodes = (
"176 103 OFFCURVE",
"155 147 OFFCURVE",
"155 213 CURVE SMOOTH",
"155 278 OFFCURVE",
"176 322 OFFCURVE",
"207 322 CURVE SMOOTH",
"237 322 OFFCURVE",
"256 279 OFFCURVE",
"256 213 CURVE SMOOTH",
"256 146 OFFCURVE",
"237 103 OFFCURVE",
"207 103 CURVE SMOOTH"
);
}
);
userData = {
RMXScaler = {
height = 60;
weight = -40;
width = 60;
};
};
width = 412;
},
{
layerId = "D9DFF065-DDB2-4B0F-A853-E0DAE751FB65";
paths = (
{
closed = 1;
nodes = (
"273 -7 OFFCURVE",
"327 79 OFFCURVE",
"327 210 CURVE SMOOTH",
"327 341 OFFCURVE",
"273 428 OFFCURVE",
"191 428 CURVE SMOOTH",
"108 428 OFFCURVE",
"53 341 OFFCURVE",
"53 210 CURVE SMOOTH",
"53 79 OFFCURVE",
"108 -7 OFFCURVE",
"191 -7 CURVE SMOOTH"
);
},
{
closed = 1;
nodes = (
"121 12 OFFCURVE",
"74 91 OFFCURVE",
"74 210 CURVE SMOOTH",
"74 329 OFFCURVE",
"121 409 OFFCURVE",
"191 409 CURVE SMOOTH",
"260 409 OFFCURVE",
"306 329 OFFCURVE",
"306 210 CURVE SMOOTH",
"306 91 OFFCURVE",
"260 12 OFFCURVE",
"191 12 CURVE SMOOTH"
);
}
);
userData = {
RMXScaler = {
height = 60;
width = 60;
};
};
width = 380;
}
);
userData = {
RMXScaler = {
source = zero;
};
};
},
{
glyphname = one.dnom;
layers = (
{
layerId = "D9DFF065-DDB2-4B0F-A853-E0DAE751FB65";
paths = (
{
closed = 1;
nodes = (
"246 0 LINE",
"246 18 LINE",
"152 18 LINE",
"152 420 LINE",
"132 420 LINE",
"17 381 LINE",
"20 365 LINE",
"132 400 LINE",
"132 18 LINE",
"24 18 LINE",
"24 0 LINE"
);
}
);
userData = {
RMXScaler = {
height = 60;
width = 60;
};
};
width = 244;
},
{
layerId = "EF8420CB-322A-4DAC-B980-DA6E6912705F";
paths = (
{
closed = 1;
nodes = (
"350 0 LINE",
"350 111 LINE",
"265 111 LINE",
"265 426 LINE",
"132 426 LINE",
"28 380 LINE",
"41 278 LINE",
"132 311 LINE",
"132 111 LINE",
"34 111 LINE",
"34 0 LINE"
);
}
);
userData = {
RMXScaler = {
height = 60;
weight = -40;
width = 60;
};
};
width = 350;
}
);
userData = {
RMXScaler = {
source = one;
};
};
},
{
glyphname = two.dnom;
layers = (
{
layerId = "D9DFF065-DDB2-4B0F-A853-E0DAE751FB65";
paths = (
{
closed = 1;
nodes = (
"276 0 LINE",
"276 18 LINE",
"50 18 LINE",
"203 182 OFFCURVE",
"252 255 OFFCURVE",
"252 320 CURVE SMOOTH",
"252 384 OFFCURVE",
"205 428 OFFCURVE",
"137 428 CURVE SMOOTH",
"99 428 OFFCURVE",
"54 414 OFFCURVE",
"17 390 CURVE",
"20 374 LINE",
"52 395 OFFCURVE",
"97 409 OFFCURVE",
"134 409 CURVE SMOOTH",
"193 409 OFFCURVE",
"231 373 OFFCURVE",
"231 319 CURVE SMOOTH",
"231 257 OFFCURVE",
"181 186 OFFCURVE",
"21 15 CURVE",
"21 0 LINE"
);
}
);
userData = {
RMXScaler = {
height = 60;
width = 60;
};
};
width = 303;
},
{
layerId = "EF8420CB-322A-4DAC-B980-DA6E6912705F";
paths = (
{
closed = 1;
nodes = (
"325 0 LINE",
"325 111 LINE",
"205 111 LINE",
"273 144 OFFCURVE",
"325 230 OFFCURVE",
"325 303 CURVE SMOOTH",
"325 385 OFFCURVE",
"261 433 OFFCURVE",
"160 433 CURVE SMOOTH",
"108 433 OFFCURVE",
"59 420 OFFCURVE",
"21 396 CURVE",
"34 291 LINE",
"72 313 OFFCURVE",
"102 322 OFFCURVE",
"134 322 CURVE SMOOTH",
"171 322 OFFCURVE",
"191 310 OFFCURVE",
"191 283 CURVE SMOOTH",
"191 229 OFFCURVE",
"111 132 OFFCURVE",
"25 83 CURVE",
"25 0 LINE"
);
}
);
userData = {
RMXScaler = {
height = 60;
weight = -40;
width = 60;
};
};
width = 363;
}
);
userData = {
RMXScaler = {
source = two;
};
};
},
{
glyphname = three.dnom;
layers = (
{
layerId = "EF8420CB-322A-4DAC-B980-DA6E6912705F";
paths = (
{
closed = 1;
nodes = (
"265 -7 OFFCURVE",
"344 43 OFFCURVE",
"344 116 CURVE SMOOTH",
"344 166 OFFCURVE",
"307 211 OFFCURVE",
"258 217 CURVE",
"258 219 LINE",
"295 232 OFFCURVE",
"321 275 OFFCURVE",
"321 316 CURVE SMOOTH",
"321 385 OFFCURVE",
"246 433 OFFCURVE",
"153 433 CURVE SMOOTH",
"107 433 OFFCURVE",
"68 421 OFFCURVE",
"34 399 CURVE",
"47 294 LINE",
"73 308 OFFCURVE",
"126 322 OFFCURVE",
"153 322 CURVE SMOOTH",
"174 322 OFFCURVE",
"188 317 OFFCURVE",
"188 300 CURVE SMOOTH",
"188 277 OFFCURVE",
"160 261 OFFCURVE",
"106 261 CURVE",
"106 161 LINE",
"167 161 OFFCURVE",
"211 148 OFFCURVE",
"211 127 CURVE SMOOTH",
"211 114 OFFCURVE",
"194 103 OFFCURVE",
"162 103 CURVE SMOOTH",
"128 103 OFFCURVE",
"67 115 OFFCURVE",
"37 128 CURVE",
"23 23 LINE",
"66 4 OFFCURVE",
"113 -7 OFFCURVE",
"162 -7 CURVE SMOOTH"
);
}
);
userData = {
RMXScaler = {
height = 60;
weight = -40;
width = 60;
};
};
width = 363;
},
{
layerId = "D9DFF065-DDB2-4B0F-A853-E0DAE751FB65";
paths = (
{
closed = 1;
nodes = (
"232 -7 OFFCURVE",
"285 32 OFFCURVE",
"285 100 CURVE SMOOTH",
"285 166 OFFCURVE",
"238 208 OFFCURVE",
"157 214 CURVE",
"157 216 LINE",
"224 223 OFFCURVE",
"264 263 OFFCURVE",
"264 321 CURVE SMOOTH",
"264 385 OFFCURVE",
"213 428 OFFCURVE",
"144 428 CURVE SMOOTH",
"103 428 OFFCURVE",
"63 413 OFFCURVE",
"30 386 CURVE",
"33 370 LINE",
"67 396 OFFCURVE",
"108 409 OFFCURVE",
"144 409 CURVE SMOOTH",
"206 409 OFFCURVE",
"243 371 OFFCURVE",
"243 320 CURVE SMOOTH",
"243 258 OFFCURVE",
"189 223 OFFCURVE",
"98 223 CURVE",
"98 205 LINE",
"205 205 OFFCURVE",
"264 168 OFFCURVE",
"264 100 CURVE SMOOTH",
"264 44 OFFCURVE",
"226 12 OFFCURVE",
"150 12 CURVE SMOOTH",
"104 12 OFFCURVE",
"54 24 OFFCURVE",
"24 45 CURVE",
"21 28 LINE",
"53 7 OFFCURVE",
"101 -7 OFFCURVE",
"150 -7 CURVE SMOOTH"
);
}
);
userData = {
RMXScaler = {
height = 60;
width = 60;
};
};
width = 332;
}
);
userData = {
RMXScaler = {
source = three;
};
};
},
{
glyphname = four.dnom;
layers = (
{
layerId = "EF8420CB-322A-4DAC-B980-DA6E6912705F";
paths = (
{
closed = 1;
nodes = (
"361 76 LINE",
"361 183 LINE",
"115 183 LINE",
"115 186 LINE",
"179 274 LINE",
"182 274 LINE",
"182 0 LINE",
"313 0 LINE",
"313 426 LINE",
"190 426 LINE",
"5 182 LINE",
"5 76 LINE"
);
}
);
userData = {
RMXScaler = {
height = 60;
weight = -40;
width = 60;
};
};
width = 384;
},
{
layerId = "D9DFF065-DDB2-4B0F-A853-E0DAE751FB65";
paths = (
{
closed = 1;
nodes = (
"324 105 LINE",
"324 123 LINE",
"36 123 LINE",
"36 125 LINE",
"217 397 LINE",
"220 397 LINE",
"220 0 LINE",
"240 0 LINE",
"240 420 LINE",
"213 420 LINE",
"15 123 LINE",
"15 105 LINE"
);
}
);
userData = {
RMXScaler = {
height = 60;
width = 60;
};
};
width = 338;
}
);
userData = {
RMXScaler = {
source = four;
};
};
},
{
glyphname = five.dnom;
layers = (
{
layerId = "EF8420CB-322A-4DAC-B980-DA6E6912705F";
paths = (
{
closed = 1;
nodes = (
"293 -7 OFFCURVE",
"363 47 OFFCURVE",
"363 139 CURVE SMOOTH",
"363 219 OFFCURVE",
"311 279 OFFCURVE",
"228 279 CURVE SMOOTH",
"190 279 OFFCURVE",
"144 266 OFFCURVE",
"119 248 CURVE",
"151 155 LINE",
"164 164 OFFCURVE",
"182 169 OFFCURVE",
"196 169 CURVE SMOOTH",
"219 169 OFFCURVE",
"230 154 OFFCURVE",
"230 136 CURVE SMOOTH",
"230 110 OFFCURVE",
"206 103 OFFCURVE",
"173 103 CURVE SMOOTH",
"128 103 OFFCURVE",
"84 116 OFFCURVE",
"53 134 CURVE",
"40 31 LINE",
"76 8 OFFCURVE",
"134 -7 OFFCURVE",
"189 -7 CURVE SMOOTH"
);
},
{
closed = 1;
nodes = (
"151 155 LINE",
"189 244 LINE",
"192 315 LINE",
"330 315 LINE",
"330 426 LINE",
"59 426 LINE",
"55 155 LINE"
);
}
);
userData = {
RMXScaler = {
height = 60;
weight = -40;
width = 60;
};
};
width = 387;
},
{
layerId = "D9DFF065-DDB2-4B0F-A853-E0DAE751FB65";
paths = (
{
closed = 1;
nodes = (
"256 -7 OFFCURVE",
"310 43 OFFCURVE",
"310 122 CURVE SMOOTH",
"310 198 OFFCURVE",
"262 251 OFFCURVE",
"180 251 CURVE SMOOTH",
"145 251 OFFCURVE",
"109 241 OFFCURVE",
"78 220 CURVE",
"79 205 LINE",
"112 223 OFFCURVE",
"145 233 OFFCURVE",
"177 233 CURVE SMOOTH",
"243 233 OFFCURVE",
"289 189 OFFCURVE",
"289 122 CURVE SMOOTH",
"289 56 OFFCURVE",
"245 12 OFFCURVE",
"176 12 CURVE SMOOTH",
"139 12 OFFCURVE",
"91 25 OFFCURVE",
"55 45 CURVE",
"52 29 LINE",
"87 7 OFFCURVE",
"136 -7 OFFCURVE",
"178 -7 CURVE SMOOTH"
);
},
{
closed = 1;
nodes = (
"79 205 LINE",
"83 217 LINE",
"87 402 LINE",
"283 402 LINE",
"283 420 LINE",
"67 420 LINE",
"64 205 LINE"
);
}
);
userData = {
RMXScaler = {
height = 60;
width = 60;
};
};
width = 346;
}
);
userData = {
RMXScaler = {
source = five;
};
};
},
{
glyphname = six.dnom;
layers = (
{
layerId = "D9DFF065-DDB2-4B0F-A853-E0DAE751FB65";
paths = (
{
closed = 1;
nodes = (
"270 -7 OFFCURVE",
"319 46 OFFCURVE",
"319 123 CURVE SMOOTH",
"319 200 OFFCURVE",
"270 253 OFFCURVE",
"198 253 CURVE SMOOTH",
"148 253 OFFCURVE",
"94 227 OFFCURVE",
"63 187 CURVE",
"66 174 LINE",
"94 211 OFFCURVE",
"144 235 OFFCURVE",
"191 235 CURVE SMOOTH",
"255 235 OFFCURVE",
"298 190 OFFCURVE",
"298 123 CURVE SMOOTH",
"298 57 OFFCURVE",
"257 12 OFFCURVE",
"195 12 CURVE SMOOTH",
"119 12 OFFCURVE",
"72 79 OFFCURVE",
"72 196 CURVE SMOOTH",
"72 320 OFFCURVE",
"124 404 OFFCURVE",
"205 404 CURVE SMOOTH",
"233 404 OFFCURVE",
"267 394 OFFCURVE",
"287 379 CURVE",
"289 395 LINE",
"268 412 OFFCURVE",
"233 423 OFFCURVE",
"202 423 CURVE SMOOTH",
"113 423 OFFCURVE",
"51 331 OFFCURVE",
"51 197 CURVE SMOOTH",
"51 71 OFFCURVE",
"107 -7 OFFCURVE",
"196 -7 CURVE SMOOTH"
);
}
);
userData = {
RMXScaler = {
height = 60;
width = 60;
};
};
width = 357;
},
{
layerId = "EF8420CB-322A-4DAC-B980-DA6E6912705F";
paths = (
{
closed = 1;
nodes = (
"297 -7 OFFCURVE",
"363 55 OFFCURVE",
"363 147 CURVE SMOOTH",
"363 232 OFFCURVE",
"311 291 OFFCURVE",
"236 291 CURVE SMOOTH",
"181 291 OFFCURVE",
"130 259 OFFCURVE",
"102 207 CURVE",
"143 146 LINE",
"153 167 OFFCURVE",
"174 181 OFFCURVE",
"197 181 CURVE SMOOTH",
"222 181 OFFCURVE",
"238 164 OFFCURVE",
"238 138 CURVE SMOOTH",
"238 117 OFFCURVE",
"225 103 OFFCURVE",
"204 103 CURVE SMOOTH",
"172 103 OFFCURVE",
"159 131 OFFCURVE",
"159 199 CURVE SMOOTH",
"159 297 OFFCURVE",
"175 324 OFFCURVE",
"231 324 CURVE SMOOTH",
"257 324 OFFCURVE",
"282 317 OFFCURVE",
"304 303 CURVE",
"317 410 LINE",
"289 426 OFFCURVE",
"255 434 OFFCURVE",
"216 434 CURVE SMOOTH",
"98 434 OFFCURVE",
"22 343 OFFCURVE",
"22 203 CURVE SMOOTH",
"22 76 OFFCURVE",
"93 -7 OFFCURVE",
"201 -7 CURVE SMOOTH"
);
}
);
userData = {
RMXScaler = {
height = 60;
weight = -40;
width = 60;
};
};
width = 382;
}
);
userData = {
RMXScaler = {
source = six;
};
};
},
{
glyphname = seven.dnom;
layers = (
{
layerId = "EF8420CB-322A-4DAC-B980-DA6E6912705F";
paths = (
{
closed = 1;
nodes = (
"190 0 LINE",
"309 370 LINE",
"309 426 LINE",
"-7 426 LINE",
"-7 319 LINE",
"170 319 LINE",
"69 0 LINE"
);
}
);
userData = {
RMXScaler = {
height = 60;
weight = -40;
width = 60;
};
};
width = 313;
},
{
layerId = "D9DFF065-DDB2-4B0F-A853-E0DAE751FB65";
paths = (
{
closed = 1;
nodes = (
"120 0 LINE",
"264 408 LINE",
"264 420 LINE",
"-2 420 LINE",
"-2 401 LINE",
"240 401 LINE",
"98 0 LINE"
);
}
);
userData = {
RMXScaler = {
height = 60;
width = 60;
};
};
width = 281;
}
);
userData = {
RMXScaler = {
source = seven;
};
};
},
{
glyphname = eight.dnom;
layers = (
{
layerId = "EF8420CB-322A-4DAC-B980-DA6E6912705F";
paths = (
{
closed = 1;
nodes = (
"289 -7 OFFCURVE",
"352 43 OFFCURVE",
"352 121 CURVE SMOOTH",
"352 255 OFFCURVE",
"159 255 OFFCURVE",
"159 312 CURVE SMOOTH",
"159 327 OFFCURVE",
"176 334 OFFCURVE",
"192 334 CURVE SMOOTH",
"204 334 OFFCURVE",
"223 332 OFFCURVE",
"223 309 CURVE SMOOTH",
"223 288 OFFCURVE",
"206 265 OFFCURVE",
"183 264 CURVE",
"266 221 LINE",
"313 240 OFFCURVE",
"337 277 OFFCURVE",
"337 320 CURVE SMOOTH",
"337 385 OFFCURVE",
"282 433 OFFCURVE",
"194 433 CURVE SMOOTH",
"103 433 OFFCURVE",
"40 382 OFFCURVE",
"40 305 CURVE SMOOTH",
"40 170 OFFCURVE",
"233 175 OFFCURVE",
"233 116 CURVE SMOOTH",
"233 101 OFFCURVE",
"218 92 OFFCURVE",
"193 92 CURVE SMOOTH",
"179 92 OFFCURVE",
"144 93 OFFCURVE",
"144 124 CURVE SMOOTH",
"144 148 OFFCURVE",
"165 174 OFFCURVE",
"189 174 CURVE",
"119 218 LINE",
"61 206 OFFCURVE",
"25 163 OFFCURVE",
"25 112 CURVE SMOOTH",
"25 40 OFFCURVE",
"97 -7 OFFCURVE",
"192 -7 CURVE SMOOTH"
);
}
);
userData = {
RMXScaler = {
height = 60;
weight = -50;
width = 60;
};
};
width = 378;
},
{
layerId = "D9DFF065-DDB2-4B0F-A853-E0DAE751FB65";
paths = (
{
closed = 1;
nodes = (
"271 -7 OFFCURVE",
"324 38 OFFCURVE",
"324 106 CURVE SMOOTH",
"324 251 OFFCURVE",
"84 181 OFFCURVE",
"84 314 CURVE SMOOTH",
"84 368 OFFCURVE",
"124 404 OFFCURVE",
"184 404 CURVE SMOOTH",
"243 404 OFFCURVE",
"282 369 OFFCURVE",
"282 320 CURVE SMOOTH",
"282 268 OFFCURVE",
"239 231 OFFCURVE",
"185 219 CURVE",
"205 211 LINE",
"257 224 OFFCURVE",
"303 262 OFFCURVE",
"303 320 CURVE SMOOTH",
"303 379 OFFCURVE",
"255 423 OFFCURVE",
"184 423 CURVE SMOOTH",
"112 423 OFFCURVE",
"63 378 OFFCURVE",
"63 312 CURVE SMOOTH",
"63 165 OFFCURVE",
"304 236 OFFCURVE",
"304 105 CURVE SMOOTH",
"304 49 OFFCURVE",
"259 12 OFFCURVE",
"189 12 CURVE SMOOTH",
"120 12 OFFCURVE",
"71 49 OFFCURVE",
"71 103 CURVE SMOOTH",
"71 152 OFFCURVE",
"110 195 OFFCURVE",
"186 206 CURVE",
"169 216 LINE",
"101 209 OFFCURVE",
"51 163 OFFCURVE",
"51 102 CURVE SMOOTH",
"51 38 OFFCURVE",
"107 -7 OFFCURVE",
"189 -7 CURVE SMOOTH"
);
}
);
userData = {
RMXScaler = {
height = 60;
width = 60;
};
};
width = 371;
}
);
userData = {
RMXScaler = {
source = eight;
};
};
},
{
glyphname = fraction;
layers = (
{
layerId = "D9DFF065-DDB2-4B0F-A853-E0DAE751FB65";
paths = (
{
closed = 1;
nodes = (
"-130 0 LINE",
"-109 0 LINE",
"342 700 LINE",
"321 700 LINE"
);
}
);
width = 212;
},
{
layerId = "EF8420CB-322A-4DAC-B980-DA6E6912705F";
paths = (
{
closed = 1;
nodes = (
"-88 0 LINE",
"54 0 LINE",
"351 707 LINE",
"211 707 LINE"
);
}
);
width = 263;
}
);
unicode = 2044;
},
{
glyphname = asterisk;
layers = (
{
layerId = "EF8420CB-322A-4DAC-B980-DA6E6912705F";
paths = (
{
closed = 1;
nodes = (
"95 634 LINE",
"42 494 LINE",
"311 412 LINE",
"347 520 LINE"
);
},
{
closed = 1;
nodes = (
"506 494 LINE",
"455 635 LINE",
"203 522 LINE",
"237 412 LINE"
);
},
{
closed = 1;
nodes = (
"76 366 LINE",
"189 269 LINE",
"356 496 LINE",
"267 567 LINE"
);
},
{
closed = 1;
nodes = (
"349 707 LINE",
"199 707 LINE",
"218 429 LINE",
"330 429 LINE"
);
},
{
closed = 1;
nodes = (
"359 268 LINE",
"472 367 LINE",
"283 568 LINE",
"194 497 LINE"
);
}
);
width = 549;
},
{
layerId = "D9DFF065-DDB2-4B0F-A853-E0DAE751FB65";
paths = (
{
closed = 1;
nodes = (
"92 608 LINE",
"83 584 LINE",
"242 529 LINE",
"247 544 LINE"
);
},
{
closed = 1;
nodes = (
"392 584 LINE",
"383 609 LINE",
"227 545 LINE",
"232 529 LINE"
);
},
{
closed = 1;
nodes = (
"133 417 LINE",
"153 402 LINE",
"249 541 LINE",
"236 550 LINE"
);
},
{
closed = 1;
nodes = (
"250 700 LINE",
"224 700 LINE",
"229 532 LINE",
"245 532 LINE"
);
},
{
closed = 1;
nodes = (
"321 402 LINE",
"342 418 LINE",
"240 551 LINE",
"227 542 LINE"
);
}
);
width = 475;
}
);
unicode = 002A;
},
{
glyphname = bullet;
layers = (
{
layerId = "EF8420CB-322A-4DAC-B980-DA6E6912705F";
paths = (
{
closed = 1;
nodes = (
"310 150 OFFCURVE",
"373 216 OFFCURVE",
"373 303 CURVE SMOOTH",
"373 390 OFFCURVE",
"310 458 OFFCURVE",
"220 458 CURVE SMOOTH",
"130 458 OFFCURVE",
"67 390 OFFCURVE",
"67 303 CURVE SMOOTH",
"67 216 OFFCURVE",
"130 150 OFFCURVE",
"220 150 CURVE SMOOTH"
);
}
);
width = 440;
},
{
layerId = "D9DFF065-DDB2-4B0F-A853-E0DAE751FB65";
paths = (
{
closed = 1;
nodes = (
"177 308 OFFCURVE",
"188 319 OFFCURVE",
"188 336 CURVE SMOOTH",
"188 353 OFFCURVE",
"177 364 OFFCURVE",
"160 364 CURVE SMOOTH",
"143 364 OFFCURVE",
"132 353 OFFCURVE",
"132 336 CURVE SMOOTH",
"132 319 OFFCURVE",
"143 308 OFFCURVE",
"160 308 CURVE SMOOTH"
);
}
);
width = 320;
}
);
unicode = 2022;
},
{
glyphname = exclam;
layers = (
{
components = (
{
name = _period;
transform = "{1, 0, 0, 1, 4, 0}";
}
);
layerId = "EF8420CB-322A-4DAC-B980-DA6E6912705F";
paths = (
{
closed = 1;
nodes = (
"249 272 LINE",
"274 707 LINE",
"71 707 LINE",
"96 272 LINE"
);
}
);
width = 349;
},
{
components = (
{
name = _period;
transform = "{1, 0, 0, 1, -3, 0}";
}
);
layerId = "D9DFF065-DDB2-4B0F-A853-E0DAE751FB65";
paths = (
{
closed = 1;
nodes = (
"156 154 LINE",
"160 700 LINE",
"137 700 LINE",
"141 154 LINE"
);
}
);
width = 297;
}
);
unicode = 0021;
},
{
glyphname = numbersign;
layers = (
{
layerId = "EF8420CB-322A-4DAC-B980-DA6E6912705F";
paths = (
{
closed = 1;
nodes = (
"145 0 LINE",
"321 0 LINE",
"321 707 LINE",
"145 707 LINE"
);
},
{
closed = 1;
nodes = (
"408 0 LINE",
"581 0 LINE",
"581 707 LINE",
"408 707 LINE"
);
},
{
closed = 1;
nodes = (
"63 419 LINE",
"664 419 LINE",
"664 559 LINE",
"63 559 LINE"
);
},
{
closed = 1;
nodes = (
"63 148 LINE",
"664 148 LINE",
"664 288 LINE",
"63 288 LINE"
);
}
);
width = 727;
},
{
layerId = "D9DFF065-DDB2-4B0F-A853-E0DAE751FB65";
paths = (
{
closed = 1;
nodes = (
"232 0 LINE",
"252 0 LINE",
"252 700 LINE",
"232 700 LINE"
);
},
{
closed = 1;
nodes = (
"493 0 LINE",
"513 0 LINE",
"513 700 LINE",
"493 700 LINE"
);
},
{
closed = 1;
nodes = (
"72 473 LINE",
"673 473 LINE",
"673 492 LINE",
"72 492 LINE"
);
},
{
closed = 1;
nodes = (
"72 208 LINE",
"673 208 LINE",
"673 227 LINE",
"72 227 LINE"
);
}
);
width = 745;
}
);
unicode = 0023;
},
{
glyphname = question;
layers = (
{
components = (
{
name = _period;
transform = "{1, 0, 0, 1, 45, 0}";
}
);
layerId = "EF8420CB-322A-4DAC-B980-DA6E6912705F";
paths = (
{
closed = 1;
nodes = (
"292 252 LINE",
"292 372 OFFCURVE",
"455 416 OFFCURVE",
"455 553 CURVE SMOOTH",
"455 656 OFFCURVE",
"363 719 OFFCURVE",
"213 719 CURVE SMOOTH",
"147 719 OFFCURVE",
"75 702 OFFCURVE",
"20 674 CURVE",
"47 537 LINE",
"82 561 OFFCURVE",
"128 575 OFFCURVE",
"172 575 CURVE SMOOTH",
"229 575 OFFCURVE",
"266 552 OFFCURVE",
"266 515 CURVE SMOOTH",
"266 447 OFFCURVE",
"138 416 OFFCURVE",
"138 252 CURVE"
);
}
);
width = 481;
},
{
components = (
{
name = _period;
transform = "{1, 0, 0, 1, 88, 0}";
}
);
layerId = "D9DFF065-DDB2-4B0F-A853-E0DAE751FB65";
paths = (
{
closed = 1;
nodes = (
"243 154 LINE",
"243 371 OFFCURVE",
"420 391 OFFCURVE",
"420 545 CURVE SMOOTH",
"420 644 OFFCURVE",
"348 712 OFFCURVE",
"238 712 CURVE SMOOTH",
"185 712 OFFCURVE",
"121 696 OFFCURVE",
"55 664 CURVE",
"61 647 LINE",
"115 675 OFFCURVE",
"180 692 OFFCURVE",
"233 692 CURVE SMOOTH",
"334 692 OFFCURVE",
"399 632 OFFCURVE",
"399 546 CURVE SMOOTH",
"399 405 OFFCURVE",
"224 376 OFFCURVE",
"224 154 CURVE"
);
}
);
width = 493;
}
);
unicode = 003F;
},
{
glyphname = slash;
layers = (
{
layerId = "EF8420CB-322A-4DAC-B980-DA6E6912705F";
paths = (
{
closed = 1;
nodes = (
"-11 -160 LINE",
"152 -160 LINE",
"393 741 LINE",
"230 741 LINE"
);
}
);
width = 382;
},
{
layerId = "D9DFF065-DDB2-4B0F-A853-E0DAE751FB65";
paths = (
{
closed = 1;
nodes = (
"25 -83 LINE",
"45 -83 LINE",
"254 730 LINE",
"234 730 LINE"
);
}
);
width = 279;
}
);
unicode = 002F;
},
{
glyphname = underscore;
layers = (
{
layerId = "EF8420CB-322A-4DAC-B980-DA6E6912705F";
paths = (
{
closed = 1;
nodes = (
"95 0 LINE",
"489 0 LINE",
"489 140 LINE",
"95 140 LINE"
);
}
);
width = 584;
},
{
layerId = "D9DFF065-DDB2-4B0F-A853-E0DAE751FB65";
paths = (
{
closed = 1;
nodes = (
"137 0 LINE",
"531 0 LINE",
"531 19 LINE",
"137 19 LINE"
);
}
);
width = 668;
}
);
unicode = 005F;
},
{
glyphname = periodcentered.loclCAT;
layers = (
{
layerId = "D9DFF065-DDB2-4B0F-A853-E0DAE751FB65";
paths = (
{
closed = 1;
nodes = (
"178 313 OFFCURVE",
"190 325 OFFCURVE",
"190 342 CURVE SMOOTH",
"190 359 OFFCURVE",
"178 371 OFFCURVE",
"161 371 CURVE SMOOTH",
"144 371 OFFCURVE",
"132 359 OFFCURVE",
"132 342 CURVE SMOOTH",
"132 325 OFFCURVE",
"144 313 OFFCURVE",
"161 313 CURVE SMOOTH"
);
}
);
width = 322;
},
{
layerId = "EF8420CB-322A-4DAC-B980-DA6E6912705F";
paths = (
{
closed = 1;
nodes = (
"217 285 OFFCURVE",
"253 323 OFFCURVE",
"253 372 CURVE SMOOTH",
"253 421 OFFCURVE",
"217 460 OFFCURVE",
"166 460 CURVE SMOOTH",
"115 460 OFFCURVE",
"79 421 OFFCURVE",
"79 372 CURVE SMOOTH",
"79 323 OFFCURVE",
"115 285 OFFCURVE",
"166 285 CURVE SMOOTH"
);
}
);
width = 332;
}
);
},
{
glyphname = braceleft;
layers = (
{
layerId = "D9DFF065-DDB2-4B0F-A853-E0DAE751FB65";
paths = (
{
closed = 1;
nodes = (
"298 -150 LINE",
"225 -126 OFFCURVE",
"175 -59 OFFCURVE",
"175 15 CURVE SMOOTH",
"175 111 LINE SMOOTH",
"175 182 OFFCURVE",
"128 247 OFFCURVE",
"58 275 CURVE",
"58 276 LINE",
"128 304 OFFCURVE",
"175 367 OFFCURVE",
"175 435 CURVE SMOOTH",
"175 536 LINE SMOOTH",
"175 610 OFFCURVE",
"225 677 OFFCURVE",
"298 701 CURVE",
"292 718 LINE",
"211 691 OFFCURVE",
"156 618 OFFCURVE",
"156 536 CURVE SMOOTH",
"156 435 LINE SMOOTH",
"156 368 OFFCURVE",
"109 311 OFFCURVE",
"36 289 CURVE",
"36 263 LINE",
"108 241 OFFCURVE",
"156 181 OFFCURVE",
"156 111 CURVE SMOOTH",
"156 15 LINE SMOOTH",
"156 -67 OFFCURVE",
"211 -140 OFFCURVE",
"292 -167 CURVE"
);
}
);
width = 334;
},
{
layerId = "EF8420CB-322A-4DAC-B980-DA6E6912705F";
paths = (
{
closed = 1;
nodes = (
"359 -59 LINE",
"315 -48 OFFCURVE",
"286 -18 OFFCURVE",
"286 15 CURVE SMOOTH",
"286 111 LINE SMOOTH",
"286 182 OFFCURVE",
"239 247 OFFCURVE",
"169 275 CURVE",
"169 276 LINE",
"239 304 OFFCURVE",
"286 367 OFFCURVE",
"286 435 CURVE SMOOTH",
"286 536 LINE SMOOTH",
"286 573 OFFCURVE",
"315 605 OFFCURVE",
"359 616 CURVE",
"302 728 LINE",
"182 694 OFFCURVE",
"116 626 OFFCURVE",
"116 536 CURVE SMOOTH",
"116 435 LINE SMOOTH",
"116 369 OFFCURVE",
"68 311 OFFCURVE",
"-4 289 CURVE",
"-4 263 LINE",
"68 241 OFFCURVE",
"116 181 OFFCURVE",
"116 111 CURVE SMOOTH",
"116 15 LINE SMOOTH",
"116 -80 OFFCURVE",
"187 -153 OFFCURVE",
"302 -177 CURVE"
);
}
);
width = 379;
}
);
unicode = 007B;
},
{
glyphname = bracketleft;
layers = (
{
layerId = "D9DFF065-DDB2-4B0F-A853-E0DAE751FB65";
paths = (
{
closed = 1;
nodes = (
"281 -182 LINE",
"281 -163 LINE",
"136 -163 LINE",
"136 699 LINE",
"281 699 LINE",
"281 718 LINE",
"117 718 LINE",
"117 -182 LINE"
);
}
);
width = 317;
},
{
layerId = "EF8420CB-322A-4DAC-B980-DA6E6912705F";
paths = (
{
closed = 1;
nodes = (
"398 -178 LINE",
"398 -38 LINE",
"254 -38 LINE",
"254 579 LINE",
"398 579 LINE",
"398 719 LINE",
"81 719 LINE",
"81 -178 LINE"
);
}
);
width = 422;
}
);
unicode = 005B;
},
{
glyphname = parenleft;
layers = (
{
layerId = "D9DFF065-DDB2-4B0F-A853-E0DAE751FB65";
paths = (
{
closed = 1;
nodes = (
"224 -151 LINE",
"135 4 OFFCURVE",
"99 128 OFFCURVE",
"99 284 CURVE SMOOTH",
"99 430 OFFCURVE",
"134 551 OFFCURVE",
"222 708 CURVE",
"207 718 LINE",
"115 559 OFFCURVE",
"78 435 OFFCURVE",
"78 284 CURVE SMOOTH",
"78 126 OFFCURVE",
"115 -1 OFFCURVE",
"209 -161 CURVE"
);
}
);
width = 269;
},
{
layerId = "EF8420CB-322A-4DAC-B980-DA6E6912705F";
paths = (
{
closed = 1;
nodes = (
"307 -140 LINE",
"240 -33 OFFCURVE",
"200 118 OFFCURVE",
"200 262 CURVE SMOOTH",
"200 404 OFFCURVE",
"240 553 OFFCURVE",
"307 666 CURVE",
"187 728 LINE",
"71 534 OFFCURVE",
"36 427 OFFCURVE",
"36 264 CURVE SMOOTH",
"36 102 OFFCURVE",
"71 -5 OFFCURVE",
"187 -206 CURVE"
);
}
);
width = 323;
}
);
unicode = 0028;
},
{
glyphname = emdash;
layers = (
{
layerId = "EF8420CB-322A-4DAC-B980-DA6E6912705F";
paths = (
{
closed = 1;
nodes = (
"968 193 LINE",
"968 333 LINE",
"68 333 LINE",
"68 193 LINE"
);
}
);
width = 1036;
},
{
layerId = "D9DFF065-DDB2-4B0F-A853-E0DAE751FB65";
paths = (
{
closed = 1;
nodes = (
"998 253 LINE",
"998 272 LINE",
"98 272 LINE",
"98 253 LINE"
);
}
);
width = 1096;
}
);
unicode = 2014;
},
{
glyphname = endash;
layers = (
{
layerId = "EF8420CB-322A-4DAC-B980-DA6E6912705F";
paths = (
{
closed = 1;
nodes = (
"468 193 LINE",
"468 333 LINE",
"68 333 LINE",
"68 193 LINE"
);
}
);
width = 536;
},
{
layerId = "D9DFF065-DDB2-4B0F-A853-E0DAE751FB65";
paths = (
{
closed = 1;
nodes = (
"498 253 LINE",
"498 272 LINE",
"98 272 LINE",
"98 253 LINE"
);
}
);
width = 596;
}
);
unicode = 2013;
},
{
glyphname = figuredash;
layers = (
{
layerId = "EF8420CB-322A-4DAC-B980-DA6E6912705F";
paths = (
{
closed = 1;
nodes = (
"546 193 LINE",
"546 333 LINE",
"68 333 LINE",
"68 193 LINE"
);
}
);
width = 614;
},
{
layerId = "D9DFF065-DDB2-4B0F-A853-E0DAE751FB65";
paths = (
{
closed = 1;
nodes = (
"506 253 LINE",
"506 272 LINE",
"98 272 LINE",
"98 253 LINE"
);
}
);
width = 604;
}
);
unicode = 2012;
},
{
glyphname = hyphen;
layers = (
{
layerId = "EF8420CB-322A-4DAC-B980-DA6E6912705F";
paths = (
{
closed = 1;
nodes = (
"358 193 LINE",
"358 333 LINE",
"68 333 LINE",
"68 193 LINE"
);
}
);
width = 426;
},
{
layerId = "D9DFF065-DDB2-4B0F-A853-E0DAE751FB65";
paths = (
{
closed = 1;
nodes = (
"388 253 LINE",
"388 272 LINE",
"98 272 LINE",
"98 253 LINE"
);
}
);
width = 486;
}
);
unicode = 002D;
},
{
glyphname = hyphentwo;
layers = (
{
layerId = "EF8420CB-322A-4DAC-B980-DA6E6912705F";
paths = (
{
closed = 1;
nodes = (
"268 193 LINE",
"268 333 LINE",
"68 333 LINE",
"68 193 LINE"
);
}
);
width = 336;
},
{
layerId = "D9DFF065-DDB2-4B0F-A853-E0DAE751FB65";
paths = (
{
closed = 1;
nodes = (
"298 253 LINE",
"298 272 LINE",
"98 272 LINE",
"98 253 LINE"
);
}
);
width = 396;
}
);
unicode = 2010;
},
{
glyphname = guilsinglleft;
layers = (
{
layerId = "EF8420CB-322A-4DAC-B980-DA6E6912705F";
paths = (
{
closed = 1;
nodes = (
"320 74 LINE",
"191 258 LINE",
"191 261 LINE",
"320 444 LINE",
"151 444 LINE",
"21 260 LINE",
"151 74 LINE"
);
}
);
width = 340;
},
{
layerId = "D9DFF065-DDB2-4B0F-A853-E0DAE751FB65";
paths = (
{
closed = 1;
nodes = (
"206 74 LINE",
"83 250 LINE",
"83 253 LINE",
"206 430 LINE",
"184 430 LINE",
"60 252 LINE",
"184 74 LINE"
);
}
);
width = 265;
}
);
unicode = 2039;
},
{
glyphname = quoteleft;
layers = (
{
layerId = "EF8420CB-322A-4DAC-B980-DA6E6912705F";
paths = (
{
closed = 1;
nodes = (
"107 721 OFFCURVE",
"44 616 OFFCURVE",
"44 529 CURVE SMOOTH",
"44 459 OFFCURVE",
"84 414 OFFCURVE",
"146 414 CURVE SMOOTH",
"203 414 OFFCURVE",
"242 451 OFFCURVE",
"242 508 CURVE SMOOTH",
"242 561 OFFCURVE",
"209 603 OFFCURVE",
"166 603 CURVE",
"166 652 OFFCURVE",
"198 708 OFFCURVE",
"252 754 CURVE",
"202 789 LINE"
);
}
);
width = 297;
},
{
layerId = "D9DFF065-DDB2-4B0F-A853-E0DAE751FB65";
paths = (
{
closed = 1;
nodes = (
"126 686 OFFCURVE",
"102 613 OFFCURVE",
"102 560 CURVE SMOOTH",
"102 532 OFFCURVE",
"108 519 OFFCURVE",
"123 519 CURVE SMOOTH",
"135 519 OFFCURVE",
"144 529 OFFCURVE",
"144 542 CURVE SMOOTH",
"144 556 OFFCURVE",
"135 564 OFFCURVE",
"121 564 CURVE",
"121 620 OFFCURVE",
"138 684 OFFCURVE",
"163 723 CURVE",
"158 730 LINE"
);
}
);
width = 255;
}
);
unicode = 2018;
},
{
glyphname = cedi;
layers = (
{
components = (
{
name = _currency_C;
transform = "{1, 0, 0, 1, -57, 0}";
}
);
layerId = "D9DFF065-DDB2-4B0F-A853-E0DAE751FB65";
paths = (
{
closed = 1;
nodes = (
"322 -116 LINE",
"342 -116 LINE",
"342 821 LINE",
"322 821 LINE"
);
}
);
userData = {
RMXScaler = {
width = 90;
};
};
width = 630;
},
{
components = (
{
name = _currency_C;
transform = "{1, 0, 0, 1, -54, 0}";
}
);
layerId = "EF8420CB-322A-4DAC-B980-DA6E6912705F";
paths = (
{
closed = 1;
nodes = (
"309 -116 LINE",
"420 -116 LINE",
"420 821 LINE",
"309 821 LINE"
);
}
);
userData = {
RMXScaler = {
width = 90;
};
};
width = 591;
}
);
unicode = 20B5;
userData = {
RMXScaler = {
source = C;
};
};
},
{
glyphname = currency;
layers = (
{
layerId = "D9DFF065-DDB2-4B0F-A853-E0DAE751FB65";
paths = (
{
closed = 1;
nodes = (
"218 514 OFFCURVE",
"148 441 OFFCURVE",
"148 331 CURVE SMOOTH",
"148 221 OFFCURVE",
"218 147 OFFCURVE",
"324 147 CURVE SMOOTH",
"430 147 OFFCURVE",
"500 221 OFFCURVE",
"500 331 CURVE SMOOTH",
"500 441 OFFCURVE",
"430 514 OFFCURVE",
"324 514 CURVE SMOOTH"
);
},
{
closed = 1;
nodes = (
"221 198 LINE",
"208 211 LINE",
"112 116 LINE",
"125 103 LINE"
);
},
{
closed = 1;
nodes = (
"537 116 LINE",
"441 211 LINE",
"428 198 LINE",
"524 103 LINE"
);
},
{
closed = 1;
nodes = (
"112 543 LINE",
"208 448 LINE",
"221 461 LINE",
"125 556 LINE"
);
},
{
closed = 1;
nodes = (
"427 461 LINE",
"440 448 LINE",
"536 543 LINE",
"523 556 LINE"
);
},
{
closed = 1;
nodes = (
"418 497 OFFCURVE",
"480 430 OFFCURVE",
"480 330 CURVE SMOOTH",
"480 230 OFFCURVE",
"418 164 OFFCURVE",
"324 164 CURVE SMOOTH",
"230 164 OFFCURVE",
"168 230 OFFCURVE",
"168 330 CURVE SMOOTH",
"168 430 OFFCURVE",
"230 497 OFFCURVE",
"324 497 CURVE SMOOTH"
);
}
);
width = 649;
},
{
layerId = "EF8420CB-322A-4DAC-B980-DA6E6912705F";
paths = (
{
closed = 1;
nodes = (
"199 564 OFFCURVE",
"109 475 OFFCURVE",
"109 342 CURVE SMOOTH",
"109 209 OFFCURVE",
"199 120 OFFCURVE",
"335 120 CURVE SMOOTH",
"471 120 OFFCURVE",
"561 209 OFFCURVE",
"561 342 CURVE SMOOTH",
"561 475 OFFCURVE",
"471 564 OFFCURVE",
"335 564 CURVE SMOOTH"
);
},
{
closed = 1;
nodes = (
"231 156 LINE",
"151 237 LINE",
"64 151 LINE",
"143 72 LINE"
);
},
{
closed = 1;
nodes = (
"605 151 LINE",
"519 236 LINE",
"440 156 LINE",
"526 72 LINE"
);
},
{
closed = 1;
nodes = (
"64 534 LINE",
"149 447 LINE",
"231 526 LINE",
"143 613 LINE"
);
},
{
closed = 1;
nodes = (
"440 526 LINE",
"520 448 LINE",
"605 534 LINE",
"526 613 LINE"
);
},
{
closed = 1;
nodes = (
"384 435 OFFCURVE",
"417 398 OFFCURVE",
"417 342 CURVE SMOOTH",
"417 285 OFFCURVE",
"384 247 OFFCURVE",
"335 247 CURVE SMOOTH",
"286 247 OFFCURVE",
"253 285 OFFCURVE",
"253 342 CURVE SMOOTH",
"253 398 OFFCURVE",
"286 435 OFFCURVE",
"335 435 CURVE SMOOTH"
);
}
);
width = 670;
}
);
unicode = 00A4;
},
{
glyphname = dollar;
layers = (
{
anchors = (
{
name = bottom;
position = "{301, 0}";
},
{
name = top;
position = "{312, 700}";
}
);
components = (
{
name = _dollarstem;
transform = "{1, 0, 0, 1, 8, 0}";
},
{
name = _dollarstem;
transform = "{1, 0, 0, 1, 8, 833}";
}
);
layerId = "D9DFF065-DDB2-4B0F-A853-E0DAE751FB65";
paths = (
{
closed = 1;
nodes = (
"436 -12 OFFCURVE",
"528 64 OFFCURVE",
"528 179 CURVE SMOOTH",
"528 421 OFFCURVE",
"114 317 OFFCURVE",
"114 531 CURVE SMOOTH",
"114 629 OFFCURVE",
"200 690 OFFCURVE",
"317 690 CURVE SMOOTH",
"373 690 OFFCURVE",
"432 676 OFFCURVE",
"488 653 CURVE",
"493 672 LINE",
"432 697 OFFCURVE",
"373 711 OFFCURVE",
"316 711 CURVE SMOOTH",
"185 711 OFFCURVE",
"92 638 OFFCURVE",
"92 529 CURVE SMOOTH",
"92 298 OFFCURVE",
"506 397 OFFCURVE",
"506 176 CURVE SMOOTH",
"506 77 OFFCURVE",
"423 9 OFFCURVE",
"292 9 CURVE SMOOTH",
"231 9 OFFCURVE",
"160 24 OFFCURVE",
"103 47 CURVE",
"98 28 LINE",
"160 3 OFFCURVE",
"228 -12 OFFCURVE",
"292 -12 CURVE SMOOTH"
);
}
);
userData = {
RMXScaler = {
width = 90;
};
};
width = 616;
},
{
anchors = (
{
name = bottom;
position = "{303, 0}";
},
{
name = top;
position = "{286, 706}";
}
);
components = (
{
name = _dollarstem;
transform = "{1, 0, 0, 1, 4, 0}";
},
{
name = _dollarstem;
transform = "{1, 0, 0, 1, -16, 810}";
}
);
layerId = "EF8420CB-322A-4DAC-B980-DA6E6912705F";
paths = (
{
closed = 1;
nodes = (
"463 -12 OFFCURVE",
"559 65 OFFCURVE",
"559 210 CURVE SMOOTH",
"559 485 OFFCURVE",
"211 387 OFFCURVE",
"211 506 CURVE SMOOTH",
"211 542 OFFCURVE",
"242 571 OFFCURVE",
"320 571 CURVE SMOOTH",
"374 571 OFFCURVE",
"440 557 OFFCURVE",
"483 539 CURVE",
"516 675 LINE",
"458 701 OFFCURVE",
"392 718 OFFCURVE",
"318 718 CURVE SMOOTH",
"161 718 OFFCURVE",
"51 641 OFFCURVE",
"51 493 CURVE SMOOTH",
"51 228 OFFCURVE",
"400 335 OFFCURVE",
"400 207 CURVE SMOOTH",
"400 165 OFFCURVE",
"364 135 OFFCURVE",
"282 135 CURVE SMOOTH",
"224 135 OFFCURVE",
"154 150 OFFCURVE",
"96 172 CURVE",
"63 35 LINE",
"125 7 OFFCURVE",
"205 -12 OFFCURVE",
"291 -12 CURVE SMOOTH"
);
}
);
userData = {
RMXScaler = {
weight = -20;
width = 90;
};
};
width = 604;
}
);
unicode = 0024;
userData = {
RMXScaler = {
source = S;
};
};
},
{
glyphname = dong;
layers = (
{
components = (
{
name = strokeshortcomb;
transform = "{1, 0, 0, 1, 201, 302}";
},
{
name = strokeshortcomb;
transform = "{1.4, 0, 0, 1, -3, -290}";
}
);
layerId = "D9DFF065-DDB2-4B0F-A853-E0DAE751FB65";
paths = (
{
closed = 1;
nodes = (
"462 125 LINE",
"462 700 LINE",
"442 700 LINE",
"442 185 LINE",
"447 125 LINE"
);
},
{
closed = 1;
nodes = (
"350 116 OFFCURVE",
"397 136 OFFCURVE",
"443 177 CURVE",
"442 193 LINE",
"403 155 OFFCURVE",
"353 135 OFFCURVE",
"300 135 CURVE SMOOTH",
"196 135 OFFCURVE",
"123 211 OFFCURVE",
"123 315 CURVE SMOOTH",
"123 419 OFFCURVE",
"197 494 OFFCURVE",
"296 494 CURVE SMOOTH",
"351 494 OFFCURVE",
"406 471 OFFCURVE",
"442 434 CURVE",
"444 448 LINE",
"405 490 OFFCURVE",
"352 513 OFFCURVE",
"294 513 CURVE SMOOTH",
"183 513 OFFCURVE",
"102 429 OFFCURVE",
"102 315 CURVE SMOOTH",
"102 199 OFFCURVE",
"185 116 OFFCURVE",
"296 116 CURVE SMOOTH"
);
}
);
userData = {
RMXScaler = {
height = 80;
verticalShift = 125;
width = 90;
};
};
width = 629;
},
{
components = (
{
name = strokeshortcomb;
transform = "{1, 0, 0, 0.8, 123, 362}";
},
{
name = strokeshortcomb;
transform = "{1.1, 0, 0, 0.8, 24, -206}";
}
);
layerId = "EF8420CB-322A-4DAC-B980-DA6E6912705F";
paths = (
{
closed = 1;
nodes = (
"482 124 LINE",
"482 707 LINE",
"329 707 LINE",
"329 224 LINE",
"354 124 LINE"
);
},
{
closed = 1;
nodes = (
"276 124 OFFCURVE",
"312 143 OFFCURVE",
"351 186 CURVE",
"336 298 LINE",
"318 271 OFFCURVE",
"290 252 OFFCURVE",
"267 252 CURVE SMOOTH",
"237 252 OFFCURVE",
"216 285 OFFCURVE",
"216 334 CURVE SMOOTH",
"216 382 OFFCURVE",
"236 415 OFFCURVE",
"267 415 CURVE SMOOTH",
"295 415 OFFCURVE",
"324 387 OFFCURVE",
"336 349 CURVE",
"351 463 LINE",
"322 519 OFFCURVE",
"285 544 OFFCURVE",
"231 544 CURVE SMOOTH",
"130 544 OFFCURVE",
"60 456 OFFCURVE",
"60 335 CURVE SMOOTH",
"60 212 OFFCURVE",
"132 124 OFFCURVE",
"230 124 CURVE SMOOTH"
);
}
);
userData = {
RMXScaler = {
height = 80;
verticalShift = 124;
weight = -20;
width = 80;
};
};
width = 603;
}
);
unicode = 20AB;
userData = {
RMXScaler = {
source = d;
};
};
},
{
glyphname = florin;
layers = (
{
components = (
{
alignment = -1;
name = f;
transform = "{1, 0, 0, 1, 121, 0}";
}
);
layerId = "D9DFF065-DDB2-4B0F-A853-E0DAE751FB65";
paths = (
{
closed = 1;
nodes = (
"209 -230 OFFCURVE",
"250 -185 OFFCURVE",
"250 -112 CURVE SMOOTH",
"250 0 LINE",
"230 0 LINE",
"230 -112 LINE SMOOTH",
"230 -173 OFFCURVE",
"196 -210 OFFCURVE",
"140 -210 CURVE SMOOTH",
"119 -210 OFFCURVE",
"95 -205 OFFCURVE",
"75 -196 CURVE",
"70 -212 LINE",
"94 -224 OFFCURVE",
"118 -230 OFFCURVE",
"142 -230 CURVE SMOOTH"
);
}
);
width = 488;
},
{
components = (
{
alignment = -1;
name = f;
transform = "{1, 0, 0, 1, 98, 0}";
}
);
layerId = "EF8420CB-322A-4DAC-B980-DA6E6912705F";
paths = (
{
closed = 1;
nodes = (
"277 -230 OFFCURVE",
"353 -146 OFFCURVE",
"353 -18 CURVE SMOOTH",
"353 0 LINE",
"180 0 LINE",
"180 -8 LINE",
"180 -54 OFFCURVE",
"150 -84 OFFCURVE",
"108 -84 CURVE SMOOTH",
"92 -84 OFFCURVE",
"72 -80 OFFCURVE",
"53 -75 CURVE",
"26 -207 LINE",
"65 -221 OFFCURVE",
"119 -230 OFFCURVE",
"158 -230 CURVE SMOOTH"
);
}
);
width = 557;
}
);
unicode = 0192;
},
{
glyphname = franc;
layers = (
{
components = (
{
name = strokeshortcomb;
transform = "{1, 0, 0, 1, 9, -127}";
}
);
layerId = "D9DFF065-DDB2-4B0F-A853-E0DAE751FB65";
paths = (
{
closed = 1;
nodes = (
"183 0 LINE",
"183 680 LINE",
"517 680 LINE",
"517 700 LINE",
"162 700 LINE",
"162 0 LINE"
);
},
{
closed = 1;
nodes = (
"491 334 LINE",
"491 354 LINE",
"178 354 LINE",
"178 334 LINE"
);
}
);
width = 596;
},
{
components = (
{
name = strokeshortcomb;
transform = "{1, 0, 0, 1, 6, -170}";
}
);
layerId = "EF8420CB-322A-4DAC-B980-DA6E6912705F";
paths = (
{
closed = 1;
nodes = (
"296 0 LINE",
"296 545 LINE",
"565 545 LINE",
"565 707 LINE",
"120 707 LINE",
"120 0 LINE"
);
},
{
closed = 1;
nodes = (
"548 253 LINE",
"548 415 LINE",
"206 415 LINE",
"206 253 LINE"
);
}
);
width = 631;
}
);
unicode = 20A3;
},
{
glyphname = guarani;
layers = (
{
anchors = (
{
name = bottom;
position = "{346, 0}";
},
{
name = top;
position = "{345, 700}";
}
);
components = (
{
name = _dollarstem;
transform = "{1, 0, 0, 1, 65, 841}";
},
{
name = _dollarstem;
transform = "{1, 0, 0, 1, 75, 0}";
}
);
layerId = "D9DFF065-DDB2-4B0F-A853-E0DAE751FB65";
paths = (
{
closed = 1;
nodes = (
"447 -12 OFFCURVE",
"536 22 OFFCURVE",
"576 66 CURVE",
"576 343 LINE",
"349 343 LINE",
"349 323 LINE",
"556 323 LINE",
"556 77 LINE",
"521 39 OFFCURVE",
"441 9 OFFCURVE",
"374 9 CURVE SMOOTH",
"228 9 OFFCURVE",
"122 153 OFFCURVE",
"122 350 CURVE SMOOTH",
"122 550 OFFCURVE",
"232 691 OFFCURVE",
"388 691 CURVE SMOOTH",
"441 691 OFFCURVE",
"492 675 OFFCURVE",
"540 644 CURVE",
"546 663 LINE",
"495 695 OFFCURVE",
"441 712 OFFCURVE",
"385 712 CURVE SMOOTH",
"220 712 OFFCURVE",
"100 563 OFFCURVE",
"100 350 CURVE SMOOTH",
"100 142 OFFCURVE",
"214 -12 OFFCURVE",
"373 -12 CURVE SMOOTH"
);
}
);
userData = {
RMXScaler = {
width = 80;
};
};
width = 678;
},
{
anchors = (
{
name = bottom;
position = "{352, 0}";
},
{
name = top;
position = "{343, 706}";
}
);
components = (
{
name = _dollarstem;
transform = "{1, 0, 0, 1, 30, 841}";
},
{
name = _dollarstem;
transform = "{1, 0, 0, 1, 40, 0}";
}
);
layerId = "EF8420CB-322A-4DAC-B980-DA6E6912705F";
paths = (
{
closed = 1;
nodes = (
"429 -12 OFFCURVE",
"524 21 OFFCURVE",
"582 68 CURVE",
"582 417 LINE",
"335 417 LINE",
"335 273 LINE",
"444 273 LINE",
"444 169 LINE",
"427 150 OFFCURVE",
"389 135 OFFCURVE",
"355 135 CURVE SMOOTH",
"271 135 OFFCURVE",
"208 225 OFFCURVE",
"208 353 CURVE SMOOTH",
"208 483 OFFCURVE",
"272 571 OFFCURVE",
"372 571 CURVE SMOOTH",
"414 571 OFFCURVE",
"482 555 OFFCURVE",
"522 536 CURVE",
"554 673 LINE",
"508 698 OFFCURVE",
"418 718 OFFCURVE",
"352 718 CURVE SMOOTH",
"169 718 OFFCURVE",
"49 565 OFFCURVE",
"49 350 CURVE SMOOTH",
"49 132 OFFCURVE",
"172 -12 OFFCURVE",
"346 -12 CURVE SMOOTH"
);
}
);
userData = {
RMXScaler = {
weight = -20;
width = 80;
};
};
width = 646;
}
);
unicode = 20B2;
userData = {
RMXScaler = {
source = G;
};
};
},
{
glyphname = kip;
layers = (
{
anchors = (
{
name = bottom;
position = "{337, 0}";
},
{
name = top;
position = "{337, 700}";
}
);
components = (
{
name = strokelongcomb;
transform = "{0.8, 0, 0, 1, 0, -3}";
}
);
layerId = "D9DFF065-DDB2-4B0F-A853-E0DAE751FB65";
paths = (
{
closed = 1;
nodes = (
"208 0 LINE",
"208 700 LINE",
"187 700 LINE",
"187 0 LINE"
);
},
{
closed = 1;
nodes = (
"308 352 LINE",
"584 0 LINE",
"610 0 LINE",
"321 366 LINE"
);
},
{
closed = 1;
nodes = (
"208 214 LINE",
"578 700 LINE",
"552 700 LINE",
"208 242 LINE"
);
}
);
userData = {
RMXScaler = {
width = 90;
};
};
width = 706;
},
{
anchors = (
{
name = bottom;
position = "{393, 0}";
},
{
name = top;
position = "{393, 707}";
}
);
components = (
{
name = strokelongcomb;
transform = "{0.9, 0, 0, 1, -12, 50}";
}
);
layerId = "EF8420CB-322A-4DAC-B980-DA6E6912705F";
paths = (
{
closed = 1;
nodes = (
"312 0 LINE",
"312 707 LINE",
"136 707 LINE",
"136 0 LINE"
);
},
{
closed = 1;
nodes = (
"352 269 LINE",
"505 0 LINE",
"709 0 LINE",
"458 398 LINE"
);
},
{
closed = 1;
nodes = (
"312 179 LINE",
"705 707 LINE",
"506 707 LINE",
"312 410 LINE"
);
}
);
userData = {
RMXScaler = {
width = 90;
};
};
width = 779;
}
);
unicode = 20AD;
userData = {
RMXScaler = {
source = K;
};
};
},
{
glyphname = liraTurkish;
layers = (
{
layerId = "D9DFF065-DDB2-4B0F-A853-E0DAE751FB65";
paths = (
{
closed = 1;
nodes = (
"370 0 OFFCURVE",
"485 128 OFFCURVE",
"485 320 CURVE",
"465 320 LINE",
"465 140 OFFCURVE",
"358 20 OFFCURVE",
"197 20 CURVE",
"197 0 LINE"
);
},
{
closed = 1;
nodes = (
"197 0 LINE",
"197 700 LINE",
"176 700 LINE",
"176 0 LINE"
);
},
{
closed = 1;
nodes = (
"96 427 LINE",
"105 412 LINE",
"373 568 LINE",
"364 584 LINE"
);
},
{
closed = 1;
nodes = (
"96 307 LINE",
"105 292 LINE",
"373 452 LINE",
"364 468 LINE"
);
}
);
width = 576;
},
{
layerId = "EF8420CB-322A-4DAC-B980-DA6E6912705F";
paths = (
{
closed = 1;
nodes = (
"470 0 OFFCURVE",
"583 138 OFFCURVE",
"583 345 CURVE",
"444 345 LINE",
"444 222 OFFCURVE",
"386 140 OFFCURVE",
"300 140 CURVE",
"300 0 LINE"
);
},
{
closed = 1;
nodes = (
"300 0 LINE",
"300 707 LINE",
"134 707 LINE",
"134 0 LINE"
);
},
{
closed = 1;
nodes = (
"47 452 LINE",
"94 362 LINE",
"449 571 LINE",
"401 661 LINE"
);
},
{
closed = 1;
nodes = (
"60 287 LINE",
"108 197 LINE",
"449 400 LINE",
"401 490 LINE"
);
}
);
userData = {
RMXScaler = {
weight = -10;
width = 90;
};
};
width = 625;
}
);
unicode = 20BA;
userData = {
RMXScaler = {
source = I;
};
};
},
{
glyphname = manat;
layers = (
{
components = (
{
name = bar;
transform = "{1, 0, 0, 0.7, 220, 210}";
}
);
layerId = "D9DFF065-DDB2-4B0F-A853-E0DAE751FB65";
paths = (
{
closed = 1;
nodes = (
"151 0 LINE",
"151 345 LINE SMOOTH",
"151 493 OFFCURVE",
"240 591 OFFCURVE",
"373 591 CURVE SMOOTH",
"507 591 OFFCURVE",
"597 493 OFFCURVE",
"597 345 CURVE SMOOTH",
"597 0 LINE",
"617 0 LINE",
"617 345 LINE SMOOTH",
"617 505 OFFCURVE",
"520 612 OFFCURVE",
"373 612 CURVE SMOOTH",
"227 612 OFFCURVE",
"130 505 OFFCURVE",
"130 345 CURVE SMOOTH",
"130 0 LINE"
);
}
);
userData = {
RMXScaler = {
width = 90;
};
};
width = 747;
},
{
components = (
{
name = bar;
transform = "{0.6, 0, 0, 0.7, 226, 212}";
}
);
layerId = "EF8420CB-322A-4DAC-B980-DA6E6912705F";
paths = (
{
closed = 1;
nodes = (
"226 0 LINE",
"226 351 LINE SMOOTH",
"226 428 OFFCURVE",
"270 480 OFFCURVE",
"339 480 CURVE SMOOTH",
"407 480 OFFCURVE",
"454 429 OFFCURVE",
"454 351 CURVE SMOOTH",
"454 0 LINE",
"600 0 LINE",
"600 351 LINE SMOOTH",
"600 511 OFFCURVE",
"495 618 OFFCURVE",
"339 618 CURVE SMOOTH",
"183 618 OFFCURVE",
"80 511 OFFCURVE",
"80 351 CURVE SMOOTH",
"80 0 LINE"
);
}
);
userData = {
RMXScaler = {
weight = -30;
width = 90;
};
};
width = 680;
}
);
unicode = 20BC;
userData = {
RMXScaler = {
source = U;
};
};
},
{
glyphname = naira;
layers = (
{
anchors = (
{
name = bottom;
position = "{449, 0}";
},
{
name = top;
position = "{449, 700}";
}
);
components = (
{
name = strokelongcomb;
transform = "{1, 0, 0, 1, -7, -63}";
},
{
name = strokelongcomb;
transform = "{1, 0, 0, 1, -7, 57}";
}
);
layerId = "D9DFF065-DDB2-4B0F-A853-E0DAE751FB65";
paths = (
{
closed = 1;
nodes = (
"233 0 LINE",
"233 670 LINE",
"237 670 LINE",
"660 0 LINE",
"687 0 LINE",
"687 700 LINE",
"666 700 LINE",
"666 30 LINE",
"662 30 LINE",
"240 700 LINE",
"212 700 LINE",
"212 0 LINE"
);
}
);
userData = {
RMXScaler = {
width = 90;
};
};
width = 865;
},
{
anchors = (
{
name = bottom;
position = "{436, 0}";
},
{
name = top;
position = "{436, 705}";
}
);
components = (
{
name = strokelongcomb;
transform = "{1, 0, 0, 0.5, -15, 137}";
},
{
name = strokelongcomb;
transform = "{1, 0, 0, 0.5, -15, 257}";
}
);
layerId = "EF8420CB-322A-4DAC-B980-DA6E6912705F";
paths = (
{
closed = 1;
nodes = (
"297 0 LINE",
"297 471 LINE",
"304 471 LINE",
"562 0 LINE",
"710 0 LINE",
"710 705 LINE",
"574 705 LINE",
"574 227 LINE",
"567 227 LINE",
"310 705 LINE",
"161 705 LINE",
"161 0 LINE"
);
}
);
userData = {
RMXScaler = {
weight = -40;
width = 90;
};
};
width = 853;
}
);
unicode = 20A6;
userData = {
RMXScaler = {
source = N;
};
};
},
{
glyphname = peseta;
layers = (
{
anchors = (
{
name = bottom;
position = "{359, 0}";
},
{
name = top;
position = "{359, 700}";
}
);
components = (
{
name = strokeshortcomb;
transform = "{2.4, 0, 0, 1, -148, 189}";
}
);
layerId = "D9DFF065-DDB2-4B0F-A853-E0DAE751FB65";
paths = (
{
closed = 1;
nodes = (
"191 0 LINE",
"191 680 LINE",
"386 680 LINE SMOOTH",
"495 680 OFFCURVE",
"568 602 OFFCURVE",
"568 488 CURVE SMOOTH",
"568 375 OFFCURVE",
"496 301 OFFCURVE",
"386 301 CURVE SMOOTH",
"182 301 LINE",
"182 281 LINE",
"391 281 LINE SMOOTH",
"511 281 OFFCURVE",
"590 363 OFFCURVE",
"590 488 CURVE SMOOTH",
"590 614 OFFCURVE",
"510 700 OFFCURVE",
"391 700 CURVE SMOOTH",
"170 700 LINE",
"170 0 LINE"
);
}
);
userData = {
RMXScaler = {
width = 90;
};
};
width = 743;
},
{
anchors = (
{
name = bottom;
position = "{346, 0}";
},
{
name = top;
position = "{346, 707}";
}
);
components = (
{
name = strokeshortcomb;
transform = "{1.8, 0, 0, 0.8, -58, 211}";
}
);
layerId = "EF8420CB-322A-4DAC-B980-DA6E6912705F";
paths = (
{
closed = 1;
nodes = (
"289 0 LINE",
"289 556 LINE",
"390 556 LINE SMOOTH",
"440 556 OFFCURVE",
"474 515 OFFCURVE",
"474 455 CURVE SMOOTH",
"474 395 OFFCURVE",
"440 354 OFFCURVE",
"390 354 CURVE SMOOTH",
"200 354 LINE",
"200 203 LINE",
"396 203 LINE SMOOTH",
"534 203 OFFCURVE",
"627 304 OFFCURVE",
"627 455 CURVE SMOOTH",
"627 606 OFFCURVE",
"534 707 OFFCURVE",
"396 707 CURVE SMOOTH",
"123 707 LINE",
"123 0 LINE"
);
}
);
userData = {
RMXScaler = {
weight = -10;
width = 90;
};
};
width = 732;
}
);
unicode = 20A7;
userData = {
RMXScaler = {
source = P;
};
};
},
{
glyphname = peso;
layers = (
{
anchors = (
{
name = bottom;
position = "{370, 0}";
},
{
name = top;
position = "{370, 700}";
}
);
components = (
{
name = strokeshortcomb;
transform = "{2.4, 0, 0, 1, -137, 124}";
},
{
name = strokeshortcomb;
transform = "{2.4, 0, 0, 1, -137, 240}";
}
);
layerId = "D9DFF065-DDB2-4B0F-A853-E0DAE751FB65";
paths = (
{
closed = 1;
nodes = (
"202 0 LINE",
"202 680 LINE",
"397 680 LINE SMOOTH",
"506 680 OFFCURVE",
"579 602 OFFCURVE",
"579 488 CURVE SMOOTH",
"579 374 OFFCURVE",
"506 301 OFFCURVE",
"397 301 CURVE SMOOTH",
"193 301 LINE",
"193 281 LINE",
"402 281 LINE SMOOTH",
"521 281 OFFCURVE",
"601 362 OFFCURVE",
"601 488 CURVE SMOOTH",
"601 614 OFFCURVE",
"521 700 OFFCURVE",
"402 700 CURVE SMOOTH",
"181 700 LINE",
"181 0 LINE"
);
}
);
userData = {
RMXScaler = {
width = 90;
};
};
width = 766;
},
{
anchors = (
{
name = bottom;
position = "{355, 0}";
},
{
name = top;
position = "{355, 706}";
}
);
components = (
{
name = strokeshortcomb;
transform = "{1.8, 0, 0, 0.6, -55, 224}";
},
{
name = strokeshortcomb;
transform = "{1.8, 0, 0, 0.6, -55, 320}";
}
);
layerId = "EF8420CB-322A-4DAC-B980-DA6E6912705F";
paths = (
{
closed = 1;
nodes = (
"290 0 LINE",
"290 564 LINE",
"398 564 LINE SMOOTH",
"452 564 OFFCURVE",
"488 521 OFFCURVE",
"488 457 CURVE SMOOTH",
"488 393 OFFCURVE",
"452 351 OFFCURVE",
"398 351 CURVE SMOOTH",
"207 351 LINE",
"207 209 LINE",
"403 209 LINE SMOOTH",
"541 209 OFFCURVE",
"632 308 OFFCURVE",
"632 457 CURVE SMOOTH",
"632 606 OFFCURVE",
"541 706 OFFCURVE",
"403 706 CURVE SMOOTH",
"134 706 LINE",
"134 0 LINE"
);
}
);
userData = {
RMXScaler = {
weight = -20;
width = 90;
};
};
width = 745;
}
);
unicode = 20B1;
userData = {
RMXScaler = {
source = P;
};
};
},
{
glyphname = ruble;
layers = (
{
components = (
{
name = strokeshortcomb;
transform = "{1, 0, 0, 1, 4, -155}";
}
);
layerId = "D9DFF065-DDB2-4B0F-A853-E0DAE751FB65";
paths = (
{
closed = 1;
nodes = (
"196 0 LINE",
"196 680 LINE",
"391 680 LINE SMOOTH",
"500 680 OFFCURVE",
"573 602 OFFCURVE",
"573 488 CURVE SMOOTH",
"573 374 OFFCURVE",
"500 301 OFFCURVE",
"391 301 CURVE SMOOTH",
"104 301 LINE",
"104 281 LINE",
"396 281 LINE SMOOTH",
"515 281 OFFCURVE",
"595 362 OFFCURVE",
"595 488 CURVE SMOOTH",
"595 614 OFFCURVE",
"515 700 OFFCURVE",
"396 700 CURVE SMOOTH",
"175 700 LINE",
"175 0 LINE"
);
}
);
userData = {
RMXScaler = {
width = 90;
};
};
width = 693;
},
{
components = (
{
name = strokeshortcomb;
transform = "{1, 0, 0, 1, 11, -195}";
}
);
layerId = "EF8420CB-322A-4DAC-B980-DA6E6912705F";
paths = (
{
closed = 1;
nodes = (
"319 0 LINE",
"319 547 LINE",
"414 547 LINE SMOOTH",
"460 547 OFFCURVE",
"491 509 OFFCURVE",
"491 453 CURVE SMOOTH",
"491 396 OFFCURVE",
"460 358 OFFCURVE",
"414 358 CURVE SMOOTH",
"75 358 LINE",
"75 198 LINE",
"419 198 LINE SMOOTH",
"559 198 OFFCURVE",
"653 300 OFFCURVE",
"653 453 CURVE SMOOTH",
"653 605 OFFCURVE",
"559 707 OFFCURVE",
"419 707 CURVE SMOOTH",
"143 707 LINE",
"143 0 LINE"
);
}
);
userData = {
RMXScaler = {
width = 90;
};
};
width = 706;
}
);
unicode = 20BD;
userData = {
RMXScaler = {
source = P;
};
};
},
{
glyphname = rupeeIndian;
layers = (
{
anchors = (
{
name = bottom;
position = "{254, 0}";
},
{
name = top;
position = "{254, 700}";
}
);
components = (
{
name = strokelongcomb;
transform = "{0.6, 0, 0, 1, 42, 330}";
},
{
name = strokelongcomb;
transform = "{0.6, 0, 0, 1, 42, 150}";
}
);
layerId = "D9DFF065-DDB2-4B0F-A853-E0DAE751FB65";
paths = (
{
closed = 1;
nodes = (
"421 0 LINE",
"451 0 LINE",
"131 321 LINE",
"100 321 LINE"
);
},
{
closed = 1;
nodes = (
"100 680 LINE",
"283 680 LINE SMOOTH",
"380 680 OFFCURVE",
"446 610 OFFCURVE",
"446 508 CURVE SMOOTH",
"446 407 OFFCURVE",
"381 341 OFFCURVE",
"283 341 CURVE SMOOTH",
"100 341 LINE",
"100 321 LINE",
"288 321 LINE SMOOTH",
"397 321 OFFCURVE",
"468 395 OFFCURVE",
"468 508 CURVE SMOOTH",
"468 623 OFFCURVE",
"395 700 OFFCURVE",
"288 700 CURVE SMOOTH",
"100 700 LINE"
);
}
);
userData = {
RMXScaler = {
width = 90;
};
};
width = 596;
},
{
anchors = (
{
name = bottom;
position = "{236, 0}";
},
{
name = top;
position = "{236, 706}";
}
);
components = (
{
name = strokelongcomb;
transform = "{0.6, 0, 0, 1, 46, 337}";
},
{
name = strokelongcomb;
transform = "{0.6, 0, 0, 1, 44, 171}";
}
);
layerId = "EF8420CB-322A-4DAC-B980-DA6E6912705F";
paths = (
{
closed = 1;
nodes = (
"281 0 LINE",
"499 0 LINE",
"281 240 LINE",
"81 240 LINE"
);
},
{
closed = 1;
nodes = (
"82 588 LINE",
"262 588 LINE SMOOTH",
"314 588 OFFCURVE",
"342 548 OFFCURVE",
"342 483 CURVE SMOOTH",
"342 416 OFFCURVE",
"312 382 OFFCURVE",
"262 382 CURVE SMOOTH",
"82 382 LINE",
"82 240 LINE",
"267 240 LINE SMOOTH",
"399 240 OFFCURVE",
"486 333 OFFCURVE",
"486 473 CURVE SMOOTH",
"486 613 OFFCURVE",
"398 706 OFFCURVE",
"267 706 CURVE SMOOTH",
"82 706 LINE"
);
}
);
userData = {
RMXScaler = {
weight = -20;
width = 90;
};
};
width = 595;
}
);
unicode = 20B9;
userData = {
RMXScaler = {
source = R;
};
};
},
{
glyphname = won;
layers = (
{
anchors = (
{
name = bottom;
position = "{445, 0}";
},
{
name = top;
position = "{445, 700}";
}
);
components = (
{
name = strokelongcomb;
transform = "{1, 0, 0, 1, 7, 48}";
},
{
name = strokelongcomb;
transform = "{1, 0, 0, 1, 7, -82}";
}
);
layerId = "D9DFF065-DDB2-4B0F-A853-E0DAE751FB65";
paths = (
{
closed = 1;
nodes = (
"284 0 LINE",
"300 0 LINE",
"445 675 LINE",
"447 675 LINE",
"589 0 LINE",
"606 0 LINE",
"762 700 LINE",
"740 700 LINE",
"600 50 LINE",
"596 50 LINE",
"460 700 LINE",
"433 700 LINE",
"293 50 LINE",
"289 50 LINE",
"149 700 LINE",
"127 700 LINE"
);
}
);
userData = {
RMXScaler = {
width = 70;
};
};
width = 887;
},
{
anchors = (
{
name = bottom;
position = "{452, 0}";
},
{
name = top;
position = "{452, 707}";
}
);
components = (
{
name = strokelongcomb;
transform = "{1, 0, 0, 0.7, 14, 200}";
},
{
name = strokelongcomb;
transform = "{1, 0, 0, 0.7, 14, 40}";
}
);
layerId = "EF8420CB-322A-4DAC-B980-DA6E6912705F";
paths = (
{
closed = 1;
nodes = (
"205 0 LINE",
"417 0 LINE",
"452 479 LINE",
"454 479 LINE",
"486 0 LINE",
"698 0 LINE",
"825 707 LINE",
"662 707 LINE",
"600 121 LINE",
"595 121 LINE",
"539 707 LINE",
"362 707 LINE",
"311 121 LINE",
"304 121 LINE",
"241 707 LINE",
"78 707 LINE"
);
}
);
userData = {
RMXScaler = {
width = 70;
};
};
width = 907;
}
);
unicode = 20A9;
userData = {
RMXScaler = {
source = W;
};
};
},
{
glyphname = plus;
layers = (
{
layerId = "D9DFF065-DDB2-4B0F-A853-E0DAE751FB65";
paths = (
{
closed = 1;
nodes = (
"72 351 LINE",
"572 351 LINE",
"572 370 LINE",
"72 370 LINE"
);
},
{
closed = 1;
nodes = (
"315 86 LINE",
"335 86 LINE",
"335 616 LINE",
"315 616 LINE"
);
}
);
width = 644;
},
{
layerId = "EF8420CB-322A-4DAC-B980-DA6E6912705F";
paths = (
{
closed = 1;
nodes = (
"48 291 LINE",
"557 291 LINE",
"557 431 LINE",
"48 431 LINE"
);
},
{
closed = 1;
nodes = (
"236 101 LINE",
"376 101 LINE",
"376 621 LINE",
"236 621 LINE"
);
}
);
width = 605;
}
);
unicode = 002B;
},
{
glyphname = minus;
layers = (
{
layerId = "D9DFF065-DDB2-4B0F-A853-E0DAE751FB65";
paths = (
{
closed = 1;
nodes = (
"147 351 LINE",
"623 351 LINE",
"623 370 LINE",
"147 370 LINE"
);
}
);
width = 770;
},
{
layerId = "EF8420CB-322A-4DAC-B980-DA6E6912705F";
paths = (
{
closed = 1;
nodes = (
"102 291 LINE",
"608 291 LINE",
"608 431 LINE",
"102 431 LINE"
);
}
);
width = 710;
}
);
unicode = 2212;
},
{
glyphname = multiply;
layers = (
{
layerId = "D9DFF065-DDB2-4B0F-A853-E0DAE751FB65";
paths = (
{
closed = 1;
nodes = (
"98 137 LINE",
"438 504 LINE",
"423 518 LINE",
"84 151 LINE"
);
},
{
closed = 1;
nodes = (
"101 518 LINE",
"86 505 LINE",
"423 137 LINE",
"437 149 LINE"
);
}
);
width = 523;
},
{
layerId = "EF8420CB-322A-4DAC-B980-DA6E6912705F";
paths = (
{
closed = 1;
nodes = (
"133 71 LINE",
"543 513 LINE",
"445 612 LINE",
"38 172 LINE"
);
},
{
closed = 1;
nodes = (
"156 612 LINE",
"48 515 LINE",
"454 72 LINE",
"558 170 LINE"
);
}
);
width = 594;
}
);
unicode = 00D7;
},
{
glyphname = divide;
layers = (
{
components = (
{
name = _dot;
transform = "{1, 0, 0, 1, 309, 562}";
},
{
name = _dot;
transform = "{1, 0, 0, 1, 309, 162}";
}
);
layerId = "D9DFF065-DDB2-4B0F-A853-E0DAE751FB65";
paths = (
{
closed = 1;
nodes = (
"78 351 LINE",
"554 351 LINE",
"554 370 LINE",
"78 370 LINE"
);
}
);
width = 647;
},
{
components = (
{
name = _dot;
transform = "{1, 0, 0, 1, 292, 572}";
},
{
name = _dot;
transform = "{1, 0, 0, 1, 292, 150}";
}
);
layerId = "EF8420CB-322A-4DAC-B980-DA6E6912705F";
paths = (
{
closed = 1;
nodes = (
"41 291 LINE",
"557 291 LINE",
"557 431 LINE",
"41 431 LINE"
);
}
);
width = 598;
}
);
unicode = 00F7;
},
{
glyphname = equal;
layers = (
{
layerId = "D9DFF065-DDB2-4B0F-A853-E0DAE751FB65";
paths = (
{
closed = 1;
nodes = (
"147 461 LINE",
"593 461 LINE",
"593 480 LINE",
"147 480 LINE"
);
},
{
closed = 1;
nodes = (
"147 221 LINE",
"593 221 LINE",
"593 240 LINE",
"147 240 LINE"
);
}
);
width = 740;
},
{
layerId = "EF8420CB-322A-4DAC-B980-DA6E6912705F";
paths = (
{
closed = 1;
nodes = (
"102 401 LINE",
"594 401 LINE",
"594 541 LINE",
"102 541 LINE"
);
},
{
closed = 1;
nodes = (
"102 161 LINE",
"594 161 LINE",
"594 301 LINE",
"102 301 LINE"
);
}
);
width = 696;
}
);
unicode = 003D;
},
{
glyphname = notequal;
layers = (
{
components = (
{
name = equal;
transform = "{1, 0, 0, 1, -47, 0}";
}
);
layerId = "D9DFF065-DDB2-4B0F-A853-E0DAE751FB65";
paths = (
{
closed = 1;
nodes = (
"132 109 LINE",
"147 98 LINE",
"502 575 LINE",
"487 586 LINE"
);
}
);
width = 643;
},
{
components = (
{
name = equal;
transform = "{1, 0, 0, 1, -22, 0}";
}
);
layerId = "EF8420CB-322A-4DAC-B980-DA6E6912705F";
paths = (
{
closed = 1;
nodes = (
"97 75 LINE",
"165 36 LINE",
"493 603 LINE",
"425 642 LINE"
);
}
);
width = 653;
}
);
unicode = 2260;
},
{
glyphname = greater;
layers = (
{
layerId = "D9DFF065-DDB2-4B0F-A853-E0DAE751FB65";
paths = (
{
closed = 1;
nodes = (
"504 320 LINE",
"504 341 LINE",
"78 585 LINE",
"78 565 LINE",
"484 333 LINE",
"484 329 LINE",
"78 109 LINE",
"78 89 LINE"
);
}
);
width = 578;
},
{
layerId = "EF8420CB-322A-4DAC-B980-DA6E6912705F";
paths = (
{
closed = 1;
nodes = (
"553 286 LINE",
"553 387 LINE",
"77 595 LINE",
"77 447 LINE",
"352 335 LINE",
"352 333 LINE",
"77 227 LINE",
"77 79 LINE"
);
}
);
width = 593;
}
);
unicode = 003E;
},
{
glyphname = greaterequal;
layers = (
{
layerId = "D9DFF065-DDB2-4B0F-A853-E0DAE751FB65";
paths = (
{
closed = 1;
nodes = (
"94 81 LINE",
"540 81 LINE",
"540 100 LINE",
"94 100 LINE"
);
},
{
closed = 1;
nodes = (
"511 390 LINE",
"511 411 LINE",
"85 605 LINE",
"85 585 LINE",
"491 403 LINE",
"491 399 LINE",
"85 229 LINE",
"85 209 LINE"
);
}
);
width = 616;
},
{
layerId = "EF8420CB-322A-4DAC-B980-DA6E6912705F";
paths = (
{
closed = 1;
nodes = (
"87 26 LINE",
"579 26 LINE",
"579 141 LINE",
"87 141 LINE"
);
},
{
closed = 1;
nodes = (
"561 363 LINE",
"561 451 LINE",
"85 632 LINE",
"85 503 LINE",
"360 406 LINE",
"360 404 LINE",
"85 311 LINE",
"85 182 LINE"
);
}
);
width = 631;
}
);
unicode = 2265;
},
{
glyphname = plusminus;
layers = (
{
layerId = "D9DFF065-DDB2-4B0F-A853-E0DAE751FB65";
paths = (
{
closed = 1;
nodes = (
"80 400 LINE",
"560 400 LINE",
"560 419 LINE",
"80 419 LINE"
);
},
{
closed = 1;
nodes = (
"313 161 LINE",
"333 161 LINE",
"333 641 LINE",
"313 641 LINE"
);
},
{
closed = 1;
nodes = (
"85 77 LINE",
"561 77 LINE",
"561 96 LINE",
"85 96 LINE"
);
}
);
width = 642;
},
{
layerId = "EF8420CB-322A-4DAC-B980-DA6E6912705F";
paths = (
{
closed = 1;
nodes = (
"64 364 LINE",
"533 364 LINE",
"533 504 LINE",
"64 504 LINE"
);
},
{
closed = 1;
nodes = (
"232 199 LINE",
"372 199 LINE",
"372 669 LINE",
"232 669 LINE"
);
},
{
closed = 1;
nodes = (
"76 34 LINE",
"542 34 LINE",
"542 164 LINE",
"76 164 LINE"
);
}
);
width = 605;
}
);
unicode = 00B1;
},
{
glyphname = approxequal;
layers = (
{
layerId = "D9DFF065-DDB2-4B0F-A853-E0DAE751FB65";
paths = (
{
closed = 1;
nodes = (
"160 444 OFFCURVE",
"198 483 OFFCURVE",
"239 483 CURVE SMOOTH",
"308 483 OFFCURVE",
"379 359 OFFCURVE",
"469 359 CURVE SMOOTH",
"529 359 OFFCURVE",
"569 411 OFFCURVE",
"590 499 CURVE",
"568 503 LINE",
"548 421 OFFCURVE",
"510 379 OFFCURVE",
"466 379 CURVE SMOOTH",
"395 379 OFFCURVE",
"326 503 OFFCURVE",
"239 503 CURVE SMOOTH",
"182 503 OFFCURVE",
"141 455 OFFCURVE",
"114 363 CURVE",
"135 359 LINE"
);
},
{
closed = 1;
nodes = (
"160 234 OFFCURVE",
"198 273 OFFCURVE",
"239 273 CURVE SMOOTH",
"308 273 OFFCURVE",
"379 149 OFFCURVE",
"469 149 CURVE SMOOTH",
"529 149 OFFCURVE",
"569 201 OFFCURVE",
"590 289 CURVE",
"568 293 LINE",
"548 211 OFFCURVE",
"510 169 OFFCURVE",
"466 169 CURVE SMOOTH",
"395 169 OFFCURVE",
"326 293 OFFCURVE",
"239 293 CURVE SMOOTH",
"182 293 OFFCURVE",
"141 245 OFFCURVE",
"114 153 CURVE",
"135 149 LINE"
);
}
);
width = 706;
},
{
layerId = "EF8420CB-322A-4DAC-B980-DA6E6912705F";
paths = (
{
closed = 1;
nodes = (
"209 398 OFFCURVE",
"232 420 OFFCURVE",
"261 420 CURVE SMOOTH",
"310 420 OFFCURVE",
"362 358 OFFCURVE",
"433 358 CURVE SMOOTH",
"504 358 OFFCURVE",
"597 419 OFFCURVE",
"618 538 CURVE",
"486 566 LINE",
"473 520 OFFCURVE",
"458 498 OFFCURVE",
"426 498 CURVE SMOOTH",
"369 498 OFFCURVE",
"323 570 OFFCURVE",
"242 570 CURVE SMOOTH",
"170 570 OFFCURVE",
"88 513 OFFCURVE",
"65 386 CURVE",
"197 358 LINE"
);
},
{
closed = 1;
nodes = (
"210 143 OFFCURVE",
"235 160 OFFCURVE",
"261 160 CURVE SMOOTH",
"311 160 OFFCURVE",
"361 97 OFFCURVE",
"433 97 CURVE SMOOTH",
"502 97 OFFCURVE",
"599 156 OFFCURVE",
"621 279 CURVE",
"488 307 LINE",
"475 263 OFFCURVE",
"461 238 OFFCURVE",
"427 238 CURVE SMOOTH",
"369 238 OFFCURVE",
"323 311 OFFCURVE",
"241 311 CURVE SMOOTH",
"168 311 OFFCURVE",
"85 253 OFFCURVE",
"62 126 CURVE",
"195 97 LINE"
);
}
);
width = 681;
}
);
unicode = 2248;
},
{
glyphname = asciitilde;
layers = (
{
layerId = "D9DFF065-DDB2-4B0F-A853-E0DAE751FB65";
paths = (
{
closed = 1;
nodes = (
"160 324 OFFCURVE",
"198 373 OFFCURVE",
"239 373 CURVE SMOOTH",
"308 373 OFFCURVE",
"379 239 OFFCURVE",
"469 239 CURVE SMOOTH",
"529 239 OFFCURVE",
"569 301 OFFCURVE",
"590 389 CURVE",
"568 393 LINE",
"548 311 OFFCURVE",
"510 259 OFFCURVE",
"466 259 CURVE SMOOTH",
"395 259 OFFCURVE",
"326 393 OFFCURVE",
"239 393 CURVE SMOOTH",
"182 393 OFFCURVE",
"141 335 OFFCURVE",
"114 243 CURVE",
"135 239 LINE"
);
}
);
width = 706;
},
{
layerId = "EF8420CB-322A-4DAC-B980-DA6E6912705F";
paths = (
{
closed = 1;
nodes = (
"220 248 OFFCURVE",
"246 276 OFFCURVE",
"276 276 CURVE SMOOTH",
"327 276 OFFCURVE",
"376 198 OFFCURVE",
"451 198 CURVE SMOOTH",
"528 198 OFFCURVE",
"641 282 OFFCURVE",
"665 415 CURVE",
"521 446 LINE",
"506 395 OFFCURVE",
"480 361 OFFCURVE",
"443 361 CURVE SMOOTH",
"384 361 OFFCURVE",
"341 450 OFFCURVE",
"255 450 CURVE SMOOTH",
"170 450 OFFCURVE",
"84 362 OFFCURVE",
"60 229 CURVE",
"204 198 LINE"
);
}
);
width = 721;
}
);
unicode = 007E;
},
{
glyphname = logicalnot;
layers = (
{
layerId = "D9DFF065-DDB2-4B0F-A853-E0DAE751FB65";
paths = (
{
closed = 1;
nodes = (
"82 351 LINE",
"558 351 LINE",
"558 370 LINE",
"82 370 LINE"
);
},
{
closed = 1;
nodes = (
"538 169 LINE",
"558 169 LINE",
"558 370 LINE",
"538 370 LINE"
);
}
);
width = 705;
},
{
layerId = "EF8420CB-322A-4DAC-B980-DA6E6912705F";
paths = (
{
closed = 1;
nodes = (
"64 291 LINE",
"540 291 LINE",
"540 431 LINE",
"64 431 LINE"
);
},
{
closed = 1;
nodes = (
"367 129 LINE",
"540 129 LINE",
"540 330 LINE",
"367 330 LINE"
);
}
);
width = 642;
}
);
unicode = 00AC;
},
{
glyphname = micro;
layers = (
{
layerId = "D9DFF065-DDB2-4B0F-A853-E0DAE751FB65";
paths = (
{
closed = 1;
nodes = (
"519 0 LINE",
"519 472 LINE",
"499 472 LINE",
"499 74 LINE",
"503 0 LINE"
);
},
{
closed = 1;
nodes = (
"167 -218 LINE",
"167 69 LINE",
"188 16 OFFCURVE",
"236 -12 OFFCURVE",
"304 -12 CURVE SMOOTH",
"377 -12 OFFCURVE",
"458 20 OFFCURVE",
"513 71 CURVE",
"513 87 LINE",
"456 39 OFFCURVE",
"376 7 OFFCURVE",
"307 7 CURVE SMOOTH",
"221 7 OFFCURVE",
"167 57 OFFCURVE",
"167 141 CURVE SMOOTH",
"167 472 LINE",
"147 472 LINE",
"147 -218 LINE"
);
}
);
width = 642;
},
{
layerId = "EF8420CB-322A-4DAC-B980-DA6E6912705F";
paths = (
{
closed = 1;
nodes = (
"586 0 LINE",
"586 497 LINE",
"413 497 LINE",
"413 111 LINE",
"441 0 LINE"
);
},
{
closed = 1;
nodes = (
"275 -218 LINE",
"275 23 LINE",
"293 1 OFFCURVE",
"316 -12 OFFCURVE",
"339 -12 CURVE SMOOTH",
"371 -12 OFFCURVE",
"403 15 OFFCURVE",
"425 64 CURVE",
"425 188 LINE",
"400 152 OFFCURVE",
"376 135 OFFCURVE",
"346 135 CURVE SMOOTH",
"305 135 OFFCURVE",
"275 167 OFFCURVE",
"275 212 CURVE SMOOTH",
"275 497 LINE",
"102 497 LINE",
"102 -218 LINE"
);
}
);
width = 664;
}
);
unicode = 00B5;
},
{
glyphname = at;
layers = (
{
layerId = "D9DFF065-DDB2-4B0F-A853-E0DAE751FB65";
paths = (
{
closed = 1;
nodes = (
"547 -169 OFFCURVE",
"614 -157 OFFCURVE",
"654 -139 CURVE",
"651 -122 LINE",
"602 -139 OFFCURVE",
"542 -149 OFFCURVE",
"487 -149 CURVE SMOOTH",
"268 -149 OFFCURVE",
"118 15 OFFCURVE",
"118 246 CURVE SMOOTH",
"118 484 OFFCURVE",
"281 649 OFFCURVE",
"496 649 CURVE SMOOTH",
"715 649 OFFCURVE",
"869 475 OFFCURVE",
"869 247 CURVE SMOOTH",
"869 120 OFFCURVE",
"819 56 OFFCURVE",
"736 56 CURVE SMOOTH",
"686 56 OFFCURVE",
"659 79 OFFCURVE",
"659 117 CURVE",
"639 117 LINE",
"639 66 OFFCURVE",
"674 36 OFFCURVE",
"736 36 CURVE SMOOTH",
"834 36 OFFCURVE",
"890 108 OFFCURVE",
"890 247 CURVE SMOOTH",
"890 487 OFFCURVE",
"728 669 OFFCURVE",
"496 669 CURVE SMOOTH",
"267 669 OFFCURVE",
"97 498 OFFCURVE",
"97 246 CURVE SMOOTH",
"97 4 OFFCURVE",
"254 -169 OFFCURVE",
"486 -169 CURVE SMOOTH"
);
},
{
closed = 1;
nodes = (
"550 36 OFFCURVE",
"597 58 OFFCURVE",
"642 103 CURVE",
"642 117 LINE",
"606 78 OFFCURVE",
"556 56 OFFCURVE",
"502 56 CURVE SMOOTH",
"401 56 OFFCURVE",
"332 132 OFFCURVE",
"332 246 CURVE SMOOTH",
"332 358 OFFCURVE",
"399 434 OFFCURVE",
"500 434 CURVE SMOOTH",
"555 434 OFFCURVE",
"606 412 OFFCURVE",
"641 373 CURVE",
"641 388 LINE",
"604 430 OFFCURVE",
"552 454 OFFCURVE",
"495 454 CURVE SMOOTH",
"388 454 OFFCURVE",
"312 370 OFFCURVE",
"312 246 CURVE SMOOTH",
"312 123 OFFCURVE",
"388 36 OFFCURVE",
"496 36 CURVE SMOOTH"
);
},
{
closed = 1;
nodes = (
"659 117 LINE",
"659 442 LINE",
"643 442 LINE",
"639 368 LINE",
"639 117 LINE"
);
}
);
width = 982;
},
{
layerId = "EF8420CB-322A-4DAC-B980-DA6E6912705F";
paths = (
{
closed = 1;
nodes = (
"550 -204 OFFCURVE",
"626 -195 OFFCURVE",
"668 -182 CURVE",
"651 -74 LINE",
"607 -84 OFFCURVE",
"539 -90 OFFCURVE",
"496 -90 CURVE SMOOTH",
"289 -90 OFFCURVE",
"173 51 OFFCURVE",
"173 257 CURVE SMOOTH",
"173 476 OFFCURVE",
"304 590 OFFCURVE",
"488 590 CURVE SMOOTH",
"695 590 OFFCURVE",
"811 444 OFFCURVE",
"811 285 CURVE SMOOTH",
"811 181 OFFCURVE",
"762 130 OFFCURVE",
"722 130 CURVE SMOOTH",
"694 130 OFFCURVE",
"686 155 OFFCURVE",
"686 189 CURVE",
"541 189 LINE",
"541 98 OFFCURVE",
"628 24 OFFCURVE",
"730 24 CURVE SMOOTH",
"855 24 OFFCURVE",
"935 136 OFFCURVE",
"935 294 CURVE SMOOTH",
"935 534 OFFCURVE",
"751 704 OFFCURVE",
"490 704 CURVE SMOOTH",
"226 704 OFFCURVE",
"49 529 OFFCURVE",
"49 254 CURVE SMOOTH",
"49 -18 OFFCURVE",
"222 -204 OFFCURVE",
"491 -204 CURVE SMOOTH"
);
},
{
closed = 1;
nodes = (
"511 24 OFFCURVE",
"557 49 OFFCURVE",
"590 94 CURVE",
"541 188 LINE",
"531 159 OFFCURVE",
"510 140 OFFCURVE",
"489 140 CURVE SMOOTH",
"455 140 OFFCURVE",
"435 189 OFFCURVE",
"435 257 CURVE SMOOTH",
"435 325 OFFCURVE",
"455 356 OFFCURVE",
"491 356 CURVE SMOOTH",
"522 356 OFFCURVE",
"544 332 OFFCURVE",
"555 290 CURVE",
"555 416 LINE",
"536 452 OFFCURVE",
"497 472 OFFCURVE",
"450 472 CURVE SMOOTH",
"350 472 OFFCURVE",
"282 379 OFFCURVE",
"282 247 CURVE SMOOTH",
"282 112 OFFCURVE",
"353 24 OFFCURVE",
"456 24 CURVE SMOOTH"
);
},
{
closed = 1;
nodes = (
"686 157 LINE",
"686 460 LINE",
"565 460 LINE",
"541 369 LINE",
"541 157 LINE"
);
}
);
width = 977;
}
);
unicode = 0040;
},
{
glyphname = ampersand;
layers = (
{
layerId = "D9DFF065-DDB2-4B0F-A853-E0DAE751FB65";
paths = (
{
closed = 1;
nodes = (
"442 402 OFFCURVE",
"88 416 OFFCURVE",
"88 179 CURVE SMOOTH",
"88 66 OFFCURVE",
"169 -12 OFFCURVE",
"288 -12 CURVE SMOOTH",
"400 -12 OFFCURVE",
"489 56 OFFCURVE",
"582 210 CURVE",
"566 225 LINE",
"479 75 OFFCURVE",
"396 8 OFFCURVE",
"291 8 CURVE SMOOTH",
"184 8 OFFCURVE",
"109 77 OFFCURVE",
"109 179 CURVE SMOOTH",
"109 400 OFFCURVE",
"462 381 OFFCURVE",
"462 575 CURVE SMOOTH",
"462 657 OFFCURVE",
"399 712 OFFCURVE",
"312 712 CURVE SMOOTH",
"218 712 OFFCURVE",
"159 647 OFFCURVE",
"159 549 CURVE SMOOTH",
"159 421 OFFCURVE",
"259 297 OFFCURVE",
"609 -13 CURVE",
"623 0 LINE",
"268 321 OFFCURVE",
"179 434 OFFCURVE",
"179 548 CURVE SMOOTH",
"179 636 OFFCURVE",
"232 692 OFFCURVE",
"313 692 CURVE SMOOTH",
"386 692 OFFCURVE",
"442 646 OFFCURVE",
"442 577 CURVE SMOOTH"
);
}
);
width = 689;
},
{
layerId = "EF8420CB-322A-4DAC-B980-DA6E6912705F";
paths = (
{
closed = 1;
nodes = (
"394 434 OFFCURVE",
"38 439 OFFCURVE",
"38 197 CURVE SMOOTH",
"38 73 OFFCURVE",
"131 -12 OFFCURVE",
"269 -12 CURVE SMOOTH",
"417 -12 OFFCURVE",
"578 85 OFFCURVE",
"675 232 CURVE",
"580 307 LINE",
"515 204 OFFCURVE",
"390 128 OFFCURVE",
"287 128 CURVE SMOOTH",
"225 128 OFFCURVE",
"192 156 OFFCURVE",
"192 204 CURVE SMOOTH",
"192 360 OFFCURVE",
"547 325 OFFCURVE",
"547 540 CURVE SMOOTH",
"547 650 OFFCURVE",
"454 718 OFFCURVE",
"338 718 CURVE SMOOTH",
"207 718 OFFCURVE",
"123 631 OFFCURVE",
"123 523 CURVE SMOOTH",
"123 401 OFFCURVE",
"232 264 OFFCURVE",
"553 -34 CURVE",
"662 75 LINE",
"366 331 OFFCURVE",
"277 434 OFFCURVE",
"277 518 CURVE SMOOTH",
"277 561 OFFCURVE",
"301 588 OFFCURVE",
"338 588 CURVE SMOOTH",
"370 588 OFFCURVE",
"394 568 OFFCURVE",
"394 540 CURVE SMOOTH"
);
}
);
width = 702;
}
);
unicode = 0026;
},
{
glyphname = paragraph;
layers = (
{
layerId = "D9DFF065-DDB2-4B0F-A853-E0DAE751FB65";
paths = (
{
closed = 1;
nodes = (
"348 -162 LINE",
"348 699 LINE",
"529 699 LINE",
"529 -162 LINE",
"549 -162 LINE",
"549 718 LINE",
"329 718 LINE SMOOTH",
"178 718 OFFCURVE",
"78 635 OFFCURVE",
"78 511 CURVE SMOOTH",
"78 387 OFFCURVE",
"178 304 OFFCURVE",
"328 304 CURVE",
"328 -162 LINE"
);
}
);
width = 696;
},
{
layerId = "EF8420CB-322A-4DAC-B980-DA6E6912705F";
paths = (
{
closed = 1;
nodes = (
"399 -182 LINE",
"399 588 LINE",
"497 588 LINE",
"497 -182 LINE",
"670 -182 LINE",
"670 728 LINE",
"303 728 LINE SMOOTH",
"140 728 OFFCURVE",
"32 640 OFFCURVE",
"32 509 CURVE SMOOTH",
"32 375 OFFCURVE",
"110 286 OFFCURVE",
"226 286 CURVE",
"226 -182 LINE"
);
}
);
width = 772;
}
);
unicode = 00B6;
},
{
glyphname = section;
layers = (
{
layerId = "D9DFF065-DDB2-4B0F-A853-E0DAE751FB65";
paths = (
{
closed = 1;
nodes = (
"395 -12 OFFCURVE",
"464 38 OFFCURVE",
"464 116 CURVE SMOOTH",
"464 287 OFFCURVE",
"132 219 OFFCURVE",
"132 365 CURVE SMOOTH",
"132 430 OFFCURVE",
"198 468 OFFCURVE",
"284 468 CURVE",
"283 483 LINE",
"185 483 OFFCURVE",
"111 441 OFFCURVE",
"111 364 CURVE SMOOTH",
"111 202 OFFCURVE",
"444 269 OFFCURVE",
"444 116 CURVE SMOOTH",
"444 49 OFFCURVE",
"380 8 OFFCURVE",
"288 8 CURVE SMOOTH",
"232 8 OFFCURVE",
"171 23 OFFCURVE",
"107 56 CURVE",
"104 39 LINE",
"162 6 OFFCURVE",
"224 -12 OFFCURVE",
"288 -12 CURVE SMOOTH"
);
},
{
closed = 1;
nodes = (
"395 225 OFFCURVE",
"466 266 OFFCURVE",
"466 345 CURVE SMOOTH",
"466 516 OFFCURVE",
"134 448 OFFCURVE",
"134 594 CURVE SMOOTH",
"134 659 OFFCURVE",
"200 693 OFFCURVE",
"286 693 CURVE SMOOTH",
"345 693 OFFCURVE",
"403 677 OFFCURVE",
"438 653 CURVE",
"441 670 LINE",
"406 696 OFFCURVE",
"347 713 OFFCURVE",
"285 713 CURVE SMOOTH",
"187 713 OFFCURVE",
"113 670 OFFCURVE",
"113 593 CURVE SMOOTH",
"113 431 OFFCURVE",
"446 498 OFFCURVE",
"446 345 CURVE SMOOTH",
"446 278 OFFCURVE",
"382 237 OFFCURVE",
"338 237 CURVE",
"356 225 LINE"
);
}
);
width = 571;
},
{
layerId = "EF8420CB-322A-4DAC-B980-DA6E6912705F";
paths = (
{
closed = 1;
nodes = (
"426 -35 OFFCURVE",
"506 24 OFFCURVE",
"506 131 CURVE SMOOTH",
"506 316 OFFCURVE",
"217 267 OFFCURVE",
"217 344 CURVE SMOOTH",
"217 369 OFFCURVE",
"243 403 OFFCURVE",
"271 429 CURVE",
"163 479 LINE",
"106 459 OFFCURVE",
"62 403 OFFCURVE",
"62 329 CURVE SMOOTH",
"62 135 OFFCURVE",
"331 183 OFFCURVE",
"331 123 CURVE SMOOTH",
"331 108 OFFCURVE",
"315 98 OFFCURVE",
"274 98 CURVE SMOOTH",
"228 98 OFFCURVE",
"170 111 OFFCURVE",
"114 132 CURVE",
"87 0 LINE",
"144 -22 OFFCURVE",
"215 -35 OFFCURVE",
"282 -35 CURVE SMOOTH"
);
},
{
closed = 1;
nodes = (
"483 240 OFFCURVE",
"513 292 OFFCURVE",
"513 356 CURVE SMOOTH",
"513 546 OFFCURVE",
"264 496 OFFCURVE",
"264 553 CURVE SMOOTH",
"264 567 OFFCURVE",
"279 575 OFFCURVE",
"314 575 CURVE SMOOTH",
"358 575 OFFCURVE",
"403 562 OFFCURVE",
"453 540 CURVE",
"480 670 LINE",
"437 697 OFFCURVE",
"368 715 OFFCURVE",
"301 715 CURVE SMOOTH",
"186 715 OFFCURVE",
"89 663 OFFCURVE",
"89 547 CURVE SMOOTH",
"89 364 OFFCURVE",
"358 412 OFFCURVE",
"358 332 CURVE SMOOTH",
"358 310 OFFCURVE",
"332 281 OFFCURVE",
"292 260 CURVE",
"437 210 LINE"
);
}
);
width = 580;
}
);
unicode = 00A7;
},
{
glyphname = copyright;
layers = (
{
layerId = "D9DFF065-DDB2-4B0F-A853-E0DAE751FB65";
paths = (
{
closed = 1;
nodes = (
"559 175 LINE",
"535 162 OFFCURVE",
"495 153 OFFCURVE",
"459 153 CURVE SMOOTH",
"353 153 OFFCURVE",
"283 231 OFFCURVE",
"283 350 CURVE SMOOTH",
"283 470 OFFCURVE",
"354 548 OFFCURVE",
"462 548 CURVE SMOOTH",
"497 548 OFFCURVE",
"538 540 OFFCURVE",
"559 528 CURVE",
"561 547 LINE",
"541 559 OFFCURVE",
"499 568 OFFCURVE",
"460 568 CURVE SMOOTH",
"340 568 OFFCURVE",
"262 482 OFFCURVE",
"262 350 CURVE SMOOTH",
"262 219 OFFCURVE",
"340 133 OFFCURVE",
"457 133 CURVE SMOOTH",
"495 133 OFFCURVE",
"536 142 OFFCURVE",
"561 156 CURVE"
);
},
{
closed = 1;
nodes = (
"657 -12 OFFCURVE",
"819 150 OFFCURVE",
"819 350 CURVE SMOOTH",
"819 549 OFFCURVE",
"657 712 OFFCURVE",
"458 712 CURVE SMOOTH",
"259 712 OFFCURVE",
"96 550 OFFCURVE",
"96 350 CURVE SMOOTH",
"96 150 OFFCURVE",
"258 -12 OFFCURVE",
"458 -12 CURVE SMOOTH"
);
},
{
closed = 1;
nodes = (
"270 8 OFFCURVE",
"117 162 OFFCURVE",
"117 350 CURVE SMOOTH",
"117 538 OFFCURVE",
"271 692 OFFCURVE",
"458 692 CURVE SMOOTH",
"644 692 OFFCURVE",
"798 538 OFFCURVE",
"798 350 CURVE SMOOTH",
"798 162 OFFCURVE",
"645 8 OFFCURVE",
"458 8 CURVE SMOOTH"
);
}
);
userData = {
RMXScaler = {
height = 60;
verticalShift = 100;
width = 60;
};
};
width = 915;
},
{
layerId = "EF8420CB-322A-4DAC-B980-DA6E6912705F";
paths = (
{
closed = 1;
nodes = (
"518 289 LINE",
"493 278 OFFCURVE",
"460 271 OFFCURVE",
"437 271 CURVE SMOOTH",
"387 271 OFFCURVE",
"355 303 OFFCURVE",
"355 353 CURVE SMOOTH",
"355 403 OFFCURVE",
"389 434 OFFCURVE",
"443 434 CURVE SMOOTH",
"466 434 OFFCURVE",
"498 427 OFFCURVE",
"518 418 CURVE",
"529 518 LINE",
"506 534 OFFCURVE",
"465 545 OFFCURVE",
"428 545 CURVE SMOOTH",
"311 545 OFFCURVE",
"234 468 OFFCURVE",
"234 353 CURVE SMOOTH",
"234 238 OFFCURVE",
"310 161 OFFCURVE",
"424 161 CURVE SMOOTH",
"464 161 OFFCURVE",
"506 172 OFFCURVE",
"529 188 CURVE"
);
},
{
closed = 1;
nodes = (
"617 -12 OFFCURVE",
"780 152 OFFCURVE",
"780 353 CURVE SMOOTH",
"780 554 OFFCURVE",
"616 718 OFFCURVE",
"415 718 CURVE SMOOTH",
"213 718 OFFCURVE",
"49 554 OFFCURVE",
"49 353 CURVE SMOOTH",
"49 151 OFFCURVE",
"213 -12 OFFCURVE",
"415 -12 CURVE SMOOTH"
);
},
{
closed = 1;
nodes = (
"268 87 OFFCURVE",
"148 206 OFFCURVE",
"148 353 CURVE SMOOTH",
"148 499 OFFCURVE",
"268 619 OFFCURVE",
"415 619 CURVE SMOOTH",
"561 619 OFFCURVE",
"681 499 OFFCURVE",
"681 353 CURVE SMOOTH",
"681 207 OFFCURVE",
"562 87 OFFCURVE",
"415 87 CURVE SMOOTH"
);
}
);
userData = {
RMXScaler = {
height = 60;
verticalShift = 100;
weight = -40;
width = 60;
};
};
width = 829;
}
);
unicode = 00A9;
userData = {
RMXScaler = {
source = C;
};
};
},
{
glyphname = registered;
layers = (
{
layerId = "D9DFF065-DDB2-4B0F-A853-E0DAE751FB65";
paths = (
{
closed = 1;
nodes = (
"357 450 LINE",
"379 450 LINE",
"321 544 LINE",
"299 544 LINE"
);
},
{
closed = 1;
nodes = (
"245 450 LINE",
"245 642 LINE",
"304 642 LINE SMOOTH",
"333 642 OFFCURVE",
"353 624 OFFCURVE",
"353 599 CURVE SMOOTH",
"353 573 OFFCURVE",
"333 557 OFFCURVE",
"304 557 CURVE SMOOTH",
"235 557 LINE",
"235 538 LINE",
"306 538 LINE SMOOTH",
"346 538 OFFCURVE",
"373 562 OFFCURVE",
"373 599 CURVE SMOOTH",
"373 636 OFFCURVE",
"346 661 OFFCURVE",
"306 661 CURVE SMOOTH",
"225 661 LINE",
"225 450 LINE"
);
},
{
closed = 1;
nodes = (
"391 375 OFFCURVE",
"471 455 OFFCURVE",
"471 554 CURVE SMOOTH",
"471 653 OFFCURVE",
"391 733 OFFCURVE",
"292 733 CURVE SMOOTH",
"193 733 OFFCURVE",
"113 653 OFFCURVE",
"113 554 CURVE SMOOTH",
"113 455 OFFCURVE",
"193 375 OFFCURVE",
"292 375 CURVE SMOOTH"
);
},
{
closed = 1;
nodes = (
"206 395 OFFCURVE",
"134 468 OFFCURVE",
"134 554 CURVE SMOOTH",
"134 640 OFFCURVE",
"206 713 OFFCURVE",
"292 713 CURVE SMOOTH",
"378 713 OFFCURVE",
"450 640 OFFCURVE",
"450 554 CURVE SMOOTH",
"450 468 OFFCURVE",
"378 395 OFFCURVE",
"292 395 CURVE SMOOTH"
);
}
);
userData = {
RMXScaler = {
height = 30;
verticalShift = 450;
width = 30;
};
};
width = 584;
},
{
layerId = "EF8420CB-322A-4DAC-B980-DA6E6912705F";
paths = (
{
closed = 1;
nodes = (
"299 458 LINE",
"345 458 LINE",
"296 538 LINE",
"253 538 LINE"
);
},
{
closed = 1;
nodes = (
"228 458 LINE",
"228 615 LINE",
"265 615 LINE SMOOTH",
"284 615 OFFCURVE",
"296 605 OFFCURVE",
"296 589 CURVE SMOOTH",
"296 574 OFFCURVE",
"283 563 OFFCURVE",
"265 563 CURVE SMOOTH",
"206 563 LINE",
"206 525 LINE",
"267 525 LINE SMOOTH",
"309 525 OFFCURVE",
"336 550 OFFCURVE",
"336 589 CURVE SMOOTH",
"336 628 OFFCURVE",
"308 654 OFFCURVE",
"267 654 CURVE SMOOTH",
"186 654 LINE",
"186 458 LINE"
);
},
{
closed = 1;
nodes = (
"367 359 OFFCURVE",
"454 446 OFFCURVE",
"454 554 CURVE SMOOTH",
"454 662 OFFCURVE",
"367 749 OFFCURVE",
"259 749 CURVE SMOOTH",
"151 749 OFFCURVE",
"64 662 OFFCURVE",
"64 554 CURVE SMOOTH",
"64 446 OFFCURVE",
"151 359 OFFCURVE",
"259 359 CURVE SMOOTH"
);
},
{
closed = 1;
nodes = (
"182 415 OFFCURVE",
"120 477 OFFCURVE",
"120 554 CURVE SMOOTH",
"120 631 OFFCURVE",
"182 693 OFFCURVE",
"259 693 CURVE SMOOTH",
"336 693 OFFCURVE",
"398 631 OFFCURVE",
"398 554 CURVE SMOOTH",
"398 477 OFFCURVE",
"336 415 OFFCURVE",
"259 415 CURVE SMOOTH"
);
}
);
userData = {
RMXScaler = {
height = 30;
verticalShift = 450;
weight = -130;
width = 30;
};
};
width = 519;
}
);
unicode = 00AE;
userData = {
RMXScaler = {
source = R;
};
};
},
{
glyphname = degree;
layers = (
{
layerId = "D9DFF065-DDB2-4B0F-A853-E0DAE751FB65";
paths = (
{
closed = 1;
nodes = (
"257 550 OFFCURVE",
"293 586 OFFCURVE",
"293 631 CURVE SMOOTH",
"293 676 OFFCURVE",
"257 712 OFFCURVE",
"212 712 CURVE SMOOTH",
"167 712 OFFCURVE",
"131 676 OFFCURVE",
"131 631 CURVE SMOOTH",
"131 586 OFFCURVE",
"167 550 OFFCURVE",
"212 550 CURVE SMOOTH"
);
},
{
closed = 1;
nodes = (
"179 570 OFFCURVE",
"151 598 OFFCURVE",
"151 631 CURVE SMOOTH",
"151 664 OFFCURVE",
"179 692 OFFCURVE",
"212 692 CURVE SMOOTH",
"245 692 OFFCURVE",
"273 664 OFFCURVE",
"273 631 CURVE SMOOTH",
"273 598 OFFCURVE",
"245 570 OFFCURVE",
"212 570 CURVE SMOOTH"
);
}
);
width = 424;
},
{
layerId = "EF8420CB-322A-4DAC-B980-DA6E6912705F";
paths = (
{
closed = 1;
nodes = (
"328 399 OFFCURVE",
"392 463 OFFCURVE",
"392 559 CURVE SMOOTH",
"392 655 OFFCURVE",
"328 719 OFFCURVE",
"233 719 CURVE SMOOTH",
"137 719 OFFCURVE",
"73 655 OFFCURVE",
"73 559 CURVE SMOOTH",
"73 463 OFFCURVE",
"137 399 OFFCURVE",
"233 399 CURVE SMOOTH"
);
},
{
closed = 1;
nodes = (
"200 507 OFFCURVE",
"180 526 OFFCURVE",
"180 559 CURVE SMOOTH",
"180 592 OFFCURVE",
"200 612 OFFCURVE",
"233 612 CURVE SMOOTH",
"266 612 OFFCURVE",
"285 592 OFFCURVE",
"285 559 CURVE SMOOTH",
"285 526 OFFCURVE",
"266 507 OFFCURVE",
"233 507 CURVE SMOOTH"
);
}
);
width = 466;
}
);
unicode = 00B0;
},
{
glyphname = bar;
layers = (
{
layerId = "D9DFF065-DDB2-4B0F-A853-E0DAE751FB65";
paths = (
{
closed = 1;
nodes = (
"147 -159 LINE",
"166 -159 LINE",
"166 700 LINE",
"147 700 LINE"
);
}
);
width = 313;
},
{
layerId = "EF8420CB-322A-4DAC-B980-DA6E6912705F";
paths = (
{
closed = 1;
nodes = (
"102 -159 LINE",
"275 -159 LINE",
"275 707 LINE",
"102 707 LINE"
);
}
);
width = 377;
}
);
unicode = 007C;
},
{
glyphname = brokenbar;
layers = (
{
layerId = "D9DFF065-DDB2-4B0F-A853-E0DAE751FB65";
paths = (
{
closed = 1;
nodes = (
"147 149 LINE",
"147 -159 LINE",
"166 -159 LINE",
"166 149 LINE"
);
},
{
closed = 1;
nodes = (
"166 392 LINE",
"166 700 LINE",
"147 700 LINE",
"147 392 LINE"
);
}
);
width = 313;
},
{
layerId = "EF8420CB-322A-4DAC-B980-DA6E6912705F";
paths = (
{
closed = 1;
nodes = (
"102 125 LINE",
"102 -159 LINE",
"275 -159 LINE",
"275 125 LINE"
);
},
{
closed = 1;
nodes = (
"275 423 LINE",
"275 707 LINE",
"102 707 LINE",
"102 423 LINE"
);
}
);
width = 377;
}
);
unicode = 00A6;
},
{
glyphname = dagger;
layers = (
{
layerId = "D9DFF065-DDB2-4B0F-A853-E0DAE751FB65";
paths = (
{
closed = 1;
nodes = (
"225 556 LINE",
"377 554 LINE",
"377 574 LINE",
"225 572 LINE"
);
},
{
closed = 1;
nodes = (
"216 572 LINE",
"67 574 LINE",
"67 554 LINE",
"216 556 LINE"
);
},
{
closed = 1;
nodes = (
"213 564 LINE",
"211 0 LINE",
"231 0 LINE",
"228 564 LINE",
"231 718 LINE",
"211 718 LINE"
);
}
);
width = 444;
},
{
layerId = "EF8420CB-322A-4DAC-B980-DA6E6912705F";
paths = (
{
closed = 1;
nodes = (
"207 508 LINE",
"359 494 LINE",
"359 634 LINE",
"207 620 LINE"
);
},
{
closed = 1;
nodes = (
"198 620 LINE",
"49 634 LINE",
"49 494 LINE",
"198 508 LINE"
);
},
{
closed = 1;
nodes = (
"134 564 LINE",
"117 0 LINE",
"290 0 LINE",
"264 564 LINE",
"290 718 LINE",
"117 718 LINE"
);
}
);
width = 406;
}
);
unicode = 2020;
},
{
glyphname = daggerdbl;
layers = (
{
layerId = "D9DFF065-DDB2-4B0F-A853-E0DAE751FB65";
paths = (
{
closed = 1;
nodes = (
"239 556 LINE",
"391 554 LINE",
"391 574 LINE",
"239 572 LINE"
);
},
{
closed = 1;
nodes = (
"230 572 LINE",
"81 574 LINE",
"81 554 LINE",
"230 556 LINE"
);
},
{
closed = 1;
nodes = (
"227 550 LINE",
"225 359 LINE",
"227 168 LINE",
"225 0 LINE",
"245 0 LINE",
"242 168 LINE",
"244 359 LINE",
"242 550 LINE",
"245 718 LINE",
"225 718 LINE"
);
},
{
closed = 1;
nodes = (
"239 159 LINE",
"391 157 LINE",
"391 177 LINE",
"239 175 LINE"
);
},
{
closed = 1;
nodes = (
"230 175 LINE",
"81 177 LINE",
"81 157 LINE",
"230 159 LINE"
);
}
);
width = 472;
},
{
layerId = "EF8420CB-322A-4DAC-B980-DA6E6912705F";
paths = (
{
closed = 1;
nodes = (
"230 508 LINE",
"382 494 LINE",
"382 634 LINE",
"230 620 LINE"
);
},
{
closed = 1;
nodes = (
"221 620 LINE",
"72 634 LINE",
"72 494 LINE",
"221 508 LINE"
);
},
{
closed = 1;
nodes = (
"157 550 LINE",
"140 359 LINE",
"157 168 LINE",
"140 0 LINE",
"313 0 LINE",
"287 168 LINE",
"304 359 LINE",
"287 550 LINE",
"313 718 LINE",
"140 718 LINE"
);
},
{
closed = 1;
nodes = (
"230 111 LINE",
"382 97 LINE",
"382 237 LINE",
"230 223 LINE"
);
},
{
closed = 1;
nodes = (
"221 223 LINE",
"72 237 LINE",
"72 97 LINE",
"221 111 LINE"
);
}
);
width = 452;
}
);
unicode = 2021;
},
{
glyphname = asciicircum;
layers = (
{
layerId = "D9DFF065-DDB2-4B0F-A853-E0DAE751FB65";
paths = (
{
closed = 1;
nodes = (
"260 682 LINE",
"263 682 LINE",
"424 520 LINE",
"438 532 LINE",
"271 700 LINE",
"252 700 LINE",
"84 535 LINE",
"98 523 LINE"
);
}
);
width = 522;
},
{
layerId = "EF8420CB-322A-4DAC-B980-DA6E6912705F";
paths = (
{
closed = 1;
nodes = (
"280 587 LINE",
"259 587 LINE",
"409 439 LINE",
"492 526 LINE",
"313 707 LINE",
"227 707 LINE",
"41 525 LINE",
"124 438 LINE"
);
}
);
width = 534;
}
);
unicode = 005E;
},
{
glyphname = caroncomb.alt;
layers = (
{
anchors = (
{
name = _topright;
position = "{106, 472}";
}
);
layerId = "D9DFF065-DDB2-4B0F-A853-E0DAE751FB65";
paths = (
{
closed = 1;
nodes = (
"74 521 LINE",
"90 517 LINE",
"137 688 LINE",
"119 694 LINE"
);
}
);
width = 210;
},
{
anchors = (
{
name = _topright;
position = "{174, 497}";
}
);
layerId = "EF8420CB-322A-4DAC-B980-DA6E6912705F";
paths = (
{
closed = 1;
nodes = (
"108 548 LINE",
"203 541 LINE",
"240 755 LINE",
"114 764 LINE"
);
}
);
width = 345;
}
);
},
{
glyphname = ringcomb;
layers = (
{
anchors = (
{
name = _top;
position = "{183, 497}";
},
{
name = top;
position = "{183, 821}";
}
);
layerId = "EF8420CB-322A-4DAC-B980-DA6E6912705F";
paths = (
{
closed = 1;
nodes = (
"272 553 OFFCURVE",
"332 613 OFFCURVE",
"332 702 CURVE SMOOTH",
"332 791 OFFCURVE",
"272 851 OFFCURVE",
"183 851 CURVE SMOOTH",
"94 851 OFFCURVE",
"34 791 OFFCURVE",
"34 702 CURVE SMOOTH",
"34 613 OFFCURVE",
"94 553 OFFCURVE",
"183 553 CURVE SMOOTH"
);
},
{
closed = 1;
nodes = (
"161 662 OFFCURVE",
"143 680 OFFCURVE",
"143 707 CURVE SMOOTH",
"143 733 OFFCURVE",
"161 751 OFFCURVE",
"188 751 CURVE SMOOTH",
"214 751 OFFCURVE",
"232 733 OFFCURVE",
"232 707 CURVE SMOOTH",
"232 680 OFFCURVE",
"214 662 OFFCURVE",
"188 662 CURVE SMOOTH"
);
}
);
width = 366;
},
{
anchors = (
{
name = _top;
position = "{154, 472}";
},
{
name = top;
position = "{154, 692}";
}
);
layerId = "D9DFF065-DDB2-4B0F-A853-E0DAE751FB65";
paths = (
{
closed = 1;
nodes = (
"194 591 OFFCURVE",
"226 623 OFFCURVE",
"226 663 CURVE SMOOTH",
"226 703 OFFCURVE",
"194 735 OFFCURVE",
"154 735 CURVE SMOOTH",
"114 735 OFFCURVE",
"82 703 OFFCURVE",
"82 663 CURVE SMOOTH",
"82 623 OFFCURVE",
"114 591 OFFCURVE",
"154 591 CURVE SMOOTH"
);
},
{
closed = 1;
nodes = (
"125 609 OFFCURVE",
"100 634 OFFCURVE",
"100 663 CURVE SMOOTH",
"100 692 OFFCURVE",
"125 717 OFFCURVE",
"154 717 CURVE SMOOTH",
"183 717 OFFCURVE",
"208 692 OFFCURVE",
"208 663 CURVE SMOOTH",
"208 634 OFFCURVE",
"183 609 OFFCURVE",
"154 609 CURVE SMOOTH"
);
}
);
width = 309;
}
);
unicode = 030A;
},
{
glyphname = tildecomb;
layers = (
{
anchors = (
{
name = _top;
position = "{217, 497}";
},
{
name = top;
position = "{219, 749}";
}
);
layerId = "EF8420CB-322A-4DAC-B980-DA6E6912705F";
paths = (
{
closed = 1;
nodes = (
"317 709 OFFCURVE",
"293 691 OFFCURVE",
"272 691 CURVE SMOOTH",
"237 691 OFFCURVE",
"209 739 OFFCURVE",
"154 739 CURVE SMOOTH",
"115 739 OFFCURVE",
"60 714 OFFCURVE",
"8 632 CURVE",
"96 561 LINE",
"117 592 OFFCURVE",
"132 609 OFFCURVE",
"154 609 CURVE SMOOTH",
"192 609 OFFCURVE",
"224 561 OFFCURVE",
"272 561 CURVE SMOOTH",
"320 561 OFFCURVE",
"384 611 OFFCURVE",
"425 668 CURVE",
"337 739 LINE"
);
}
);
width = 427;
},
{
anchors = (
{
name = _top;
position = "{213, 472}";
},
{
name = top;
position = "{213, 632}";
}
);
layerId = "D9DFF065-DDB2-4B0F-A853-E0DAE751FB65";
paths = (
{
closed = 1;
nodes = (
"324 637 OFFCURVE",
"298 606 OFFCURVE",
"274 606 CURVE SMOOTH",
"235 606 OFFCURVE",
"205 692 OFFCURVE",
"161 692 CURVE SMOOTH",
"133 692 OFFCURVE",
"97 658 OFFCURVE",
"74 594 CURVE",
"89 587 LINE",
"107 640 OFFCURVE",
"139 672 OFFCURVE",
"161 672 CURVE SMOOTH",
"198 672 OFFCURVE",
"227 586 OFFCURVE",
"275 586 CURVE SMOOTH",
"306 586 OFFCURVE",
"339 621 OFFCURVE",
"350 680 CURVE",
"335 687 LINE"
);
}
);
width = 426;
}
);
unicode = 0303;
},
{
glyphname = hookabovecomb;
layers = (
{
anchors = (
{
name = _top;
position = "{137, 472}";
},
{
name = top;
position = "{137, 730}";
}
);
layerId = "D9DFF065-DDB2-4B0F-A853-E0DAE751FB65";
paths = (
{
closed = 1;
nodes = (
"186 566 OFFCURVE",
"221 612 OFFCURVE",
"221 656 CURVE SMOOTH",
"221 700 OFFCURVE",
"188 730 OFFCURVE",
"138 730 CURVE SMOOTH",
"110 730 OFFCURVE",
"76 720 OFFCURVE",
"53 706 CURVE",
"59 689 LINE",
"82 702 OFFCURVE",
"112 710 OFFCURVE",
"135 710 CURVE SMOOTH",
"175 710 OFFCURVE",
"201 688 OFFCURVE",
"201 656 CURVE SMOOTH",
"201 623 OFFCURVE",
"172 584 OFFCURVE",
"128 558 CURVE",
"134 541 LINE"
);
}
);
width = 296;
},
{
anchors = (
{
name = _top;
position = "{133, 497}";
},
{
name = top;
position = "{133, 786}";
}
);
layerId = "EF8420CB-322A-4DAC-B980-DA6E6912705F";
paths = (
{
closed = 1;
nodes = (
"200 574 OFFCURVE",
"244 632 OFFCURVE",
"244 693 CURVE SMOOTH",
"244 754 OFFCURVE",
"201 796 OFFCURVE",
"136 796 CURVE SMOOTH",
"101 796 OFFCURVE",
"55 784 OFFCURVE",
"22 766 CURVE",
"42 680 LINE",
"61 691 OFFCURVE",
"85 698 OFFCURVE",
"102 698 CURVE SMOOTH",
"122 698 OFFCURVE",
"135 687 OFFCURVE",
"135 668 CURVE SMOOTH",
"135 648 OFFCURVE",
"120 624 OFFCURVE",
"99 612 CURVE",
"123 546 LINE"
);
}
);
width = 273;
}
);
unicode = 0309;
},
{
glyphname = horncomb;
layers = (
{
anchors = (
{
name = _topright;
position = "{98, 472}";
},
{
name = topright;
position = "{98, 472}";
}
);
layerId = "D9DFF065-DDB2-4B0F-A853-E0DAE751FB65";
paths = (
{
closed = 1;
nodes = (
"94 452 OFFCURVE",
"154 516 OFFCURVE",
"154 613 CURVE",
"134 613 LINE",
"134 529 OFFCURVE",
"82 473 OFFCURVE",
"27 472 CURVE",
"27 452 LINE"
);
}
);
width = 280;
},
{
anchors = (
{
name = _topright;
position = "{129, 497}";
},
{
name = topright;
position = "{129, 497}";
}
);
layerId = "EF8420CB-322A-4DAC-B980-DA6E6912705F";
paths = (
{
closed = 1;
nodes = (
"152 391 OFFCURVE",
"246 483 OFFCURVE",
"246 606 CURVE",
"112 606 LINE",
"112 547 OFFCURVE",
"90 497 OFFCURVE",
"42 497 CURVE",
"42 391 LINE"
);
}
);
width = 600;
}
);
unicode = 031B;
},
{
glyphname = cedillacomb;
layers = (
{
anchors = (
{
name = _bottom;
position = "{130, 0}";
},
{
name = bottom;
position = "{150, -230}";
}
);
layerId = "D9DFF065-DDB2-4B0F-A853-E0DAE751FB65";
paths = (
{
closed = 1;
nodes = (
"165 -230 OFFCURVE",
"213 -182 OFFCURVE",
"213 -118 CURVE SMOOTH",
"213 -70 OFFCURVE",
"185 -26 OFFCURVE",
"138 3 CURVE",
"118 3 LINE",
"159 -29 OFFCURVE",
"192 -74 OFFCURVE",
"192 -121 CURVE SMOOTH",
"192 -169 OFFCURVE",
"157 -210 OFFCURVE",
"92 -210 CURVE SMOOTH",
"63 -210 OFFCURVE",
"23 -202 OFFCURVE",
"-1 -189 CURVE",
"-7 -206 LINE",
"19 -220 OFFCURVE",
"59 -230 OFFCURVE",
"93 -230 CURVE SMOOTH"
);
}
);
width = 286;
},
{
anchors = (
{
name = _bottom;
position = "{188, 0}";
},
{
name = bottom;
position = "{188, -213}";
}
);
layerId = "EF8420CB-322A-4DAC-B980-DA6E6912705F";
paths = (
{
closed = 1;
nodes = (
"226 -230 OFFCURVE",
"279 -177 OFFCURVE",
"279 -98 CURVE SMOOTH",
"279 -57 OFFCURVE",
"264 -12 OFFCURVE",
"241 13 CURVE",
"119 13 LINE",
"133 -1 OFFCURVE",
"147 -32 OFFCURVE",
"147 -59 CURVE SMOOTH",
"147 -92 OFFCURVE",
"125 -113 OFFCURVE",
"91 -113 CURVE SMOOTH",
"71 -113 OFFCURVE",
"36 -106 OFFCURVE",
"13 -95 CURVE",
"-14 -205 LINE",
"20 -220 OFFCURVE",
"82 -230 OFFCURVE",
"126 -230 CURVE SMOOTH"
);
}
);
width = 313;
}
);
unicode = 0327;
},
{
glyphname = ogonekcomb;
layers = (
{
anchors = (
{
name = _ogonek;
position = "{178, 0}";
}
);
layerId = "D9DFF065-DDB2-4B0F-A853-E0DAE751FB65";
paths = (
{
closed = 1;
nodes = (
"173 3 LINE",
"72 -22 OFFCURVE",
"6 -80 OFFCURVE",
"6 -144 CURVE SMOOTH",
"6 -195 OFFCURVE",
"48 -230 OFFCURVE",
"107 -230 CURVE SMOOTH",
"132 -230 OFFCURVE",
"162 -224 OFFCURVE",
"183 -215 CURVE",
"177 -198 LINE",
"154 -205 OFFCURVE",
"128 -210 OFFCURVE",
"108 -210 CURVE SMOOTH",
"61 -210 OFFCURVE",
"27 -182 OFFCURVE",
"27 -141 CURVE SMOOTH",
"27 -85 OFFCURVE",
"90 -30 OFFCURVE",
"188 -2 CURVE"
);
}
);
width = 254;
},
{
anchors = (
{
name = _ogonek;
position = "{241, 0}";
}
);
layerId = "EF8420CB-322A-4DAC-B980-DA6E6912705F";
paths = (
{
closed = 1;
nodes = (
"198 7 LINE",
"103 -12 OFFCURVE",
"30 -75 OFFCURVE",
"30 -141 CURVE SMOOTH",
"30 -193 OFFCURVE",
"74 -230 OFFCURVE",
"142 -230 CURVE SMOOTH",
"179 -230 OFFCURVE",
"232 -219 OFFCURVE",
"274 -201 CURVE",
"265 -123 LINE",
"250 -129 OFFCURVE",
"233 -132 OFFCURVE",
"222 -132 CURVE SMOOTH",
"198 -132 OFFCURVE",
"182 -117 OFFCURVE",
"182 -96 CURVE SMOOTH",
"182 -63 OFFCURVE",
"222 -27 OFFCURVE",
"283 -5 CURVE"
);
}
);
width = 313;
}
);
unicode = 0328;
},
{
glyphname = strokeshortcomb;
layers = (
{
anchors = (
{
name = _center;
position = "{218, 300}";
}
);
layerId = "D9DFF065-DDB2-4B0F-A853-E0DAE751FB65";
paths = (
{
closed = 1;
nodes = (
"96 290 LINE",
"339 290 LINE",
"339 309 LINE",
"96 309 LINE"
);
}
);
width = 435;
},
{
anchors = (
{
name = _center;
position = "{241, 310}";
}
);
layerId = "EF8420CB-322A-4DAC-B980-DA6E6912705F";
paths = (
{
closed = 1;
nodes = (
"61 257 LINE",
"420 257 LINE",
"420 363 LINE",
"61 363 LINE"
);
}
);
width = 481;
}
);
unicode = 0335;
},
{
glyphname = strokelongcomb;
layers = (
{
anchors = (
{
name = _center;
position = "{436, 361}";
}
);
layerId = "D9DFF065-DDB2-4B0F-A853-E0DAE751FB65";
paths = (
{
closed = 1;
nodes = (
"96 351 LINE",
"775 351 LINE",
"775 370 LINE",
"96 370 LINE"
);
}
);
width = 871;
},
{
anchors = (
{
name = _center;
position = "{441, 310}";
}
);
layerId = "EF8420CB-322A-4DAC-B980-DA6E6912705F";
paths = (
{
closed = 1;
nodes = (
"61 250 LINE",
"820 250 LINE",
"820 370 LINE",
"61 370 LINE"
);
}
);
width = 881;
}
);
unicode = 0336;
},
{
glyphname = slashshortcomb;
layers = (
{
anchors = (
{
name = _center;
position = "{156, 269}";
}
);
layerId = "D9DFF065-DDB2-4B0F-A853-E0DAE751FB65";
paths = (
{
closed = 1;
nodes = (
"47 215 LINE",
"56 200 LINE",
"265 322 LINE",
"256 338 LINE"
);
}
);
width = 312;
},
{
anchors = (
{
name = _center;
position = "{193, 312}";
}
);
layerId = "EF8420CB-322A-4DAC-B980-DA6E6912705F";
paths = (
{
closed = 1;
nodes = (
"12 277 LINE",
"60 187 LINE",
"373 347 LINE",
"325 437 LINE"
);
}
);
width = 391;
}
);
unicode = 0337;
},
{
glyphname = slashlongcomb;
layers = (
{
anchors = (
{
name = _center;
position = "{233, 236}";
}
);
layerId = "D9DFF065-DDB2-4B0F-A853-E0DAE751FB65";
paths = (
{
closed = 1;
nodes = (
"44 -11 LINE",
"435 472 LINE",
"420 483 LINE",
"30 0 LINE"
);
}
);
width = 465;
},
{
anchors = (
{
name = _center;
position = "{245, 249}";
}
);
layerId = "EF8420CB-322A-4DAC-B980-DA6E6912705F";
paths = (
{
closed = 1;
nodes = (
"59 0 LINE",
"490 438 LINE",
"425 497 LINE",
"-1 62 LINE"
);
}
);
width = 488;
}
);
unicode = 0338;
},
{
glyphname = slashlongcomb.case;
layers = (
{
anchors = (
{
name = _center;
position = "{279, 348}";
}
);
layerId = "D9DFF065-DDB2-4B0F-A853-E0DAE751FB65";
paths = (
{
closed = 1;
nodes = (
"42 -33 LINE",
"531 719 LINE",
"514 729 LINE",
"27 -23 LINE"
);
}
);
width = 558;
},
{
anchors = (
{
name = _center;
position = "{292, 351}";
}
);
layerId = "EF8420CB-322A-4DAC-B980-DA6E6912705F";
paths = (
{
closed = 1;
nodes = (
"92 -51 LINE",
"589 689 LINE",
"489 753 LINE",
"-6 15 LINE"
);
}
);
width = 584;
}
);
},
{
glyphname = circumflexcomb.narrow;
layers = (
{
anchors = (
{
name = _top;
position = "{147, 497}";
},
{
name = top;
position = "{147, 764}";
}
);
layerId = "EF8420CB-322A-4DAC-B980-DA6E6912705F";
paths = (
{
closed = 1;
nodes = (
"158 649 LINE",
"135 649 LINE",
"221 554 LINE",
"303 641 LINE",
"149 815 LINE",
"147 815 LINE",
"-11 641 LINE",
"71 554 LINE"
);
}
);
width = 294;
},
{
anchors = (
{
name = _top;
position = "{143, 472}";
},
{
name = top;
position = "{143, 667}";
}
);
layerId = "D9DFF065-DDB2-4B0F-A853-E0DAE751FB65";
paths = (
{
closed = 1;
nodes = (
"142 670 LINE",
"144 670 LINE",
"221 563 LINE",
"234 575 LINE",
"152 688 LINE",
"135 688 LINE",
"52 575 LINE",
"65 563 LINE"
);
}
);
width = 287;
}
);
},
{
glyphname = macroncomb.narrow;
layers = (
{
anchors = (
{
name = _top;
position = "{226, 472}";
},
{
name = top;
position = "{226, 634}";
}
);
layerId = "D9DFF065-DDB2-4B0F-A853-E0DAE751FB65";
paths = (
{
closed = 1;
nodes = (
"126 642 LINE",
"126 626 LINE",
"326 626 LINE",
"326 642 LINE"
);
}
);
width = 451;
},
{
anchors = (
{
name = _top;
position = "{221, 497}";
},
{
name = top;
position = "{221, 716}";
}
);
layerId = "EF8420CB-322A-4DAC-B980-DA6E6912705F";
paths = (
{
closed = 1;
nodes = (
"96 716 LINE",
"96 586 LINE",
"346 586 LINE",
"346 716 LINE"
);
}
);
width = 441;
}
);
},
{
export = 0;
glyphname = _dot;
layers = (
{
layerId = "EF8420CB-322A-4DAC-B980-DA6E6912705F";
paths = (
{
closed = 1;
nodes = (
"56 -93 OFFCURVE",
"93 -56 OFFCURVE",
"93 0 CURVE SMOOTH",
"93 56 OFFCURVE",
"56 93 OFFCURVE",
"0 93 CURVE SMOOTH",
"-56 93 OFFCURVE",
"-93 56 OFFCURVE",
"-93 0 CURVE SMOOTH",
"-93 -56 OFFCURVE",
"-56 -93 OFFCURVE",
"0 -93 CURVE SMOOTH"
);
}
);
width = 600;
},
{
layerId = "D9DFF065-DDB2-4B0F-A853-E0DAE751FB65";
paths = (
{
closed = 1;
nodes = (
"12 -21 OFFCURVE",
"21 -12 OFFCURVE",
"21 0 CURVE SMOOTH",
"21 12 OFFCURVE",
"12 21 OFFCURVE",
"0 21 CURVE SMOOTH",
"-12 21 OFFCURVE",
"-21 12 OFFCURVE",
"-21 0 CURVE SMOOTH",
"-21 -12 OFFCURVE",
"-12 -21 OFFCURVE",
"0 -21 CURVE SMOOTH"
);
}
);
width = 600;
}
);
},
{
export = 0;
glyphname = _k;
layers = (
{
layerId = "EF8420CB-322A-4DAC-B980-DA6E6912705F";
paths = (
{
closed = 1;
nodes = (
"204 188 LINE",
"327 0 LINE",
"534 0 LINE",
"315 299 LINE"
);
},
{
closed = 1;
nodes = (
"163 121 LINE",
"516 497 LINE",
"321 497 LINE",
"163 326 LINE"
);
}
);
width = 620;
},
{
layerId = "D9DFF065-DDB2-4B0F-A853-E0DAE751FB65";
paths = (
{
closed = 1;
nodes = (
"240 277 LINE",
"484 0 LINE",
"509 0 LINE",
"255 291 LINE"
);
},
{
closed = 1;
nodes = (
"163 197 LINE",
"475 472 LINE",
"443 472 LINE",
"163 222 LINE"
);
}
);
width = 630;
}
);
},
{
export = 0;
glyphname = _n;
layers = (
{
layerId = "D9DFF065-DDB2-4B0F-A853-E0DAE751FB65";
paths = (
{
closed = 1;
nodes = (
"478 0 LINE",
"478 332 LINE SMOOTH",
"478 427 OFFCURVE",
"419 484 OFFCURVE",
"321 484 CURVE SMOOTH",
"248 484 OFFCURVE",
"167 452 OFFCURVE",
"112 401 CURVE",
"112 385 LINE",
"170 434 OFFCURVE",
"250 465 OFFCURVE",
"318 465 CURVE SMOOTH",
"405 465 OFFCURVE",
"458 414 OFFCURVE",
"458 331 CURVE SMOOTH",
"458 0 LINE"
);
}
);
width = 547;
},
{
layerId = "EF8420CB-322A-4DAC-B980-DA6E6912705F";
paths = (
{
closed = 1;
nodes = (
"543 0 LINE",
"543 358 LINE SMOOTH",
"543 448 OFFCURVE",
"483 509 OFFCURVE",
"394 509 CURVE SMOOTH",
"332 509 OFFCURVE",
"265 480 OFFCURVE",
"220 433 CURVE",
"220 309 LINE",
"261 346 OFFCURVE",
"290 362 OFFCURVE",
"318 362 CURVE SMOOTH",
"352 362 OFFCURVE",
"370 339 OFFCURVE",
"370 294 CURVE SMOOTH",
"370 0 LINE"
);
}
);
width = 597;
}
);
},
{
export = 0;
glyphname = _d;
layers = (
{
anchors = (
{
name = _bowl;
position = "{427, 234}";
}
);
layerId = "D9DFF065-DDB2-4B0F-A853-E0DAE751FB65";
paths = (
{
closed = 1;
nodes = (
"323 -12 OFFCURVE",
"376 13 OFFCURVE",
"427 65 CURVE",
"427 81 LINE",
"382 33 OFFCURVE",
"327 8 OFFCURVE",
"264 8 CURVE SMOOTH",
"143 8 OFFCURVE",
"58 102 OFFCURVE",
"58 237 CURVE SMOOTH",
"58 371 OFFCURVE",
"142 464 OFFCURVE",
"260 464 CURVE SMOOTH",
"324 464 OFFCURVE",
"386 436 OFFCURVE",
"427 389 CURVE",
"429 403 LINE",
"385 456 OFFCURVE",
"326 484 OFFCURVE",
"258 484 CURVE SMOOTH",
"129 484 OFFCURVE",
"37 381 OFFCURVE",
"37 237 CURVE SMOOTH",
"37 91 OFFCURVE",
"131 -12 OFFCURVE",
"260 -12 CURVE SMOOTH"
);
}
);
width = 620;
},
{
anchors = (
{
name = _bowl;
position = "{378, 243}";
}
);
layerId = "EF8420CB-322A-4DAC-B980-DA6E6912705F";
paths = (
{
closed = 1;
nodes = (
"307 -12 OFFCURVE",
"352 11 OFFCURVE",
"403 65 CURVE",
"386 192 LINE",
"361 156 OFFCURVE",
"323 132 OFFCURVE",
"291 132 CURVE SMOOTH",
"245 132 OFFCURVE",
"212 182 OFFCURVE",
"212 249 CURVE SMOOTH",
"212 317 OFFCURVE",
"245 364 OFFCURVE",
"291 364 CURVE SMOOTH",
"330 364 OFFCURVE",
"368 331 OFFCURVE",
"386 282 CURVE",
"403 410 LINE",
"366 478 OFFCURVE",
"318 509 OFFCURVE",
"250 509 CURVE SMOOTH",
"123 509 OFFCURVE",
"36 400 OFFCURVE",
"36 250 CURVE SMOOTH",
"36 96 OFFCURVE",
"127 -12 OFFCURVE",
"250 -12 CURVE SMOOTH"
);
}
);
width = 598;
}
);
},
{
export = 0;
glyphname = _stem.n;
layers = (
{
layerId = "D9DFF065-DDB2-4B0F-A853-E0DAE751FB65";
paths = (
{
closed = 1;
nodes = (
"116 0 LINE",
"116 398 LINE",
"112 472 LINE",
"96 472 LINE",
"96 0 LINE"
);
}
);
width = 557;
},
{
layerId = "EF8420CB-322A-4DAC-B980-DA6E6912705F";
paths = (
{
closed = 1;
nodes = (
"234 0 LINE",
"234 386 LINE",
"206 497 LINE",
"61 497 LINE",
"61 0 LINE"
);
}
);
width = 577;
}
);
},
{
export = 0;
glyphname = _stem.p;
layers = (
{
anchors = (
{
name = bowl;
position = "{234, 243}";
}
);
components = (
{
name = _stem.n;
}
);
layerId = "EF8420CB-322A-4DAC-B980-DA6E6912705F";
paths = (
{
closed = 1;
nodes = (
"61 -218 LINE",
"234 -218 LINE",
"234 0 LINE",
"61 0 LINE"
);
}
);
width = 577;
},
{
anchors = (
{
name = bowl;
position = "{116, 234}";
}
);
components = (
{
name = _stem.n;
}
);
layerId = "D9DFF065-DDB2-4B0F-A853-E0DAE751FB65";
paths = (
{
closed = 1;
nodes = (
"96 -218 LINE",
"116 -218 LINE",
"116 0 LINE",
"96 0 LINE"
);
}
);
width = 519;
}
);
},
{
export = 0;
glyphname = _period;
layers = (
{
layerId = "D9DFF065-DDB2-4B0F-A853-E0DAE751FB65";
paths = (
{
closed = 1;
nodes = (
"171 -12 OFFCURVE",
"184 1 OFFCURVE",
"184 21 CURVE SMOOTH",
"184 41 OFFCURVE",
"171 54 OFFCURVE",
"151 54 CURVE SMOOTH",
"131 54 OFFCURVE",
"118 41 OFFCURVE",
"118 21 CURVE SMOOTH",
"118 1 OFFCURVE",
"131 -12 OFFCURVE",
"151 -12 CURVE SMOOTH"
);
}
);
width = 302;
},
{
layerId = "EF8420CB-322A-4DAC-B980-DA6E6912705F";
paths = (
{
closed = 1;
nodes = (
"224 -10 OFFCURVE",
"263 31 OFFCURVE",
"263 85 CURVE SMOOTH",
"263 139 OFFCURVE",
"224 181 OFFCURVE",
"168 181 CURVE SMOOTH",
"112 181 OFFCURVE",
"73 139 OFFCURVE",
"73 85 CURVE SMOOTH",
"73 31 OFFCURVE",
"112 -10 OFFCURVE",
"168 -10 CURVE SMOOTH"
);
}
);
width = 336;
}
);
},
{
export = 0;
glyphname = _comma;
layers = (
{
layerId = "D9DFF065-DDB2-4B0F-A853-E0DAE751FB65";
paths = (
{
closed = 1;
nodes = (
"162 -94 OFFCURVE",
"187 -33 OFFCURVE",
"187 9 CURVE SMOOTH",
"187 37 OFFCURVE",
"174 55 OFFCURVE",
"152 55 CURVE SMOOTH",
"134 55 OFFCURVE",
"121 42 OFFCURVE",
"121 22 CURVE SMOOTH",
"121 2 OFFCURVE",
"135 -11 OFFCURVE",
"155 -11 CURVE",
"153 -40 OFFCURVE",
"135 -92 OFFCURVE",
"112 -136 CURVE",
"124 -142 LINE"
);
}
);
width = 297;
},
{
layerId = "EF8420CB-322A-4DAC-B980-DA6E6912705F";
paths = (
{
closed = 1;
nodes = (
"201 -141 OFFCURVE",
"269 -29 OFFCURVE",
"269 66 CURVE SMOOTH",
"269 137 OFFCURVE",
"230 181 OFFCURVE",
"167 181 CURVE SMOOTH",
"110 181 OFFCURVE",
"71 143 OFFCURVE",
"71 87 CURVE SMOOTH",
"71 37 OFFCURVE",
"102 -1 OFFCURVE",
"147 -8 CURVE",
"138 -58 OFFCURVE",
"106 -114 OFFCURVE",
"61 -159 CURVE",
"111 -194 LINE"
);
}
);
width = 326;
}
);
},
{
export = 0;
glyphname = _quote;
layers = (
{
layerId = "D9DFF065-DDB2-4B0F-A853-E0DAE751FB65";
paths = (
{
closed = 1;
nodes = (
"174 502 LINE",
"177 669 LINE",
"177 698 OFFCURVE",
"173 712 OFFCURVE",
"165 712 CURVE SMOOTH",
"158 712 OFFCURVE",
"155 698 OFFCURVE",
"155 669 CURVE",
"160 502 LINE"
);
}
);
width = 334;
},
{
layerId = "EF8420CB-322A-4DAC-B980-DA6E6912705F";
paths = (
{
closed = 1;
nodes = (
"194 354 LINE",
"218 609 LINE",
"218 691 OFFCURVE",
"187 719 OFFCURVE",
"141 719 CURVE SMOOTH",
"95 719 OFFCURVE",
"64 692 OFFCURVE",
"64 611 CURVE",
"95 354 LINE"
);
}
);
width = 284;
}
);
},
{
export = 0;
glyphname = _acute;
layers = (
{
layerId = "D9DFF065-DDB2-4B0F-A853-E0DAE751FB65";
paths = (
{
closed = 1;
nodes = (
"51 532 LINE",
"64 522 LINE",
"171 663 LINE",
"157 675 LINE"
);
}
);
width = 218;
},
{
layerId = "EF8420CB-322A-4DAC-B980-DA6E6912705F";
paths = (
{
closed = 1;
nodes = (
"-13 616 LINE",
"75 544 LINE",
"236 718 LINE",
"128 806 LINE"
);
}
);
width = 227;
}
);
},
{
export = 0;
glyphname = _circumflex;
layers = (
{
layerId = "D9DFF065-DDB2-4B0F-A853-E0DAE751FB65";
paths = (
{
closed = 1;
nodes = (
"301 651 LINE",
"304 651 LINE",
"410 533 LINE",
"423 545 LINE",
"312 668 LINE",
"293 668 LINE",
"181 545 LINE",
"194 533 LINE"
);
}
);
width = 600;
},
{
layerId = "EF8420CB-322A-4DAC-B980-DA6E6912705F";
paths = (
{
closed = 1;
nodes = (
"302 666 LINE",
"281 666 LINE",
"390 554 LINE",
"473 641 LINE",
"295 815 LINE",
"289 815 LINE",
"109 641 LINE",
"192 554 LINE"
);
}
);
width = 600;
}
);
},
{
export = 0;
glyphname = _percentzero;
layers = (
{
layerId = "D9DFF065-DDB2-4B0F-A853-E0DAE751FB65";
paths = (
{
closed = 1;
nodes = (
"273 -12 OFFCURVE",
"327 74 OFFCURVE",
"327 205 CURVE SMOOTH",
"327 336 OFFCURVE",
"273 423 OFFCURVE",
"191 423 CURVE SMOOTH",
"108 423 OFFCURVE",
"53 336 OFFCURVE",
"53 205 CURVE SMOOTH",
"53 74 OFFCURVE",
"108 -12 OFFCURVE",
"191 -12 CURVE SMOOTH"
);
},
{
closed = 1;
nodes = (
"121 7 OFFCURVE",
"74 86 OFFCURVE",
"74 205 CURVE SMOOTH",
"74 324 OFFCURVE",
"121 404 OFFCURVE",
"191 404 CURVE SMOOTH",
"260 404 OFFCURVE",
"306 324 OFFCURVE",
"306 205 CURVE SMOOTH",
"306 86 OFFCURVE",
"260 7 OFFCURVE",
"191 7 CURVE SMOOTH"
);
}
);
userData = {
RMXScaler = {
height = 60;
width = 60;
};
};
width = 380;
},
{
layerId = "EF8420CB-322A-4DAC-B980-DA6E6912705F";
paths = (
{
closed = 1;
nodes = (
"336 -7 OFFCURVE",
"415 82 OFFCURVE",
"415 214 CURVE SMOOTH",
"415 346 OFFCURVE",
"336 434 OFFCURVE",
"219 434 CURVE SMOOTH",
"101 434 OFFCURVE",
"21 346 OFFCURVE",
"21 214 CURVE SMOOTH",
"21 82 OFFCURVE",
"100 -7 OFFCURVE",
"219 -7 CURVE SMOOTH"
);
},
{
closed = 1;
nodes = (
"198 127 OFFCURVE",
"184 162 OFFCURVE",
"184 214 CURVE SMOOTH",
"184 266 OFFCURVE",
"198 300 OFFCURVE",
"219 300 CURVE SMOOTH",
"239 300 OFFCURVE",
"252 266 OFFCURVE",
"252 214 CURVE SMOOTH",
"252 162 OFFCURVE",
"239 127 OFFCURVE",
"219 127 CURVE SMOOTH"
);
}
);
userData = {
RMXScaler = {
height = 60;
weight = -10;
width = 60;
};
};
width = 437;
}
);
leftMetricsKey = zero.dnom;
rightMetricsKey = zero.dnom;
userData = {
RMXScaler = {
source = zero;
};
};
},
{
export = 0;
glyphname = _hook.case;
layers = (
{
anchors = (
{
name = _hook;
position = "{622, 0}";
}
);
layerId = "D9DFF065-DDB2-4B0F-A853-E0DAE751FB65";
paths = (
{
closed = 1;
nodes = (
"403 -175 LINE",
"436 -196 OFFCURVE",
"479 -210 OFFCURVE",
"513 -210 CURVE SMOOTH",
"570 -210 OFFCURVE",
"609 -170 OFFCURVE",
"609 -110 CURVE SMOOTH",
"609 0 LINE",
"636 0 LINE",
"636 -110 LINE SMOOTH",
"636 -182 OFFCURVE",
"584 -230 OFFCURVE",
"518 -230 CURVE SMOOTH",
"481 -230 OFFCURVE",
"438 -215 OFFCURVE",
"400 -192 CURVE"
);
}
);
width = 746;
},
{
anchors = (
{
name = _hook;
position = "{607, 0}";
}
);
layerId = "EF8420CB-322A-4DAC-B980-DA6E6912705F";
paths = (
{
closed = 1;
nodes = (
"352 -75 LINE",
"385 -96 OFFCURVE",
"424 -110 OFFCURVE",
"450 -110 CURVE SMOOTH",
"483 -110 OFFCURVE",
"505 -86 OFFCURVE",
"505 -50 CURVE SMOOTH",
"505 0 LINE",
"696 0 LINE",
"696 -50 LINE SMOOTH",
"696 -158 OFFCURVE",
"615 -230 OFFCURVE",
"493 -230 CURVE SMOOTH",
"436 -230 OFFCURVE",
"373 -215 OFFCURVE",
"335 -192 CURVE"
);
}
);
width = 766;
}
);
},
{
export = 0;
glyphname = _hook;
layers = (
{
layerId = "D9DFF065-DDB2-4B0F-A853-E0DAE751FB65";
paths = (
{
closed = 1;
nodes = (
"431 -230 OFFCURVE",
"478 -182 OFFCURVE",
"478 -110 CURVE SMOOTH",
"478 0 LINE",
"458 0 LINE",
"458 -110 LINE SMOOTH",
"458 -170 OFFCURVE",
"417 -210 OFFCURVE",
"357 -210 CURVE SMOOTH",
"322 -210 OFFCURVE",
"281 -196 OFFCURVE",
"248 -175 CURVE",
"242 -192 LINE",
"280 -215 OFFCURVE",
"327 -230 OFFCURVE",
"364 -230 CURVE SMOOTH"
);
}
);
width = 568;
},
{
layerId = "EF8420CB-322A-4DAC-B980-DA6E6912705F";
paths = (
{
closed = 1;
nodes = (
"462 -230 OFFCURVE",
"543 -158 OFFCURVE",
"543 -50 CURVE SMOOTH",
"543 0 LINE",
"370 0 LINE",
"370 -50 LINE SMOOTH",
"370 -86 OFFCURVE",
"341 -110 OFFCURVE",
"301 -110 CURVE SMOOTH",
"271 -110 OFFCURVE",
"232 -96 OFFCURVE",
"199 -75 CURVE",
"182 -192 LINE",
"220 -215 OFFCURVE",
"283 -230 OFFCURVE",
"340 -230 CURVE SMOOTH"
);
}
);
width = 596;
}
);
},
{
export = 0;
glyphname = _commabelow;
layers = (
{
layerId = "D9DFF065-DDB2-4B0F-A853-E0DAE751FB65";
paths = (
{
closed = 1;
nodes = (
"314 -185 OFFCURVE",
"333 -134 OFFCURVE",
"333 -98 CURVE SMOOTH",
"333 -74 OFFCURVE",
"325 -58 OFFCURVE",
"305 -58 CURVE SMOOTH",
"289 -58 OFFCURVE",
"279 -68 OFFCURVE",
"279 -84 CURVE SMOOTH",
"279 -100 OFFCURVE",
"289 -110 OFFCURVE",
"312 -110 CURVE",
"312 -142 OFFCURVE",
"297 -179 OFFCURVE",
"274 -203 CURVE",
"286 -209 LINE"
);
}
);
width = 600;
},
{
layerId = "EF8420CB-322A-4DAC-B980-DA6E6912705F";
paths = (
{
closed = 1;
nodes = (
"328 -259 OFFCURVE",
"372 -189 OFFCURVE",
"372 -128 CURVE SMOOTH",
"372 -73 OFFCURVE",
"338 -36 OFFCURVE",
"286 -36 CURVE SMOOTH",
"237 -36 OFFCURVE",
"205 -68 OFFCURVE",
"205 -115 CURVE SMOOTH",
"205 -159 OFFCURVE",
"230 -189 OFFCURVE",
"268 -189 CURVE",
"268 -209 OFFCURVE",
"245 -243 OFFCURVE",
"210 -274 CURVE",
"263 -314 LINE"
);
}
);
width = 600;
}
);
},
{
export = 0;
glyphname = _hacekascender;
layers = (
{
layerId = "D9DFF065-DDB2-4B0F-A853-E0DAE751FB65";
paths = (
{
closed = 1;
nodes = (
"78 521 LINE",
"94 517 LINE",
"141 688 LINE",
"123 694 LINE"
);
}
);
width = 243;
},
{
layerId = "EF8420CB-322A-4DAC-B980-DA6E6912705F";
paths = (
{
closed = 1;
nodes = (
"108 548 LINE",
"203 541 LINE",
"240 755 LINE",
"114 764 LINE"
);
}
);
width = 345;
}
);
},
{
export = 0;
glyphname = _dollarstem;
layers = (
{
layerId = "D9DFF065-DDB2-4B0F-A853-E0DAE751FB65";
paths = (
{
closed = 1;
nodes = (
"288 -136 LINE",
"308 -136 LINE",
"308 6 LINE",
"288 6 LINE"
);
}
);
width = 624;
},
{
layerId = "EF8420CB-322A-4DAC-B980-DA6E6912705F";
paths = (
{
closed = 1;
nodes = (
"243 -136 LINE",
"387 -136 LINE",
"387 16 LINE",
"243 16 LINE"
);
}
);
width = 604;
}
);
},
{
export = 0;
glyphname = _breve;
layers = (
{
layerId = "D9DFF065-DDB2-4B0F-A853-E0DAE751FB65";
paths = (
{
closed = 1;
nodes = (
"268 614 OFFCURVE",
"231 587 OFFCURVE",
"187 587 CURVE SMOOTH",
"142 587 OFFCURVE",
"104 615 OFFCURVE",
"83 662 CURVE",
"69 652 LINE",
"92 600 OFFCURVE",
"136 568 OFFCURVE",
"187 568 CURVE SMOOTH",
"238 568 OFFCURVE",
"281 600 OFFCURVE",
"301 652 CURVE",
"287 661 LINE"
);
}
);
width = 372;
},
{
layerId = "EF8420CB-322A-4DAC-B980-DA6E6912705F";
paths = (
{
closed = 1;
nodes = (
"286 713 OFFCURVE",
"247 690 OFFCURVE",
"211 690 CURVE SMOOTH",
"176 690 OFFCURVE",
"131 710 OFFCURVE",
"113 750 CURVE",
"18 678 LINE",
"56 601 OFFCURVE",
"135 556 OFFCURVE",
"210 556 CURVE SMOOTH",
"287 556 OFFCURVE",
"363 604 OFFCURVE",
"398 675 CURVE",
"303 747 LINE"
);
}
);
width = 417;
}
);
},
{
export = 0;
glyphname = _macron;
layers = (
{
layerId = "D9DFF065-DDB2-4B0F-A853-E0DAE751FB65";
paths = (
{
closed = 1;
nodes = (
"96 642 LINE",
"96 626 LINE",
"355 626 LINE",
"355 642 LINE"
);
}
);
width = 451;
},
{
layerId = "EF8420CB-322A-4DAC-B980-DA6E6912705F";
paths = (
{
closed = 1;
nodes = (
"26 716 LINE",
"26 586 LINE",
"415 586 LINE",
"415 716 LINE"
);
}
);
width = 441;
}
);
},
{
export = 0;
glyphname = _slash.zero;
layers = (
{
anchors = (
{
name = _slash;
position = "{311, 370}";
}
);
layerId = "D9DFF065-DDB2-4B0F-A853-E0DAE751FB65";
paths = (
{
closed = 1;
nodes = (
"173 76 LINE",
"453 623 LINE",
"436 635 LINE",
"157 88 LINE"
);
}
);
width = 612;
},
{
anchors = (
{
name = _slash;
position = "{326, 369}";
}
);
layerId = "EF8420CB-322A-4DAC-B980-DA6E6912705F";
paths = (
{
closed = 1;
nodes = (
"192 128 LINE",
"518 519 LINE",
"457 582 LINE",
"132 190 LINE"
);
}
);
width = 600;
}
);
},
{
export = 0;
glyphname = _tail.Q;
layers = (
{
anchors = (
{
name = _Qtail;
position = "{564, 78}";
}
);
layerId = "D9DFF065-DDB2-4B0F-A853-E0DAE751FB65";
paths = (
{
closed = 1;
nodes = (
"440 183 LINE",
"668 -38 LINE",
"682 -23 LINE",
"454 199 LINE"
);
}
);
width = 778;
},
{
anchors = (
{
name = _Qtail;
position = "{528, 129}";
}
);
layerId = "EF8420CB-322A-4DAC-B980-DA6E6912705F";
paths = (
{
closed = 1;
nodes = (
"343 208 LINE",
"615 -39 LINE",
"699 46 LINE",
"427 294 LINE"
);
}
);
width = 763;
}
);
},
{
export = 0;
glyphname = _stem.g;
layers = (
{
anchors = (
{
name = bowl;
position = "{448, 234}";
}
);
layerId = "D9DFF065-DDB2-4B0F-A853-E0DAE751FB65";
paths = (
{
closed = 1;
nodes = (
"396 -230 OFFCURVE",
"468 -162 OFFCURVE",
"468 -60 CURVE SMOOTH",
"468 472 LINE",
"453 472 LINE",
"448 398 LINE",
"448 -60 LINE SMOOTH",
"448 -150 OFFCURVE",
"382 -210 OFFCURVE",
"283 -210 CURVE SMOOTH",
"233 -210 OFFCURVE",
"177 -195 OFFCURVE",
"131 -170 CURVE",
"125 -187 LINE",
"168 -213 OFFCURVE",
"233 -230 OFFCURVE",
"287 -230 CURVE SMOOTH"
);
}
);
width = 564;
},
{
anchors = (
{
name = bowl;
position = "{372, 243}";
}
);
layerId = "EF8420CB-322A-4DAC-B980-DA6E6912705F";
paths = (
{
closed = 1;
nodes = (
"436 -229 OFFCURVE",
"545 -137 OFFCURVE",
"545 0 CURVE SMOOTH",
"545 497 LINE",
"400 497 LINE",
"372 377 LINE",
"372 0 LINE SMOOTH",
"372 -50 OFFCURVE",
"326 -84 OFFCURVE",
"258 -84 CURVE SMOOTH",
"213 -84 OFFCURVE",
"156 -69 OFFCURVE",
"114 -46 CURVE",
"90 -188 LINE",
"143 -213 OFFCURVE",
"216 -229 OFFCURVE",
"281 -229 CURVE SMOOTH"
);
}
);
width = 610;
}
);
},
{
export = 0;
glyphname = _stem.d;
layers = (
{
anchors = (
{
name = bowl;
position = "{448, 234}";
}
);
layerId = "D9DFF065-DDB2-4B0F-A853-E0DAE751FB65";
paths = (
{
closed = 1;
nodes = (
"468 0 LINE",
"468 718 LINE",
"448 718 LINE",
"448 74 LINE",
"453 0 LINE"
);
}
);
width = 564;
},
{
anchors = (
{
name = bowl;
position = "{372, 243}";
}
);
layerId = "EF8420CB-322A-4DAC-B980-DA6E6912705F";
paths = (
{
closed = 1;
nodes = (
"545 0 LINE",
"545 728 LINE",
"372 728 LINE",
"372 120 LINE",
"400 0 LINE"
);
}
);
width = 610;
}
);
},
{
export = 0;
glyphname = _stem.b;
layers = (
{
anchors = (
{
name = bowl;
position = "{116, 234}";
}
);
layerId = "D9DFF065-DDB2-4B0F-A853-E0DAE751FB65";
paths = (
{
closed = 1;
nodes = (
"111 0 LINE",
"116 74 LINE",
"116 718 LINE",
"96 718 LINE",
"96 0 LINE"
);
}
);
width = 564;
},
{
anchors = (
{
name = bowl;
position = "{238, 243}";
}
);
layerId = "EF8420CB-322A-4DAC-B980-DA6E6912705F";
paths = (
{
closed = 1;
nodes = (
"210 0 LINE",
"238 120 LINE",
"238 728 LINE",
"65 728 LINE",
"65 0 LINE"
);
}
);
width = 610;
}
);
},
{
export = 0;
glyphname = _a.ae;
layers = (
{
layerId = "D9DFF065-DDB2-4B0F-A853-E0DAE751FB65";
paths = (
{
closed = 1;
nodes = (
"418 252 LINE",
"418 304 LINE SMOOTH",
"418 422 OFFCURVE",
"359 484 OFFCURVE",
"249 484 CURVE SMOOTH",
"195 484 OFFCURVE",
"138 469 OFFCURVE",
"86 442 CURVE",
"89 425 LINE",
"132 449 OFFCURVE",
"193 464 OFFCURVE",
"245 464 CURVE SMOOTH",
"346 464 OFFCURVE",
"401 408 OFFCURVE",
"401 304 CURVE SMOOTH",
"401 252 LINE"
);
},
{
closed = 1;
nodes = (
"281 -12 OFFCURVE",
"363 27 OFFCURVE",
"435 96 CURVE",
"435 112 LINE",
"361 45 OFFCURVE",
"277 8 OFFCURVE",
"204 8 CURVE SMOOTH",
"124 8 OFFCURVE",
"70 52 OFFCURVE",
"70 117 CURVE SMOOTH",
"70 205 OFFCURVE",
"167 240 OFFCURVE",
"409 240 CURVE",
"409 259 LINE",
"152 259 OFFCURVE",
"49 216 OFFCURVE",
"49 116 CURVE SMOOTH",
"49 38 OFFCURVE",
"113 -12 OFFCURVE",
"202 -12 CURVE SMOOTH"
);
}
);
width = 465;
},
{
layerId = "EF8420CB-322A-4DAC-B980-DA6E6912705F";
paths = (
{
closed = 1;
nodes = (
"436 261 LINE",
"436 327 LINE SMOOTH",
"436 441 OFFCURVE",
"377 507 OFFCURVE",
"265 507 CURVE SMOOTH",
"206 507 OFFCURVE",
"129 489 OFFCURVE",
"73 460 CURVE",
"100 333 LINE",
"140 355 OFFCURVE",
"185 367 OFFCURVE",
"228 367 CURVE SMOOTH",
"287 367 OFFCURVE",
"322 345 OFFCURVE",
"322 307 CURVE SMOOTH",
"322 261 LINE"
);
},
{
closed = 1;
nodes = (
"267 -12 OFFCURVE",
"341 23 OFFCURVE",
"383 76 CURVE",
"344 173 LINE",
"314 138 OFFCURVE",
"278 116 OFFCURVE",
"246 116 CURVE SMOOTH",
"222 116 OFFCURVE",
"204 129 OFFCURVE",
"204 146 CURVE SMOOTH",
"204 177 OFFCURVE",
"265 199 OFFCURVE",
"343 199 CURVE",
"343 311 LINE",
"154 311 OFFCURVE",
"28 238 OFFCURVE",
"28 128 CURVE SMOOTH",
"28 46 OFFCURVE",
"99 -12 OFFCURVE",
"194 -12 CURVE SMOOTH"
);
}
);
width = 466;
}
);
leftMetricsKey = a;
},
{
export = 0;
glyphname = _o.numero;
layers = (
{
layerId = "D9DFF065-DDB2-4B0F-A853-E0DAE751FB65";
paths = (
{
closed = 1;
nodes = (
"251 136 OFFCURVE",
"314 205 OFFCURVE",
"314 310 CURVE SMOOTH",
"314 414 OFFCURVE",
"251 484 OFFCURVE",
"157 484 CURVE SMOOTH",
"63 484 OFFCURVE",
"0 414 OFFCURVE",
"0 310 CURVE SMOOTH",
"0 205 OFFCURVE",
"63 136 OFFCURVE",
"157 136 CURVE SMOOTH"
);
},
{
closed = 1;
nodes = (
"75 154 OFFCURVE",
"21 216 OFFCURVE",
"21 310 CURVE SMOOTH",
"21 403 OFFCURVE",
"75 465 OFFCURVE",
"157 465 CURVE SMOOTH",
"239 465 OFFCURVE",
"293 403 OFFCURVE",
"293 310 CURVE SMOOTH",
"293 216 OFFCURVE",
"239 154 OFFCURVE",
"157 154 CURVE SMOOTH"
);
},
{
closed = 1;
nodes = (
"26 0 LINE",
"289 0 LINE",
"289 19 LINE",
"26 19 LINE"
);
}
);
userData = {
RMXScaler = {
height = 70;
verticalShift = 144;
width = 70;
};
};
width = 358;
},
{
layerId = "EF8420CB-322A-4DAC-B980-DA6E6912705F";
paths = (
{
closed = 1;
nodes = (
"298 139 OFFCURVE",
"372 213 OFFCURVE",
"372 324 CURVE SMOOTH",
"372 435 OFFCURVE",
"297 509 OFFCURVE",
"185 509 CURVE SMOOTH",
"74 509 OFFCURVE",
"0 435 OFFCURVE",
"0 324 CURVE SMOOTH",
"0 213 OFFCURVE",
"73 139 OFFCURVE",
"185 139 CURVE SMOOTH"
);
},
{
closed = 1;
nodes = (
"166 265 OFFCURVE",
"154 288 OFFCURVE",
"154 324 CURVE SMOOTH",
"154 359 OFFCURVE",
"166 382 OFFCURVE",
"185 382 CURVE SMOOTH",
"205 382 OFFCURVE",
"218 359 OFFCURVE",
"218 324 CURVE SMOOTH",
"218 289 OFFCURVE",
"205 265 OFFCURVE",
"185 265 CURVE SMOOTH"
);
},
{
closed = 1;
nodes = (
"25 0 LINE",
"348 0 LINE",
"348 100 LINE",
"25 100 LINE"
);
}
);
userData = {
RMXScaler = {
height = 70;
verticalShift = 147;
weight = -20;
width = 70;
};
};
width = 387;
}
);
userData = {
RMXScaler = {
source = o;
};
};
},
{
export = 0;
glyphname = _T.trademark;
layers = (
{
layerId = "D9DFF065-DDB2-4B0F-A853-E0DAE751FB65";
paths = (
{
closed = 1;
nodes = (
"203 280 LINE",
"203 700 LINE",
"182 700 LINE",
"182 280 LINE"
);
},
{
closed = 1;
nodes = (
"355 700 LINE",
"29 700 LINE",
"29 681 LINE",
"355 681 LINE"
);
}
);
userData = {
RMXScaler = {
height = 60;
verticalShift = 280;
width = 60;
};
};
width = 384;
},
{
layerId = "EF8420CB-322A-4DAC-B980-DA6E6912705F";
paths = (
{
closed = 1;
nodes = (
"255 281 LINE",
"255 707 LINE",
"120 707 LINE",
"120 281 LINE"
);
},
{
closed = 1;
nodes = (
"366 707 LINE",
"9 707 LINE",
"9 582 LINE",
"366 582 LINE"
);
}
);
userData = {
RMXScaler = {
height = 60;
verticalShift = 281;
weight = -40;
width = 60;
};
};
width = 375;
}
);
userData = {
RMXScaler = {
source = T;
};
};
},
{
export = 0;
glyphname = _M.trademark;
layers = (
{
layerId = "D9DFF065-DDB2-4B0F-A853-E0DAE751FB65";
paths = (
{
closed = 1;
nodes = (
"91 280 LINE",
"91 672 LINE",
"94 672 LINE",
"255 390 LINE",
"270 390 LINE",
"432 672 LINE",
"435 672 LINE",
"435 280 LINE",
"456 280 LINE",
"456 700 LINE",
"426 700 LINE",
"265 418 LINE",
"260 418 LINE",
"100 700 LINE",
"70 700 LINE",
"70 280 LINE"
);
}
);
userData = {
RMXScaler = {
height = 60;
verticalShift = 280;
width = 60;
};
};
width = 526;
},
{
layerId = "EF8420CB-322A-4DAC-B980-DA6E6912705F";
paths = (
{
closed = 1;
nodes = (
"177 281 LINE",
"177 452 LINE",
"182 452 LINE",
"245 344 LINE",
"282 344 LINE",
"345 452 LINE",
"350 452 LINE",
"350 281 LINE",
"486 281 LINE",
"486 707 LINE",
"350 707 LINE",
"266 549 LINE",
"261 549 LINE",
"178 707 LINE",
"41 707 LINE",
"41 281 LINE"
);
}
);
userData = {
RMXScaler = {
height = 60;
verticalShift = 281;
weight = -40;
width = 60;
};
};
width = 527;
}
);
userData = {
RMXScaler = {
source = M;
};
};
},
{
export = 0;
glyphname = _lpound;
layers = (
{
layerId = "D9DFF065-DDB2-4B0F-A853-E0DAE751FB65";
paths = (
{
closed = 1;
nodes = (
"221 167 LINE SMOOTH",
"221 98 OFFCURVE",
"179 39 OFFCURVE",
"117 19 CURVE",
"117 0 LINE",
"524 0 LINE",
"524 19 LINE",
"157 19 LINE",
"207 41 OFFCURVE",
"241 100 OFFCURVE",
"241 167 CURVE SMOOTH",
"241 512 LINE SMOOTH",
"241 617 OFFCURVE",
"302 684 OFFCURVE",
"399 684 CURVE SMOOTH",
"426 684 OFFCURVE",
"457 679 OFFCURVE",
"489 669 CURVE",
"491 686 LINE",
"456 698 OFFCURVE",
"422 704 OFFCURVE",
"393 704 CURVE SMOOTH",
"288 704 OFFCURVE",
"221 628 OFFCURVE",
"221 512 CURVE SMOOTH"
);
}
);
width = 614;
},
{
layerId = "EF8420CB-322A-4DAC-B980-DA6E6912705F";
paths = (
{
closed = 1;
nodes = (
"130 242 LINE SMOOTH",
"130 200 OFFCURVE",
"104 161 OFFCURVE",
"64 144 CURVE",
"64 0 LINE",
"531 0 LINE",
"531 144 LINE",
"237 144 LINE",
"277 162 OFFCURVE",
"303 203 OFFCURVE",
"303 246 CURVE SMOOTH",
"303 452 LINE SMOOTH",
"303 519 OFFCURVE",
"340 561 OFFCURVE",
"395 561 CURVE SMOOTH",
"417 561 OFFCURVE",
"445 554 OFFCURVE",
"469 544 CURVE",
"496 680 LINE",
"453 705 OFFCURVE",
"406 719 OFFCURVE",
"356 719 CURVE SMOOTH",
"223 719 OFFCURVE",
"130 619 OFFCURVE",
"130 472 CURVE SMOOTH"
);
}
);
width = 593;
}
);
},
{
export = 0;
glyphname = _lpound_stroke;
layers = (
{
layerId = "D9DFF065-DDB2-4B0F-A853-E0DAE751FB65";
paths = (
{
closed = 1;
nodes = (
"119 366 LINE",
"119 347 LINE",
"498 347 LINE",
"498 366 LINE"
);
}
);
width = 614;
},
{
layerId = "EF8420CB-322A-4DAC-B980-DA6E6912705F";
paths = (
{
closed = 1;
nodes = (
"76 427 LINE",
"76 287 LINE",
"493 287 LINE",
"493 427 LINE"
);
}
);
width = 593;
}
);
},
{
export = 0;
glyphname = _currency_C;
layers = (
{
layerId = "D9DFF065-DDB2-4B0F-A853-E0DAE751FB65";
paths = (
{
closed = 1;
nodes = (
"598 47 LINE",
"548 21 OFFCURVE",
"495 9 OFFCURVE",
"448 9 CURVE SMOOTH",
"289 9 OFFCURVE",
"181 145 OFFCURVE",
"181 348 CURVE SMOOTH",
"181 554 OFFCURVE",
"289 691 OFFCURVE",
"455 691 CURVE SMOOTH",
"508 691 OFFCURVE",
"556 677 OFFCURVE",
"598 659 CURVE",
"604 678 LINE",
"557 698 OFFCURVE",
"504 712 OFFCURVE",
"450 712 CURVE SMOOTH",
"275 712 OFFCURVE",
"159 566 OFFCURVE",
"159 348 CURVE SMOOTH",
"159 132 OFFCURVE",
"275 -12 OFFCURVE",
"441 -12 CURVE SMOOTH",
"487 -12 OFFCURVE",
"548 -1 OFFCURVE",
"604 28 CURVE"
);
}
);
width = 698;
},
{
layerId = "EF8420CB-322A-4DAC-B980-DA6E6912705F";
paths = (
{
closed = 1;
nodes = (
"564 172 LINE",
"527 149 OFFCURVE",
"476 135 OFFCURVE",
"430 135 CURVE SMOOTH",
"318 135 OFFCURVE",
"265 223 OFFCURVE",
"265 352 CURVE SMOOTH",
"265 483 OFFCURVE",
"320 571 OFFCURVE",
"433 571 CURVE SMOOTH",
"478 571 OFFCURVE",
"527 558 OFFCURVE",
"564 538 CURVE",
"596 675 LINE",
"545 701 OFFCURVE",
"482 718 OFFCURVE",
"416 718 CURVE SMOOTH",
"229 718 OFFCURVE",
"105 571 OFFCURVE",
"105 351 CURVE SMOOTH",
"105 134 OFFCURVE",
"227 -12 OFFCURVE",
"416 -12 CURVE SMOOTH",
"484 -12 OFFCURVE",
"544 6 OFFCURVE",
"596 35 CURVE"
);
}
);
width = 655;
}
);
},
{
export = 0;
glyphname = _A.AE;
layers = (
{
layerId = "D9DFF065-DDB2-4B0F-A853-E0DAE751FB65";
paths = (
{
closed = 1;
nodes = (
"69 0 LINE",
"460 669 LINE",
"466 669 LINE",
"466 0 LINE",
"487 0 LINE",
"487 700 LINE",
"454 700 LINE",
"39 0 LINE"
);
},
{
closed = 1;
nodes = (
"479 243 LINE",
"473 264 LINE",
"201 264 LINE",
"201 243 LINE"
);
}
